<ttFont>
    <TTGlyph name="A" xMin="55" yMin="0" xMax="1384" yMax="1456">
      <contour>
        <pt x="55" y="54" on="1"/>
        <pt x="162" y="54" on="1"/>
        <pt x="686" y="1456" on="1"/>
        <pt x="752" y="1456" on="1"/>
        <pt x="1277" y="54" on="1"/>
        <pt x="1384" y="54" on="1"/>
        <pt x="1384" y="0" on="1"/>
        <pt x="1075" y="0" on="1"/>
        <pt x="1075" y="54" on="1"/>
        <pt x="1218" y="54" on="1"/>
        <pt x="1075" y="435" on="1"/>
        <pt x="363" y="435" on="1"/>
        <pt x="221" y="54" on="1"/>
        <pt x="364" y="54" on="1"/>
        <pt x="364" y="0" on="1"/>
        <pt x="55" y="0" on="1"/>
      </contour>
      <contour>
        <pt x="383" y="489" on="1"/>
        <pt x="1055" y="489" on="1"/>
        <pt x="750" y="1309" on="1"/>
        <pt x="722" y="1391" on="1"/>
        <pt x="716" y="1391" on="1"/>
        <pt x="689" y="1309" on="1"/>
      </contour>
    </TTGlyph>
    <TTGlyph name="A.smcp" xMin="59" yMin="0" xMax="1243" yMax="1165">
      <contour>
        <pt x="59" y="54" on="1"/>
        <pt x="168" y="54" on="1"/>
        <pt x="622" y="1165" on="1"/>
        <pt x="682" y="1165" on="1"/>
        <pt x="1134" y="54" on="1"/>
        <pt x="1243" y="54" on="1"/>
        <pt x="1243" y="0" on="1"/>
        <pt x="935" y="0" on="1"/>
        <pt x="935" y="54" on="1"/>
        <pt x="1076" y="54" on="1"/>
        <pt x="962" y="336" on="1"/>
        <pt x="340" y="336" on="1"/>
        <pt x="226" y="54" on="1"/>
        <pt x="367" y="54" on="1"/>
        <pt x="367" y="0" on="1"/>
        <pt x="59" y="0" on="1"/>
      </contour>
      <contour>
        <pt x="362" y="390" on="1"/>
        <pt x="940" y="390" on="1"/>
        <pt x="673" y="1054" on="1"/>
        <pt x="654" y="1106" on="1"/>
        <pt x="648" y="1105" on="1"/>
        <pt x="630" y="1052" on="1"/>
      </contour>
    </TTGlyph>
    <TTGlyph name="AE" xMin="51" yMin="0" xMax="1856" yMax="1456">
      <contour>
        <pt x="51" y="54" on="1"/>
        <pt x="170" y="54" on="1"/>
        <pt x="1019" y="1456" on="1"/>
        <pt x="1795" y="1456" on="1"/>
        <pt x="1795" y="1163" on="1"/>
        <pt x="1741" y="1163" on="1"/>
        <pt x="1741" y="1402" on="1"/>
        <pt x="1099" y="1402" on="1"/>
        <pt x="1125" y="786" on="1"/>
        <pt x="1713" y="786" on="1"/>
        <pt x="1713" y="732" on="1"/>
        <pt x="1127" y="732" on="1"/>
        <pt x="1155" y="54" on="1"/>
        <pt x="1802" y="54" on="1"/>
        <pt x="1802" y="293" on="1"/>
        <pt x="1856" y="293" on="1"/>
        <pt x="1856" y="0" on="1"/>
        <pt x="941" y="0" on="1"/>
        <pt x="941" y="54" on="1"/>
        <pt x="1101" y="54" on="1"/>
        <pt x="1086" y="425" on="1"/>
        <pt x="458" y="425" on="1"/>
        <pt x="235" y="54" on="1"/>
        <pt x="366" y="54" on="1"/>
        <pt x="366" y="0" on="1"/>
        <pt x="51" y="0" on="1"/>
      </contour>
      <contour>
        <pt x="490" y="478" on="1"/>
        <pt x="1084" y="478" on="1"/>
        <pt x="1045" y="1402" on="1"/>
        <pt x="1040" y="1403" on="1"/>
        <pt x="983" y="1298" on="1"/>
      </contour>
    </TTGlyph>
    <TTGlyph name="AEacute" xMin="51" yMin="0" xMax="1856" yMax="1813">
      <component glyphName="AE" x="0" y="0" flags="0x204"/>
      <component glyphName="acute" x="910" y="335" flags="0x4"/>
    </TTGlyph>
    <TTGlyph name="Aacute" xMin="55" yMin="0" xMax="1384" yMax="1811">
      <component glyphName="A" x="0" y="0" flags="0x204"/>
      <component glyphName="acute" x="549" y="333" flags="0x4"/>
    </TTGlyph>
    <TTGlyph name="Aacute.smcp" xMin="59" yMin="0" xMax="1243" yMax="1490">
      <component glyphName="A.smcp" x="0" y="0" flags="0x204"/>
      <component glyphName="acute" x="477" y="12" flags="0x4"/>
    </TTGlyph>
    <TTGlyph name="Abreve" xMin="55" yMin="0" xMax="1384" yMax="1802">
      <component glyphName="A" x="0" y="0" flags="0x204"/>
      <component glyphName="breve" x="316" y="346" flags="0x4"/>
    </TTGlyph>
    <TTGlyph name="Abreve.smcp" xMin="59" yMin="0" xMax="1243" yMax="1481">
      <component glyphName="A.smcp" x="0" y="0" flags="0x204"/>
      <component glyphName="breve" x="244" y="25" flags="0x4"/>
    </TTGlyph>
    <TTGlyph name="Acircumflex" xMin="55" yMin="0" xMax="1384" yMax="1822">
      <component glyphName="A" x="0" y="0" flags="0x204"/>
      <component glyphName="circumflex" x="362" y="347" flags="0x4"/>
    </TTGlyph>
    <TTGlyph name="Acircumflex.smcp" xMin="59" yMin="0" xMax="1243" yMax="1501">
      <component glyphName="A.smcp" x="0" y="0" flags="0x204"/>
      <component glyphName="circumflex" x="290" y="26" flags="0x4"/>
    </TTGlyph>
    <TTGlyph name="Adieresis" xMin="55" yMin="0" xMax="1384" yMax="1789">
      <component glyphName="A" x="0" y="0" flags="0x204"/>
      <component glyphName="dieresis" x="264" y="333" flags="0x4"/>
    </TTGlyph>
    <TTGlyph name="Adieresis.smcp" xMin="59" yMin="0" xMax="1243" yMax="1468">
      <component glyphName="A.smcp" x="0" y="0" flags="0x204"/>
      <component glyphName="dieresis" x="192" y="12" flags="0x4"/>
    </TTGlyph>
    <TTGlyph name="Agrave" xMin="55" yMin="0" xMax="1384" yMax="1838">
      <component glyphName="A" x="0" y="0" flags="0x204"/>
      <component glyphName="grave" x="369" y="362" flags="0x4"/>
    </TTGlyph>
    <TTGlyph name="Agrave.smcp" xMin="59" yMin="0" xMax="1243" yMax="1517">
      <component glyphName="A.smcp" x="0" y="0" flags="0x204"/>
      <component glyphName="grave" x="297" y="41" flags="0x4"/>
    </TTGlyph>
    <TTGlyph name="Alpha" xMin="55" yMin="0" xMax="1384" yMax="1456">
      <component glyphName="A" x="0" y="0" flags="0x204"/>
    </TTGlyph>
    <TTGlyph name="Alphatonos" xMin="55" yMin="0" xMax="1384" yMax="1577">
      <component glyphName="A" x="0" y="0" flags="0x204"/>
      <component glyphName="tonos" x="-37" y="-1" flags="0x4"/>
    </TTGlyph>
    <TTGlyph name="Amacron" xMin="55" yMin="0" xMax="1384" yMax="1784">
      <component glyphName="A" x="0" y="0" flags="0x204"/>
      <component glyphName="macron" x="259" y="328" flags="0x4"/>
    </TTGlyph>
    <TTGlyph name="Amacron.smcp" xMin="59" yMin="0" xMax="1243" yMax="1463">
      <component glyphName="A.smcp" x="0" y="0" flags="0x204"/>
      <component glyphName="macron" x="187" y="7" flags="0x4"/>
    </TTGlyph>
    <TTGlyph name="Aogonek" xMin="55" yMin="-357" xMax="1446" yMax="1456">
      <component glyphName="A" x="0" y="0" flags="0x204"/>
      <component glyphName="ogonek" x="1128" y="0" flags="0x4"/>
    </TTGlyph>
    <TTGlyph name="Aogonek.smcp" xMin="59" yMin="-357" xMax="1305" yMax="1165">
      <component glyphName="A.smcp" x="0" y="0" flags="0x204"/>
      <component glyphName="ogonek" x="987" y="0" flags="0x4"/>
    </TTGlyph>
    <TTGlyph name="Aring" xMin="55" yMin="0" xMax="1384" yMax="1884">
      <component glyphName="A" x="0" y="0" flags="0x204"/>
      <component glyphName="ring" x="440" y="407" flags="0x4"/>
    </TTGlyph>
    <TTGlyph name="Aring.smcp" xMin="59" yMin="0" xMax="1243" yMax="1563">
      <component glyphName="A.smcp" x="0" y="0" flags="0x204"/>
      <component glyphName="ring" x="368" y="86" flags="0x4"/>
    </TTGlyph>
    <TTGlyph name="Aringacute" xMin="55" yMin="0" xMax="1384" yMax="1928">
      <component glyphName="A" x="0" y="0" flags="0x204"/>
      <component glyphName="ringacute" x="446" y="230" flags="0x4"/>
    </TTGlyph>
    <TTGlyph name="Aringacute.smcp" xMin="59" yMin="0" xMax="1243" yMax="1608">
      <component glyphName="A.smcp" x="0" y="0" flags="0x204"/>
      <component glyphName="ringacute" x="374" y="-90" flags="0x4"/>
    </TTGlyph>
    <TTGlyph name="Atilde" xMin="55" yMin="0" xMax="1384" yMax="1809">
      <component glyphName="A" x="0" y="0" flags="0x204"/>
      <component glyphName="tilde" x="297" y="327" flags="0x4"/>
    </TTGlyph>
    <TTGlyph name="Atilde.smcp" xMin="59" yMin="0" xMax="1243" yMax="1488">
      <component glyphName="A.smcp" x="0" y="0" flags="0x204"/>
      <component glyphName="tilde" x="225" y="6" flags="0x4"/>
    </TTGlyph>
    <TTGlyph name="B" xMin="71" yMin="0" xMax="1159" yMax="1456">
      <contour>
        <pt x="617" y="1456" on="1"/>
        <pt x="843" y="1456" on="0"/>
        <pt x="1093" y="1270" on="0"/>
        <pt x="1093" y="1083" on="1"/>
        <pt x="1093" y="953" on="0"/>
        <pt x="959" y="775" on="0"/>
        <pt x="837" y="753" on="1"/>
        <pt x="973" y="735" on="0"/>
        <pt x="1159" y="533" on="0"/>
        <pt x="1159" y="401" on="1"/>
        <pt x="1159" y="210" on="0"/>
        <pt x="912" y="0" on="0"/>
        <pt x="709" y="0" on="1"/>
        <pt x="71" y="0" on="1"/>
        <pt x="71" y="54" on="1"/>
        <pt x="234" y="54" on="1"/>
        <pt x="234" y="1402" on="1"/>
        <pt x="71" y="1402" on="1"/>
        <pt x="71" y="1456" on="1"/>
        <pt x="234" y="1456" on="1"/>
      </contour>
      <contour>
        <pt x="288" y="719" on="1"/>
        <pt x="288" y="54" on="1"/>
        <pt x="709" y="54" on="1"/>
        <pt x="893" y="54" on="0"/>
        <pt x="1105" y="236" on="0"/>
        <pt x="1105" y="399" on="1"/>
        <pt x="1105" y="533" on="0"/>
        <pt x="902" y="719" on="0"/>
        <pt x="719" y="719" on="1"/>
      </contour>
      <contour>
        <pt x="288" y="773" on="1"/>
        <pt x="637" y="773" on="1"/>
        <pt x="836" y="773" on="0"/>
        <pt x="1038" y="928" on="0"/>
        <pt x="1038" y="1087" on="1"/>
        <pt x="1038" y="1243" on="0"/>
        <pt x="825" y="1402" on="0"/>
        <pt x="617" y="1402" on="1"/>
        <pt x="288" y="1402" on="1"/>
      </contour>
    </TTGlyph>
    <TTGlyph name="B.smcp" xMin="88" yMin="0" xMax="1055" yMax="1165">
      <contour>
        <pt x="602" y="1165" on="1"/>
        <pt x="795" y="1165" on="0"/>
        <pt x="1008" y="1015" on="0"/>
        <pt x="1008" y="864" on="1"/>
        <pt x="1008" y="765" on="0"/>
        <pt x="896" y="620" on="0"/>
        <pt x="795" y="598" on="1"/>
        <pt x="906" y="583" on="0"/>
        <pt x="1055" y="421" on="0"/>
        <pt x="1055" y="314" on="1"/>
        <pt x="1055" y="162" on="0"/>
        <pt x="846" y="0" on="0"/>
        <pt x="672" y="0" on="1"/>
        <pt x="88" y="0" on="1"/>
        <pt x="88" y="54" on="1"/>
        <pt x="251" y="54" on="1"/>
        <pt x="251" y="1111" on="1"/>
        <pt x="88" y="1111" on="1"/>
        <pt x="88" y="1165" on="1"/>
        <pt x="251" y="1165" on="1"/>
      </contour>
      <contour>
        <pt x="305" y="563" on="1"/>
        <pt x="305" y="54" on="1"/>
        <pt x="672" y="54" on="1"/>
        <pt x="826" y="54" on="0"/>
        <pt x="1002" y="188" on="0"/>
        <pt x="1002" y="313" on="1"/>
        <pt x="1002" y="425" on="0"/>
        <pt x="823" y="563" on="0"/>
        <pt x="672" y="563" on="1"/>
      </contour>
      <contour>
        <pt x="305" y="617" on="1"/>
        <pt x="619" y="617" on="1"/>
        <pt x="783" y="619" on="0"/>
        <pt x="954" y="746" on="0"/>
        <pt x="954" y="867" on="1"/>
        <pt x="954" y="992" on="0"/>
        <pt x="777" y="1112" on="0"/>
        <pt x="602" y="1112" on="1"/>
        <pt x="305" y="1112" on="1"/>
      </contour>
    </TTGlyph>
    <TTGlyph name="Beta" xMin="71" yMin="0" xMax="1159" yMax="1456">
      <component glyphName="B" x="0" y="0" flags="0x204"/>
    </TTGlyph>
    <TTGlyph name="C" xMin="130" yMin="-21" xMax="1256" yMax="1477">
      <contour>
        <pt x="1256" y="992" on="1"/>
        <pt x="1201" y="992" on="1"/>
        <pt x="1201" y="1226" on="1"/>
        <pt x="1134" y="1316" on="0"/>
        <pt x="910" y="1423" on="0"/>
        <pt x="767" y="1423" on="1"/>
        <pt x="508" y="1423" on="0"/>
        <pt x="184" y="1045" on="0"/>
        <pt x="184" y="739" on="1"/>
        <pt x="184" y="719" on="1"/>
        <pt x="184" y="412" on="0"/>
        <pt x="506" y="33" on="0"/>
        <pt x="757" y="33" on="1"/>
        <pt x="901" y="33" on="0"/>
        <pt x="1135" y="140" on="0"/>
        <pt x="1201" y="230" on="1"/>
        <pt x="1201" y="464" on="1"/>
        <pt x="1256" y="464" on="1"/>
        <pt x="1256" y="210" on="1"/>
        <pt x="1183" y="103" on="0"/>
        <pt x="917" y="-21" on="0"/>
        <pt x="757" y="-21" on="1"/>
        <pt x="480" y="-21" on="0"/>
        <pt x="130" y="390" on="0"/>
        <pt x="130" y="719" on="1"/>
        <pt x="130" y="737" on="1"/>
        <pt x="130" y="1067" on="0"/>
        <pt x="482" y="1477" on="0"/>
        <pt x="767" y="1477" on="1"/>
        <pt x="925" y="1477" on="0"/>
        <pt x="1182" y="1353" on="0"/>
        <pt x="1256" y="1246" on="1"/>
      </contour>
    </TTGlyph>
    <TTGlyph name="C.smcp" xMin="118" yMin="-17" xMax="990" yMax="1181">
      <contour>
        <pt x="983" y="359" on="1"/>
        <pt x="986" y="353" on="1"/>
        <pt x="990" y="172" on="0"/>
        <pt x="764" y="-17" on="0"/>
        <pt x="562" y="-17" on="1"/>
        <pt x="357" y="-17" on="0"/>
        <pt x="118" y="246" on="0"/>
        <pt x="118" y="461" on="1"/>
        <pt x="118" y="704" on="1"/>
        <pt x="118" y="918" on="0"/>
        <pt x="357" y="1181" on="0"/>
        <pt x="562" y="1181" on="1"/>
        <pt x="764" y="1181" on="0"/>
        <pt x="990" y="992" on="0"/>
        <pt x="986" y="813" on="1"/>
        <pt x="983" y="807" on="1"/>
        <pt x="938" y="807" on="1"/>
        <pt x="938" y="964" on="0"/>
        <pt x="745" y="1127" on="0"/>
        <pt x="562" y="1127" on="1"/>
        <pt x="382" y="1127" on="0"/>
        <pt x="172" y="896" on="0"/>
        <pt x="172" y="705" on="1"/>
        <pt x="172" y="461" on="1"/>
        <pt x="172" y="269" on="0"/>
        <pt x="382" y="38" on="0"/>
        <pt x="562" y="38" on="1"/>
        <pt x="746" y="38" on="0"/>
        <pt x="938" y="195" on="0"/>
        <pt x="938" y="359" on="1"/>
      </contour>
    </TTGlyph>
    <TTGlyph name="C.ss03" xMin="114" yMin="-21" xMax="1150" yMax="1477">
      <contour>
        <pt x="1150" y="922" on="1"/>
        <pt x="1095" y="922" on="1"/>
        <pt x="1095" y="1226" on="1"/>
        <pt x="1028" y="1316" on="0"/>
        <pt x="804" y="1423" on="0"/>
        <pt x="661" y="1423" on="1"/>
        <pt x="432" y="1423" on="0"/>
        <pt x="168" y="1104" on="0"/>
        <pt x="168" y="839" on="1"/>
        <pt x="168" y="619" on="1"/>
        <pt x="168" y="355" on="0"/>
        <pt x="437" y="33" on="0"/>
        <pt x="651" y="33" on="1"/>
        <pt x="795" y="33" on="0"/>
        <pt x="1029" y="151" on="0"/>
        <pt x="1095" y="250" on="1"/>
        <pt x="1095" y="504" on="1"/>
        <pt x="1150" y="504" on="1"/>
        <pt x="1150" y="230" on="1"/>
        <pt x="1077" y="114" on="0"/>
        <pt x="811" y="-21" on="0"/>
        <pt x="651" y="-21" on="1"/>
        <pt x="411" y="-21" on="0"/>
        <pt x="114" y="333" on="0"/>
        <pt x="114" y="619" on="1"/>
        <pt x="114" y="837" on="1"/>
        <pt x="114" y="1126" on="0"/>
        <pt x="406" y="1477" on="0"/>
        <pt x="661" y="1477" on="1"/>
        <pt x="819" y="1477" on="0"/>
        <pt x="1076" y="1353" on="0"/>
        <pt x="1150" y="1246" on="1"/>
      </contour>
    </TTGlyph>
    <TTGlyph name="C.ss04" xMin="114" yMin="-21" xMax="1154" yMax="1477">
      <contour>
        <pt x="1152" y="446" on="1"/>
        <pt x="1154" y="440" on="1"/>
        <pt x="1136" y="213" on="0"/>
        <pt x="865" y="-21" on="0"/>
        <pt x="641" y="-21" on="1"/>
        <pt x="402" y="-21" on="0"/>
        <pt x="114" y="332" on="0"/>
        <pt x="114" y="619" on="1"/>
        <pt x="114" y="837" on="1"/>
        <pt x="114" y="1123" on="0"/>
        <pt x="402" y="1477" on="0"/>
        <pt x="641" y="1477" on="1"/>
        <pt x="864" y="1477" on="0"/>
        <pt x="1136" y="1242" on="0"/>
        <pt x="1154" y="1018" on="1"/>
        <pt x="1152" y="1012" on="1"/>
        <pt x="1106" y="1012" on="1"/>
        <pt x="1083" y="1212" on="0"/>
        <pt x="847" y="1423" on="0"/>
        <pt x="641" y="1423" on="1"/>
        <pt x="428" y="1423" on="0"/>
        <pt x="168" y="1101" on="0"/>
        <pt x="168" y="839" on="1"/>
        <pt x="168" y="619" on="1"/>
        <pt x="168" y="354" on="0"/>
        <pt x="428" y="33" on="0"/>
        <pt x="641" y="33" on="1"/>
        <pt x="847" y="33" on="0"/>
        <pt x="1083" y="236" on="0"/>
        <pt x="1106" y="446" on="1"/>
      </contour>
    </TTGlyph>
    <TTGlyph name="Cacute" xMin="130" yMin="-21" xMax="1256" yMax="1834">
      <component glyphName="C" x="0" y="0" flags="0x204"/>
      <component glyphName="acute" x="591" y="356" flags="0x4"/>
    </TTGlyph>
    <TTGlyph name="Cacute.smcp" xMin="118" yMin="-17" xMax="990" yMax="1506">
      <component glyphName="C.smcp" x="0" y="0" flags="0x204"/>
      <component glyphName="acute" x="402" y="28" flags="0x4"/>
    </TTGlyph>
    <TTGlyph name="Ccaron" xMin="130" yMin="-21" xMax="1256" yMax="1820">
      <component glyphName="C" x="0" y="0" flags="0x204"/>
      <component glyphName="caron" x="412" y="345" flags="0x4"/>
    </TTGlyph>
    <TTGlyph name="Ccaron.smcp" xMin="118" yMin="-17" xMax="990" yMax="1492">
      <component glyphName="C.smcp" x="0" y="0" flags="0x204"/>
      <component glyphName="caron" x="223" y="17" flags="0x4"/>
    </TTGlyph>
    <TTGlyph name="Ccedilla" xMin="130" yMin="-435" xMax="1256" yMax="1477">
      <component glyphName="C" x="0" y="0" flags="0x204"/>
      <component glyphName="cedilla" x="571" y="0" flags="0x4"/>
    </TTGlyph>
    <TTGlyph name="Ccedilla.smcp" xMin="118" yMin="-441" xMax="990" yMax="1181">
      <component glyphName="C.smcp" x="0" y="0" flags="0x204"/>
      <component glyphName="cedilla" x="388" y="-6" flags="0x4"/>
    </TTGlyph>
    <TTGlyph name="Ccircumflex" xMin="130" yMin="-21" xMax="1256" yMax="1845">
      <component glyphName="C" x="0" y="0" flags="0x204"/>
      <component glyphName="circumflex" x="404" y="370" flags="0x4"/>
    </TTGlyph>
    <TTGlyph name="Ccircumflex.smcp" xMin="118" yMin="-17" xMax="990" yMax="1517">
      <component glyphName="C.smcp" x="0" y="0" flags="0x204"/>
      <component glyphName="circumflex" x="215" y="42" flags="0x4"/>
    </TTGlyph>
    <TTGlyph name="Chi" xMin="63" yMin="0" xMax="1333" yMax="1456">
      <component glyphName="X" x="0" y="0" flags="0x204"/>
    </TTGlyph>
    <TTGlyph name="D" xMin="71" yMin="0" xMax="1238" yMax="1456">
      <contour>
        <pt x="637" y="1456" on="1"/>
        <pt x="888" y="1456" on="0"/>
        <pt x="1238" y="1096" on="0"/>
        <pt x="1238" y="817" on="1"/>
        <pt x="1238" y="639" on="1"/>
        <pt x="1238" y="359" on="0"/>
        <pt x="888" y="0" on="0"/>
        <pt x="637" y="0" on="1"/>
        <pt x="71" y="0" on="1"/>
        <pt x="71" y="54" on="1"/>
        <pt x="234" y="54" on="1"/>
        <pt x="234" y="1402" on="1"/>
        <pt x="71" y="1402" on="1"/>
        <pt x="71" y="1456" on="1"/>
        <pt x="234" y="1456" on="1"/>
      </contour>
      <contour>
        <pt x="288" y="1402" on="1"/>
        <pt x="288" y="54" on="1"/>
        <pt x="637" y="54" on="1"/>
        <pt x="864" y="54" on="0"/>
        <pt x="1184" y="386" on="0"/>
        <pt x="1184" y="639" on="1"/>
        <pt x="1184" y="820" on="1"/>
        <pt x="1184" y="1070" on="0"/>
        <pt x="864" y="1402" on="0"/>
        <pt x="637" y="1402" on="1"/>
      </contour>
    </TTGlyph>
    <TTGlyph name="D.smcp" xMin="88" yMin="0" xMax="1088" yMax="1165">
      <contour>
        <pt x="627" y="1165" on="1"/>
        <pt x="819" y="1165" on="0"/>
        <pt x="1088" y="895" on="0"/>
        <pt x="1088" y="687" on="1"/>
        <pt x="1088" y="477" on="1"/>
        <pt x="1088" y="268" on="0"/>
        <pt x="819" y="0" on="0"/>
        <pt x="627" y="0" on="1"/>
        <pt x="88" y="0" on="1"/>
        <pt x="88" y="54" on="1"/>
        <pt x="251" y="54" on="1"/>
        <pt x="251" y="1111" on="1"/>
        <pt x="88" y="1111" on="1"/>
        <pt x="88" y="1165" on="1"/>
        <pt x="251" y="1165" on="1"/>
      </contour>
      <contour>
        <pt x="305" y="1111" on="1"/>
        <pt x="305" y="54" on="1"/>
        <pt x="627" y="54" on="1"/>
        <pt x="796" y="54" on="0"/>
        <pt x="1034" y="294" on="0"/>
        <pt x="1034" y="477" on="1"/>
        <pt x="1034" y="688" on="1"/>
        <pt x="1034" y="870" on="0"/>
        <pt x="796" y="1111" on="0"/>
        <pt x="627" y="1111" on="1"/>
      </contour>
    </TTGlyph>
    <TTGlyph name="Dcaron" xMin="71" yMin="0" xMax="1238" yMax="1799">
      <component glyphName="D" x="0" y="0" flags="0x204"/>
      <component glyphName="caron" x="246" y="324" flags="0x4"/>
    </TTGlyph>
    <TTGlyph name="Dcaron.smcp" xMin="88" yMin="0" xMax="1088" yMax="1476">
      <component glyphName="D.smcp" x="0" y="0" flags="0x204"/>
      <component glyphName="caron" x="135" y="1" flags="0x4"/>
    </TTGlyph>
    <TTGlyph name="Dcroat" xMin="101" yMin="0" xMax="1268" yMax="1456">
      <contour>
        <pt x="667" y="1456" on="1"/>
        <pt x="918" y="1456" on="0"/>
        <pt x="1268" y="1096" on="0"/>
        <pt x="1268" y="817" on="1"/>
        <pt x="1268" y="639" on="1"/>
        <pt x="1268" y="359" on="0"/>
        <pt x="918" y="0" on="0"/>
        <pt x="667" y="0" on="1"/>
        <pt x="101" y="0" on="1"/>
        <pt x="101" y="54" on="1"/>
        <pt x="264" y="54" on="1"/>
        <pt x="264" y="713" on="1"/>
        <pt x="136" y="713" on="1"/>
        <pt x="136" y="767" on="1"/>
        <pt x="264" y="767" on="1"/>
        <pt x="264" y="1402" on="1"/>
        <pt x="101" y="1402" on="1"/>
        <pt x="101" y="1456" on="1"/>
      </contour>
      <contour>
        <pt x="723" y="713" on="1"/>
        <pt x="318" y="713" on="1"/>
        <pt x="318" y="54" on="1"/>
        <pt x="667" y="54" on="1"/>
        <pt x="894" y="54" on="0"/>
        <pt x="1214" y="386" on="0"/>
        <pt x="1214" y="639" on="1"/>
        <pt x="1214" y="820" on="1"/>
        <pt x="1214" y="1070" on="0"/>
        <pt x="894" y="1402" on="0"/>
        <pt x="667" y="1402" on="1"/>
        <pt x="318" y="1402" on="1"/>
        <pt x="318" y="767" on="1"/>
        <pt x="723" y="767" on="1"/>
      </contour>
    </TTGlyph>
    <TTGlyph name="Dcroat.smcp" xMin="20" yMin="0" xMax="1088" yMax="1165">
      <component glyphName="D.smcp" x="0" y="0" flags="0x204"/>
      <component glyphName="crossbar" x="-134" y="-155" flags="0x4"/>
    </TTGlyph>
    <TTGlyph name="Delta" xMin="31" yMin="0" xMax="1329" yMax="1456">
      <contour>
        <pt x="647" y="1456" on="1"/>
        <pt x="712" y="1456" on="1"/>
        <pt x="1329" y="0" on="1"/>
        <pt x="31" y="0" on="1"/>
      </contour>
      <contour>
        <pt x="113" y="54" on="1"/>
        <pt x="1246" y="54" on="1"/>
        <pt x="709" y="1325" on="1"/>
        <pt x="682" y="1397" on="1"/>
        <pt x="676" y="1397" on="1"/>
        <pt x="649" y="1325" on="1"/>
      </contour>
    </TTGlyph>
    <TTGlyph name="E" xMin="71" yMin="0" xMax="1120" yMax="1456">
      <contour>
        <pt x="71" y="0" on="1"/>
        <pt x="71" y="54" on="1"/>
        <pt x="234" y="54" on="1"/>
        <pt x="234" y="1402" on="1"/>
        <pt x="71" y="1402" on="1"/>
        <pt x="71" y="1456" on="1"/>
        <pt x="1120" y="1456" on="1"/>
        <pt x="1120" y="1163" on="1"/>
        <pt x="1066" y="1163" on="1"/>
        <pt x="1066" y="1402" on="1"/>
        <pt x="288" y="1402" on="1"/>
        <pt x="288" y="786" on="1"/>
        <pt x="918" y="786" on="1"/>
        <pt x="918" y="732" on="1"/>
        <pt x="288" y="732" on="1"/>
        <pt x="288" y="54" on="1"/>
        <pt x="1066" y="54" on="1"/>
        <pt x="1066" y="293" on="1"/>
        <pt x="1120" y="293" on="1"/>
        <pt x="1120" y="0" on="1"/>
      </contour>
    </TTGlyph>
    <TTGlyph name="E.smcp" xMin="88" yMin="0" xMax="1021" yMax="1165">
      <contour>
        <pt x="88" y="0" on="1"/>
        <pt x="88" y="54" on="1"/>
        <pt x="251" y="54" on="1"/>
        <pt x="251" y="1111" on="1"/>
        <pt x="88" y="1111" on="1"/>
        <pt x="88" y="1165" on="1"/>
        <pt x="1021" y="1165" on="1"/>
        <pt x="1021" y="872" on="1"/>
        <pt x="967" y="872" on="1"/>
        <pt x="967" y="1111" on="1"/>
        <pt x="305" y="1111" on="1"/>
        <pt x="305" y="633" on="1"/>
        <pt x="934" y="633" on="1"/>
        <pt x="934" y="579" on="1"/>
        <pt x="305" y="579" on="1"/>
        <pt x="305" y="54" on="1"/>
        <pt x="967" y="54" on="1"/>
        <pt x="967" y="293" on="1"/>
        <pt x="1021" y="293" on="1"/>
        <pt x="1021" y="0" on="1"/>
      </contour>
    </TTGlyph>
    <TTGlyph name="Eacute" xMin="71" yMin="0" xMax="1120" yMax="1813">
      <component glyphName="E" x="0" y="0" flags="0x204"/>
      <component glyphName="acute" x="454" y="335" flags="0x4"/>
    </TTGlyph>
    <TTGlyph name="Eacute.smcp" xMin="88" yMin="0" xMax="1021" yMax="1490">
      <component glyphName="E.smcp" x="0" y="0" flags="0x204"/>
      <component glyphName="acute" x="373" y="12" flags="0x4"/>
    </TTGlyph>
    <TTGlyph name="Ebreve" xMin="71" yMin="0" xMax="1120" yMax="1804">
      <component glyphName="E" x="0" y="0" flags="0x204"/>
      <component glyphName="breve" x="221" y="348" flags="0x4"/>
    </TTGlyph>
    <TTGlyph name="Ebreve.smcp" xMin="88" yMin="0" xMax="1021" yMax="1481">
      <component glyphName="E.smcp" x="0" y="0" flags="0x204"/>
      <component glyphName="breve" x="140" y="25" flags="0x4"/>
    </TTGlyph>
    <TTGlyph name="Ecaron" xMin="71" yMin="0" xMax="1120" yMax="1799">
      <component glyphName="E" x="0" y="0" flags="0x204"/>
      <component glyphName="caron" x="275" y="324" flags="0x4"/>
    </TTGlyph>
    <TTGlyph name="Ecaron.smcp" xMin="88" yMin="0" xMax="1021" yMax="1476">
      <component glyphName="E.smcp" x="0" y="0" flags="0x204"/>
      <component glyphName="caron" x="194" y="1" flags="0x4"/>
    </TTGlyph>
    <TTGlyph name="Ecircumflex" xMin="71" yMin="0" xMax="1120" yMax="1824">
      <component glyphName="E" x="0" y="0" flags="0x204"/>
      <component glyphName="circumflex" x="267" y="349" flags="0x4"/>
    </TTGlyph>
    <TTGlyph name="Ecircumflex.smcp" xMin="88" yMin="0" xMax="1021" yMax="1501">
      <component glyphName="E.smcp" x="0" y="0" flags="0x204"/>
      <component glyphName="circumflex" x="186" y="26" flags="0x4"/>
    </TTGlyph>
    <TTGlyph name="Edieresis" xMin="71" yMin="0" xMax="1120" yMax="1791">
      <component glyphName="E" x="0" y="0" flags="0x204"/>
      <component glyphName="dieresis" x="169" y="335" flags="0x4"/>
    </TTGlyph>
    <TTGlyph name="Edieresis.smcp" xMin="88" yMin="0" xMax="1021" yMax="1468">
      <component glyphName="E.smcp" x="0" y="0" flags="0x204"/>
      <component glyphName="dieresis" x="88" y="12" flags="0x4"/>
    </TTGlyph>
    <TTGlyph name="Edotaccent" xMin="71" yMin="0" xMax="1120" yMax="1776">
      <component glyphName="E" x="0" y="0" flags="0x204"/>
      <component glyphName="dotaccent" x="421" y="320" flags="0x4"/>
    </TTGlyph>
    <TTGlyph name="Edotaccent.smcp" xMin="88" yMin="0" xMax="1021" yMax="1454">
      <component glyphName="E.smcp" x="0" y="0" flags="0x204"/>
      <component glyphName="dotaccent" x="340" y="-2" flags="0x4"/>
    </TTGlyph>
    <TTGlyph name="Egrave" xMin="71" yMin="0" xMax="1120" yMax="1840">
      <component glyphName="E" x="0" y="0" flags="0x204"/>
      <component glyphName="grave" x="274" y="364" flags="0x4"/>
    </TTGlyph>
    <TTGlyph name="Egrave.smcp" xMin="88" yMin="0" xMax="1021" yMax="1517">
      <component glyphName="E.smcp" x="0" y="0" flags="0x204"/>
      <component glyphName="grave" x="193" y="41" flags="0x4"/>
    </TTGlyph>
    <TTGlyph name="Emacron" xMin="71" yMin="0" xMax="1120" yMax="1786">
      <component glyphName="E" x="0" y="0" flags="0x204"/>
      <component glyphName="macron" x="164" y="330" flags="0x4"/>
    </TTGlyph>
    <TTGlyph name="Emacron.smcp" xMin="88" yMin="0" xMax="1021" yMax="1463">
      <component glyphName="E.smcp" x="0" y="0" flags="0x204"/>
      <component glyphName="macron" x="83" y="7" flags="0x4"/>
    </TTGlyph>
    <TTGlyph name="Eng" xMin="70" yMin="-437" xMax="1446" yMax="1456">
      <contour>
        <pt x="70" y="54" on="1"/>
        <pt x="233" y="54" on="1"/>
        <pt x="233" y="1402" on="1"/>
        <pt x="70" y="1402" on="1"/>
        <pt x="70" y="1456" on="1"/>
        <pt x="287" y="1456" on="1"/>
        <pt x="1223" y="101" on="1"/>
        <pt x="1229" y="103" on="1"/>
        <pt x="1229" y="1402" on="1"/>
        <pt x="1066" y="1402" on="1"/>
        <pt x="1066" y="1456" on="1"/>
        <pt x="1446" y="1456" on="1"/>
        <pt x="1446" y="1402" on="1"/>
        <pt x="1283" y="1402" on="1"/>
        <pt x="1283" y="-89" on="1"/>
        <pt x="1283" y="-256" on="0"/>
        <pt x="1132" y="-437" on="0"/>
        <pt x="998" y="-437" on="1"/>
        <pt x="968" y="-437" on="0"/>
        <pt x="916" y="-427" on="0"/>
        <pt x="886" y="-417" on="1"/>
        <pt x="899" y="-365" on="1"/>
        <pt x="917" y="-372" on="0"/>
        <pt x="971" y="-383" on="0"/>
        <pt x="998" y="-383" on="1"/>
        <pt x="1108" y="-383" on="0"/>
        <pt x="1229" y="-229" on="0"/>
        <pt x="1229" y="-89" on="1"/>
        <pt x="1229" y="0" on="1"/>
        <pt x="293" y="1356" on="1"/>
        <pt x="287" y="1354" on="1"/>
        <pt x="287" y="54" on="1"/>
        <pt x="450" y="54" on="1"/>
        <pt x="450" y="0" on="1"/>
        <pt x="70" y="0" on="1"/>
      </contour>
    </TTGlyph>
    <TTGlyph name="Eogonek" xMin="71" yMin="-357" xMax="1120" yMax="1456">
      <component glyphName="E" x="0" y="0" flags="0x204"/>
      <component glyphName="ogonek" x="410" y="0" flags="0x4"/>
    </TTGlyph>
    <TTGlyph name="Eogonek.smcp" xMin="88" yMin="-349" xMax="1021" yMax="1165">
      <component glyphName="E.smcp" x="0" y="0" flags="0x204"/>
      <component glyphName="ogonek" x="328" y="8" flags="0x4"/>
    </TTGlyph>
    <TTGlyph name="Epsilon" xMin="71" yMin="0" xMax="1120" yMax="1456">
      <component glyphName="E" x="0" y="0" flags="0x204"/>
    </TTGlyph>
    <TTGlyph name="Epsilontonos" xMin="-72" yMin="0" xMax="1220" yMax="1579">
      <component glyphName="E" x="100" y="0" flags="0x4"/>
      <component glyphName="tonos" x="-208" y="1" flags="0x4"/>
    </TTGlyph>
    <TTGlyph name="Eta" xMin="71" yMin="0" xMax="1435" yMax="1456">
      <component glyphName="H" x="0" y="0" flags="0x204"/>
    </TTGlyph>
    <TTGlyph name="Etatonos" xMin="-99" yMin="0" xMax="1535" yMax="1579">
      <component glyphName="H" x="100" y="0" flags="0x4"/>
      <component glyphName="tonos" x="-235" y="1" flags="0x4"/>
    </TTGlyph>
    <TTGlyph name="Eth" xMin="101" yMin="0" xMax="1268" yMax="1456">
      <contour>
        <pt x="667" y="1456" on="1"/>
        <pt x="918" y="1456" on="0"/>
        <pt x="1268" y="1096" on="0"/>
        <pt x="1268" y="817" on="1"/>
        <pt x="1268" y="639" on="1"/>
        <pt x="1268" y="359" on="0"/>
        <pt x="918" y="0" on="0"/>
        <pt x="667" y="0" on="1"/>
        <pt x="101" y="0" on="1"/>
        <pt x="101" y="54" on="1"/>
        <pt x="264" y="54" on="1"/>
        <pt x="264" y="713" on="1"/>
        <pt x="136" y="713" on="1"/>
        <pt x="136" y="767" on="1"/>
        <pt x="264" y="767" on="1"/>
        <pt x="264" y="1402" on="1"/>
        <pt x="101" y="1402" on="1"/>
        <pt x="101" y="1456" on="1"/>
      </contour>
      <contour>
        <pt x="723" y="713" on="1"/>
        <pt x="318" y="713" on="1"/>
        <pt x="318" y="54" on="1"/>
        <pt x="667" y="54" on="1"/>
        <pt x="894" y="54" on="0"/>
        <pt x="1214" y="386" on="0"/>
        <pt x="1214" y="639" on="1"/>
        <pt x="1214" y="820" on="1"/>
        <pt x="1214" y="1070" on="0"/>
        <pt x="894" y="1402" on="0"/>
        <pt x="667" y="1402" on="1"/>
        <pt x="318" y="1402" on="1"/>
        <pt x="318" y="767" on="1"/>
        <pt x="723" y="767" on="1"/>
      </contour>
    </TTGlyph>
    <TTGlyph name="Eth.smcp" xMin="20" yMin="0" xMax="1088" yMax="1165">
      <component glyphName="D.smcp" x="0" y="0" flags="0x204"/>
      <component glyphName="crossbar" x="-134" y="-155" flags="0x4"/>
    </TTGlyph>
    <TTGlyph name="Euro" xMin="71" yMin="-21" xMax="953" yMax="1477">
      <contour>
        <pt x="905" y="553" on="1"/>
        <pt x="312" y="553" on="1"/>
        <pt x="312" y="514" on="1"/>
        <pt x="312" y="295" on="0"/>
        <pt x="541" y="33" on="0"/>
        <pt x="733" y="33" on="1"/>
        <pt x="790" y="33" on="0"/>
        <pt x="902" y="50" on="0"/>
        <pt x="953" y="67" on="1"/>
        <pt x="953" y="10" on="1"/>
        <pt x="901" y="-5" on="0"/>
        <pt x="789" y="-21" on="0"/>
        <pt x="733" y="-21" on="1"/>
        <pt x="521" y="-21" on="0"/>
        <pt x="258" y="269" on="0"/>
        <pt x="258" y="514" on="1"/>
        <pt x="258" y="553" on="1"/>
        <pt x="71" y="553" on="1"/>
        <pt x="71" y="608" on="1"/>
        <pt x="258" y="608" on="1"/>
        <pt x="258" y="830" on="1"/>
        <pt x="71" y="830" on="1"/>
        <pt x="71" y="886" on="1"/>
        <pt x="258" y="886" on="1"/>
        <pt x="258" y="942" on="1"/>
        <pt x="258" y="1186" on="0"/>
        <pt x="519" y="1477" on="0"/>
        <pt x="731" y="1477" on="1"/>
        <pt x="785" y="1477" on="0"/>
        <pt x="891" y="1461" on="0"/>
        <pt x="953" y="1446" on="1"/>
        <pt x="953" y="1388" on="1"/>
        <pt x="900" y="1404" on="0"/>
        <pt x="787" y="1423" on="0"/>
        <pt x="731" y="1423" on="1"/>
        <pt x="538" y="1423" on="0"/>
        <pt x="312" y="1166" on="0"/>
        <pt x="312" y="944" on="1"/>
        <pt x="312" y="886" on="1"/>
        <pt x="905" y="886" on="1"/>
        <pt x="905" y="830" on="1"/>
        <pt x="312" y="830" on="1"/>
        <pt x="312" y="608" on="1"/>
        <pt x="905" y="608" on="1"/>
      </contour>
    </TTGlyph>
    <TTGlyph name="F" xMin="71" yMin="0" xMax="1136" yMax="1456">
      <contour>
        <pt x="71" y="54" on="1"/>
        <pt x="234" y="54" on="1"/>
        <pt x="234" y="1402" on="1"/>
        <pt x="71" y="1402" on="1"/>
        <pt x="71" y="1456" on="1"/>
        <pt x="1136" y="1456" on="1"/>
        <pt x="1136" y="1163" on="1"/>
        <pt x="1082" y="1163" on="1"/>
        <pt x="1082" y="1402" on="1"/>
        <pt x="288" y="1402" on="1"/>
        <pt x="288" y="772" on="1"/>
        <pt x="934" y="772" on="1"/>
        <pt x="934" y="716" on="1"/>
        <pt x="288" y="716" on="1"/>
        <pt x="288" y="54" on="1"/>
        <pt x="451" y="54" on="1"/>
        <pt x="451" y="0" on="1"/>
        <pt x="71" y="0" on="1"/>
      </contour>
    </TTGlyph>
    <TTGlyph name="F.smcp" xMin="88" yMin="0" xMax="1018" yMax="1165">
      <contour>
        <pt x="88" y="54" on="1"/>
        <pt x="251" y="54" on="1"/>
        <pt x="251" y="1111" on="1"/>
        <pt x="88" y="1111" on="1"/>
        <pt x="88" y="1165" on="1"/>
        <pt x="1018" y="1165" on="1"/>
        <pt x="1018" y="872" on="1"/>
        <pt x="964" y="872" on="1"/>
        <pt x="964" y="1111" on="1"/>
        <pt x="305" y="1111" on="1"/>
        <pt x="305" y="621" on="1"/>
        <pt x="931" y="621" on="1"/>
        <pt x="931" y="566" on="1"/>
        <pt x="305" y="566" on="1"/>
        <pt x="305" y="54" on="1"/>
        <pt x="468" y="54" on="1"/>
        <pt x="468" y="0" on="1"/>
        <pt x="88" y="0" on="1"/>
      </contour>
    </TTGlyph>
    <TTGlyph name="G" xMin="130" yMin="-21" xMax="1253" yMax="1477">
      <contour>
        <pt x="1248" y="156" on="1"/>
        <pt x="1202" y="92" on="0"/>
        <pt x="941" y="-21" on="0"/>
        <pt x="751" y="-21" on="1"/>
        <pt x="474" y="-21" on="0"/>
        <pt x="130" y="390" on="0"/>
        <pt x="130" y="720" on="1"/>
        <pt x="130" y="758" on="1"/>
        <pt x="130" y="1077" on="0"/>
        <pt x="476" y="1477" on="0"/>
        <pt x="754" y="1477" on="1"/>
        <pt x="920" y="1477" on="0"/>
        <pt x="1177" y="1362" on="0"/>
        <pt x="1253" y="1256" on="1"/>
        <pt x="1253" y="1012" on="1"/>
        <pt x="1199" y="1012" on="1"/>
        <pt x="1200" y="1236" on="1"/>
        <pt x="1131" y="1325" on="0"/>
        <pt x="905" y="1423" on="0"/>
        <pt x="754" y="1423" on="1"/>
        <pt x="497" y="1423" on="0"/>
        <pt x="184" y="1053" on="0"/>
        <pt x="184" y="760" on="1"/>
        <pt x="184" y="720" on="1"/>
        <pt x="184" y="415" on="0"/>
        <pt x="495" y="33" on="0"/>
        <pt x="751" y="33" on="1"/>
        <pt x="912" y="33" on="0"/>
        <pt x="1153" y="127" on="0"/>
        <pt x="1194" y="181" on="1"/>
        <pt x="1194" y="565" on="1"/>
        <pt x="879" y="565" on="1"/>
        <pt x="879" y="620" on="1"/>
        <pt x="1248" y="620" on="1"/>
      </contour>
    </TTGlyph>
    <TTGlyph name="G.smcp" xMin="118" yMin="-17" xMax="1024" yMax="1181">
      <contour>
        <pt x="1024" y="156" on="1"/>
        <pt x="983" y="94" on="0"/>
        <pt x="762" y="-17" on="0"/>
        <pt x="599" y="-17" on="1"/>
        <pt x="384" y="-17" on="0"/>
        <pt x="118" y="248" on="0"/>
        <pt x="118" y="461" on="1"/>
        <pt x="118" y="704" on="1"/>
        <pt x="118" y="916" on="0"/>
        <pt x="376" y="1181" on="0"/>
        <pt x="585" y="1181" on="1"/>
        <pt x="793" y="1181" on="0"/>
        <pt x="1006" y="1014" on="0"/>
        <pt x="1018" y="853" on="1"/>
        <pt x="1016" y="847" on="1"/>
        <pt x="969" y="840" on="1"/>
        <pt x="952" y="987" on="0"/>
        <pt x="779" y="1127" on="0"/>
        <pt x="585" y="1127" on="1"/>
        <pt x="398" y="1127" on="0"/>
        <pt x="172" y="890" on="0"/>
        <pt x="172" y="705" on="1"/>
        <pt x="172" y="461" on="1"/>
        <pt x="172" y="273" on="0"/>
        <pt x="405" y="38" on="0"/>
        <pt x="599" y="38" on="1"/>
        <pt x="746" y="38" on="0"/>
        <pt x="935" y="122" on="0"/>
        <pt x="969" y="177" on="1"/>
        <pt x="969" y="481" on="1"/>
        <pt x="639" y="481" on="1"/>
        <pt x="639" y="536" on="1"/>
        <pt x="1024" y="536" on="1"/>
      </contour>
    </TTGlyph>
    <TTGlyph name="G.ss03" xMin="114" yMin="-21" xMax="1177" yMax="1477">
      <contour>
        <pt x="1172" y="156" on="1"/>
        <pt x="1126" y="92" on="0"/>
        <pt x="865" y="-21" on="0"/>
        <pt x="675" y="-21" on="1"/>
        <pt x="425" y="-21" on="0"/>
        <pt x="114" y="335" on="0"/>
        <pt x="114" y="620" on="1"/>
        <pt x="114" y="858" on="1"/>
        <pt x="114" y="1132" on="0"/>
        <pt x="428" y="1477" on="0"/>
        <pt x="678" y="1477" on="1"/>
        <pt x="847" y="1477" on="0"/>
        <pt x="1102" y="1360" on="0"/>
        <pt x="1177" y="1246" on="1"/>
        <pt x="1177" y="972" on="1"/>
        <pt x="1123" y="972" on="1"/>
        <pt x="1124" y="1226" on="1"/>
        <pt x="1057" y="1323" on="0"/>
        <pt x="831" y="1423" on="0"/>
        <pt x="678" y="1423" on="1"/>
        <pt x="448" y="1423" on="0"/>
        <pt x="168" y="1108" on="0"/>
        <pt x="168" y="860" on="1"/>
        <pt x="168" y="620" on="1"/>
        <pt x="168" y="360" on="0"/>
        <pt x="446" y="33" on="0"/>
        <pt x="675" y="33" on="1"/>
        <pt x="836" y="33" on="0"/>
        <pt x="1077" y="127" on="0"/>
        <pt x="1118" y="181" on="1"/>
        <pt x="1118" y="565" on="1"/>
        <pt x="803" y="565" on="1"/>
        <pt x="803" y="620" on="1"/>
        <pt x="1172" y="620" on="1"/>
      </contour>
    </TTGlyph>
    <TTGlyph name="G.ss04" xMin="114" yMin="-21" xMax="1172" yMax="1477">
      <contour>
        <pt x="1172" y="156" on="1"/>
        <pt x="1126" y="92" on="0"/>
        <pt x="865" y="-21" on="0"/>
        <pt x="675" y="-21" on="1"/>
        <pt x="425" y="-21" on="0"/>
        <pt x="114" y="335" on="0"/>
        <pt x="114" y="620" on="1"/>
        <pt x="114" y="858" on="1"/>
        <pt x="114" y="1132" on="0"/>
        <pt x="416" y="1477" on="0"/>
        <pt x="658" y="1477" on="1"/>
        <pt x="884" y="1477" on="0"/>
        <pt x="1147" y="1248" on="0"/>
        <pt x="1163" y="1069" on="1"/>
        <pt x="1161" y="1063" on="1"/>
        <pt x="1116" y="1063" on="1"/>
        <pt x="1090" y="1221" on="0"/>
        <pt x="869" y="1423" on="0"/>
        <pt x="658" y="1423" on="1"/>
        <pt x="437" y="1423" on="0"/>
        <pt x="168" y="1108" on="0"/>
        <pt x="168" y="860" on="1"/>
        <pt x="168" y="620" on="1"/>
        <pt x="168" y="360" on="0"/>
        <pt x="446" y="33" on="0"/>
        <pt x="675" y="33" on="1"/>
        <pt x="836" y="33" on="0"/>
        <pt x="1077" y="127" on="0"/>
        <pt x="1118" y="181" on="1"/>
        <pt x="1118" y="575" on="1"/>
        <pt x="823" y="575" on="1"/>
        <pt x="823" y="630" on="1"/>
        <pt x="1172" y="630" on="1"/>
      </contour>
    </TTGlyph>
    <TTGlyph name="Gamma" xMin="77" yMin="0" xMax="1102" yMax="1456">
      <contour>
        <pt x="77" y="54" on="1"/>
        <pt x="240" y="54" on="1"/>
        <pt x="240" y="1402" on="1"/>
        <pt x="77" y="1402" on="1"/>
        <pt x="77" y="1456" on="1"/>
        <pt x="1102" y="1456" on="1"/>
        <pt x="1102" y="1163" on="1"/>
        <pt x="1048" y="1163" on="1"/>
        <pt x="1048" y="1402" on="1"/>
        <pt x="294" y="1402" on="1"/>
        <pt x="294" y="54" on="1"/>
        <pt x="457" y="54" on="1"/>
        <pt x="457" y="0" on="1"/>
        <pt x="77" y="0" on="1"/>
      </contour>
    </TTGlyph>
    <TTGlyph name="Gbreve" xMin="130" yMin="-21" xMax="1253" yMax="1825">
      <component glyphName="G" x="0" y="0" flags="0x204"/>
      <component glyphName="breve" x="282" y="369" flags="0x4"/>
    </TTGlyph>
    <TTGlyph name="Gbreve.smcp" xMin="118" yMin="-17" xMax="1024" yMax="1497">
      <component glyphName="G.smcp" x="0" y="0" flags="0x204"/>
      <component glyphName="breve" x="193" y="41" flags="0x4"/>
    </TTGlyph>
    <TTGlyph name="Gcircumflex" xMin="130" yMin="-21" xMax="1253" yMax="1845">
      <component glyphName="G" x="0" y="0" flags="0x204"/>
      <component glyphName="circumflex" x="328" y="370" flags="0x4"/>
    </TTGlyph>
    <TTGlyph name="Gcircumflex.smcp" xMin="118" yMin="-17" xMax="1024" yMax="1517">
      <component glyphName="G.smcp" x="0" y="0" flags="0x204"/>
      <component glyphName="circumflex" x="239" y="42" flags="0x4"/>
    </TTGlyph>
    <TTGlyph name="Gcommaaccent" xMin="130" yMin="-497" xMax="1253" yMax="1477">
      <component glyphName="G" x="0" y="0" flags="0x204"/>
      <component glyphName="commaaccent" x="515" y="-274" flags="0x4"/>
    </TTGlyph>
    <TTGlyph name="Gcommaaccent.smcp" xMin="118" yMin="-497" xMax="1024" yMax="1181">
      <component glyphName="G.smcp" x="0" y="0" flags="0x204"/>
      <component glyphName="commaaccent" x="405" y="-274" flags="0x4"/>
    </TTGlyph>
    <TTGlyph name="H" xMin="71" yMin="0" xMax="1435" yMax="1456">
      <contour>
        <pt x="71" y="1402" on="1"/>
        <pt x="71" y="1456" on="1"/>
        <pt x="451" y="1456" on="1"/>
        <pt x="451" y="1402" on="1"/>
        <pt x="288" y="1402" on="1"/>
        <pt x="288" y="749" on="1"/>
        <pt x="1218" y="749" on="1"/>
        <pt x="1218" y="1402" on="1"/>
        <pt x="1055" y="1402" on="1"/>
        <pt x="1055" y="1456" on="1"/>
        <pt x="1218" y="1456" on="1"/>
        <pt x="1272" y="1456" on="1"/>
        <pt x="1435" y="1456" on="1"/>
        <pt x="1435" y="1402" on="1"/>
        <pt x="1272" y="1402" on="1"/>
        <pt x="1272" y="54" on="1"/>
        <pt x="1435" y="54" on="1"/>
        <pt x="1435" y="0" on="1"/>
        <pt x="1055" y="0" on="1"/>
        <pt x="1055" y="54" on="1"/>
        <pt x="1218" y="54" on="1"/>
        <pt x="1218" y="695" on="1"/>
        <pt x="288" y="695" on="1"/>
        <pt x="288" y="54" on="1"/>
        <pt x="451" y="54" on="1"/>
        <pt x="451" y="0" on="1"/>
        <pt x="71" y="0" on="1"/>
        <pt x="71" y="54" on="1"/>
        <pt x="234" y="54" on="1"/>
        <pt x="234" y="1402" on="1"/>
      </contour>
    </TTGlyph>
    <TTGlyph name="H.smcp" xMin="88" yMin="0" xMax="1285" yMax="1165">
      <contour>
        <pt x="88" y="1111" on="1"/>
        <pt x="88" y="1165" on="1"/>
        <pt x="468" y="1165" on="1"/>
        <pt x="468" y="1111" on="1"/>
        <pt x="305" y="1111" on="1"/>
        <pt x="305" y="603" on="1"/>
        <pt x="1068" y="603" on="1"/>
        <pt x="1068" y="1111" on="1"/>
        <pt x="905" y="1111" on="1"/>
        <pt x="905" y="1165" on="1"/>
        <pt x="1068" y="1165" on="1"/>
        <pt x="1122" y="1165" on="1"/>
        <pt x="1285" y="1165" on="1"/>
        <pt x="1285" y="1111" on="1"/>
        <pt x="1122" y="1111" on="1"/>
        <pt x="1122" y="54" on="1"/>
        <pt x="1285" y="54" on="1"/>
        <pt x="1285" y="0" on="1"/>
        <pt x="905" y="0" on="1"/>
        <pt x="905" y="54" on="1"/>
        <pt x="1068" y="54" on="1"/>
        <pt x="1068" y="549" on="1"/>
        <pt x="305" y="549" on="1"/>
        <pt x="305" y="54" on="1"/>
        <pt x="468" y="54" on="1"/>
        <pt x="468" y="0" on="1"/>
        <pt x="88" y="0" on="1"/>
        <pt x="88" y="54" on="1"/>
        <pt x="251" y="54" on="1"/>
        <pt x="251" y="1111" on="1"/>
      </contour>
    </TTGlyph>
    <TTGlyph name="Hbar" xMin="45" yMin="0" xMax="1409" yMax="1456">
      <contour>
        <pt x="1409" y="1456" on="1"/>
        <pt x="1409" y="1402" on="1"/>
        <pt x="1246" y="1402" on="1"/>
        <pt x="1246" y="1081" on="1"/>
        <pt x="1381" y="1081" on="1"/>
        <pt x="1381" y="1028" on="1"/>
        <pt x="1246" y="1028" on="1"/>
        <pt x="1246" y="54" on="1"/>
        <pt x="1409" y="54" on="1"/>
        <pt x="1409" y="0" on="1"/>
        <pt x="1029" y="0" on="1"/>
        <pt x="1029" y="54" on="1"/>
        <pt x="1192" y="54" on="1"/>
        <pt x="1192" y="695" on="1"/>
        <pt x="262" y="695" on="1"/>
        <pt x="262" y="54" on="1"/>
        <pt x="425" y="54" on="1"/>
        <pt x="425" y="0" on="1"/>
        <pt x="45" y="0" on="1"/>
        <pt x="45" y="54" on="1"/>
        <pt x="208" y="54" on="1"/>
        <pt x="208" y="1028" on="1"/>
        <pt x="49" y="1028" on="1"/>
        <pt x="49" y="1081" on="1"/>
        <pt x="208" y="1081" on="1"/>
        <pt x="208" y="1402" on="1"/>
        <pt x="45" y="1402" on="1"/>
        <pt x="45" y="1456" on="1"/>
        <pt x="425" y="1456" on="1"/>
        <pt x="425" y="1402" on="1"/>
        <pt x="262" y="1402" on="1"/>
        <pt x="262" y="1081" on="1"/>
        <pt x="1192" y="1081" on="1"/>
        <pt x="1192" y="1402" on="1"/>
        <pt x="1029" y="1402" on="1"/>
        <pt x="1029" y="1456" on="1"/>
        <pt x="1192" y="1456" on="1"/>
        <pt x="1246" y="1456" on="1"/>
      </contour>
      <contour>
        <pt x="262" y="749" on="1"/>
        <pt x="1192" y="749" on="1"/>
        <pt x="1192" y="1028" on="1"/>
        <pt x="262" y="1028" on="1"/>
      </contour>
    </TTGlyph>
    <TTGlyph name="Hcircumflex" xMin="71" yMin="0" xMax="1435" yMax="1824">
      <component glyphName="H" x="0" y="0" flags="0x204"/>
      <component glyphName="circumflex" x="364" y="349" flags="0x4"/>
    </TTGlyph>
    <TTGlyph name="Hcircumflex.smcp" xMin="88" yMin="0" xMax="1285" yMax="1501">
      <component glyphName="H.smcp" x="0" y="0" flags="0x204"/>
      <component glyphName="circumflex" x="334" y="26" flags="0x4"/>
    </TTGlyph>
    <TTGlyph name="I" xMin="109" yMin="0" xMax="489" yMax="1456">
      <contour>
        <pt x="109" y="1402" on="1"/>
        <pt x="109" y="1456" on="1"/>
        <pt x="489" y="1456" on="1"/>
        <pt x="489" y="1402" on="1"/>
        <pt x="326" y="1402" on="1"/>
        <pt x="326" y="54" on="1"/>
        <pt x="489" y="54" on="1"/>
        <pt x="489" y="0" on="1"/>
        <pt x="109" y="0" on="1"/>
        <pt x="109" y="54" on="1"/>
        <pt x="272" y="54" on="1"/>
        <pt x="272" y="1402" on="1"/>
      </contour>
    </TTGlyph>
    <TTGlyph name="I.smcp" xMin="88" yMin="0" xMax="468" yMax="1165">
      <contour>
        <pt x="88" y="1111" on="1"/>
        <pt x="88" y="1165" on="1"/>
        <pt x="468" y="1165" on="1"/>
        <pt x="468" y="1111" on="1"/>
        <pt x="305" y="1111" on="1"/>
        <pt x="305" y="54" on="1"/>
        <pt x="468" y="54" on="1"/>
        <pt x="468" y="0" on="1"/>
        <pt x="88" y="0" on="1"/>
        <pt x="88" y="54" on="1"/>
        <pt x="251" y="54" on="1"/>
        <pt x="251" y="1111" on="1"/>
      </contour>
    </TTGlyph>
    <TTGlyph name="IJ" xMin="109" yMin="-21" xMax="1641" yMax="1456">
      <component glyphName="I" x="0" y="0" flags="0x4"/>
      <component glyphName="J" x="598" y="0" flags="0x4"/>
    </TTGlyph>
    <TTGlyph name="Iacute" xMin="109" yMin="0" xMax="542" yMax="1813">
      <component glyphName="I" x="0" y="0" flags="0x204"/>
      <component glyphName="acute" x="142" y="335" flags="0x4"/>
    </TTGlyph>
    <TTGlyph name="Iacute.smcp" xMin="88" yMin="0" xMax="510" yMax="1490">
      <component glyphName="I.smcp" x="0" y="0" flags="0x204"/>
      <component glyphName="acute" x="110" y="12" flags="0x4"/>
    </TTGlyph>
    <TTGlyph name="Ibreve" xMin="30" yMin="0" xMax="584" yMax="1804">
      <component glyphName="I" x="0" y="0" flags="0x204"/>
      <component glyphName="breve" x="-90" y="348" flags="0x4"/>
    </TTGlyph>
    <TTGlyph name="Ibreve.smcp" xMin="-2" yMin="0" xMax="552" yMax="1481">
      <component glyphName="I.smcp" x="0" y="0" flags="0x204"/>
      <component glyphName="breve" x="-122" y="25" flags="0x4"/>
    </TTGlyph>
    <TTGlyph name="Icircumflex" xMin="60" yMin="0" xMax="564" yMax="1824">
      <component glyphName="I" x="0" y="0" flags="0x204"/>
      <component glyphName="circumflex" x="-44" y="349" flags="0x4"/>
    </TTGlyph>
    <TTGlyph name="Icircumflex.smcp" xMin="28" yMin="0" xMax="532" yMax="1501">
      <component glyphName="I.smcp" x="0" y="0" flags="0x204"/>
      <component glyphName="circumflex" x="-76" y="26" flags="0x4"/>
    </TTGlyph>
    <TTGlyph name="Idieresis" xMin="10" yMin="0" xMax="616" yMax="1791">
      <component glyphName="I" x="0" y="0" flags="0x204"/>
      <component glyphName="dieresis" x="-142" y="335" flags="0x4"/>
    </TTGlyph>
    <TTGlyph name="Idieresis.smcp" xMin="-22" yMin="0" xMax="584" yMax="1468">
      <component glyphName="I.smcp" x="0" y="0" flags="0x204"/>
      <component glyphName="dieresis" x="-174" y="12" flags="0x4"/>
    </TTGlyph>
    <TTGlyph name="Idotaccent" xMin="109" yMin="0" xMax="489" yMax="1776">
      <component glyphName="I" x="0" y="0" flags="0x204"/>
      <component glyphName="dotaccent" x="109" y="320" flags="0x4"/>
    </TTGlyph>
    <TTGlyph name="Idotaccent.smcp" xMin="88" yMin="0" xMax="468" yMax="1454">
      <component glyphName="I.smcp" x="0" y="0" flags="0x204"/>
      <component glyphName="dotaccent" x="77" y="-2" flags="0x4"/>
    </TTGlyph>
    <TTGlyph name="Igrave" xMin="47" yMin="0" xMax="489" yMax="1840">
      <component glyphName="I" x="0" y="0" flags="0x204"/>
      <component glyphName="grave" x="-37" y="364" flags="0x4"/>
    </TTGlyph>
    <TTGlyph name="Igrave.smcp" xMin="15" yMin="0" xMax="468" yMax="1517">
      <component glyphName="I.smcp" x="0" y="0" flags="0x204"/>
      <component glyphName="grave" x="-69" y="41" flags="0x4"/>
    </TTGlyph>
    <TTGlyph name="Imacron" xMin="7" yMin="0" xMax="634" yMax="1786">
      <component glyphName="I" x="0" y="0" flags="0x204"/>
      <component glyphName="macron" x="-147" y="330" flags="0x4"/>
    </TTGlyph>
    <TTGlyph name="Imacron.smcp" xMin="-25" yMin="0" xMax="602" yMax="1463">
      <component glyphName="I.smcp" x="0" y="0" flags="0x204"/>
      <component glyphName="macron" x="-179" y="7" flags="0x4"/>
    </TTGlyph>
    <TTGlyph name="Iogonek" xMin="109" yMin="-357" xMax="551" yMax="1456">
      <component glyphName="I" x="0" y="0" flags="0x204"/>
      <component glyphName="ogonek" x="233" y="0" flags="0x4"/>
    </TTGlyph>
    <TTGlyph name="Iogonek.smcp" xMin="88" yMin="-357" xMax="530" yMax="1165">
      <component glyphName="I.smcp" x="0" y="0" flags="0x204"/>
      <component glyphName="ogonek" x="212" y="0" flags="0x4"/>
    </TTGlyph>
    <TTGlyph name="Iota" xMin="109" yMin="0" xMax="489" yMax="1456">
      <component glyphName="I" x="0" y="0" flags="0x204"/>
    </TTGlyph>
    <TTGlyph name="Iotadieresis" xMin="10" yMin="0" xMax="616" yMax="1791">
      <component glyphName="I" x="0" y="0" flags="0x204"/>
      <component glyphName="dieresis" x="-142" y="335" flags="0x4"/>
    </TTGlyph>
    <TTGlyph name="Iotatonos" xMin="-71" yMin="0" xMax="589" yMax="1578">
      <component glyphName="I" x="100" y="0" flags="0x4"/>
      <component glyphName="tonos" x="-207" y="0" flags="0x4"/>
    </TTGlyph>
    <TTGlyph name="Itilde" xMin="18" yMin="0" xMax="657" yMax="1811">
      <component glyphName="I" x="0" y="0" flags="0x204"/>
      <component glyphName="tilde" x="-109" y="329" flags="0x4"/>
    </TTGlyph>
    <TTGlyph name="Itilde.smcp" xMin="-14" yMin="0" xMax="625" yMax="1488">
      <component glyphName="I.smcp" x="0" y="0" flags="0x204"/>
      <component glyphName="tilde" x="-141" y="6" flags="0x4"/>
    </TTGlyph>
    <TTGlyph name="J" xMin="41" yMin="-21" xMax="1043" yMax="1456">
      <contour>
        <pt x="1043" y="1402" on="1"/>
        <pt x="880" y="1402" on="1"/>
        <pt x="880" y="422" on="1"/>
        <pt x="880" y="219" on="0"/>
        <pt x="651" y="-21" on="0"/>
        <pt x="471" y="-21" on="1"/>
        <pt x="271" y="-21" on="0"/>
        <pt x="41" y="191" on="0"/>
        <pt x="46" y="395" on="1"/>
        <pt x="48" y="401" on="1"/>
        <pt x="94" y="401" on="1"/>
        <pt x="94" y="223" on="0"/>
        <pt x="288" y="33" on="0"/>
        <pt x="471" y="33" on="1"/>
        <pt x="624" y="33" on="0"/>
        <pt x="826" y="243" on="0"/>
        <pt x="826" y="422" on="1"/>
        <pt x="826" y="1402" on="1"/>
        <pt x="663" y="1402" on="1"/>
        <pt x="663" y="1456" on="1"/>
        <pt x="1043" y="1456" on="1"/>
      </contour>
    </TTGlyph>
    <TTGlyph name="J.smcp" xMin="58" yMin="-17" xMax="946" yMax="1165">
      <contour>
        <pt x="946" y="1111" on="1"/>
        <pt x="783" y="1111" on="1"/>
        <pt x="783" y="337" on="1"/>
        <pt x="783" y="176" on="0"/>
        <pt x="583" y="-17" on="0"/>
        <pt x="429" y="-17" on="1"/>
        <pt x="257" y="-17" on="0"/>
        <pt x="58" y="153" on="0"/>
        <pt x="63" y="314" on="1"/>
        <pt x="65" y="320" on="1"/>
        <pt x="111" y="320" on="1"/>
        <pt x="111" y="175" on="0"/>
        <pt x="272" y="38" on="0"/>
        <pt x="429" y="38" on="1"/>
        <pt x="558" y="38" on="0"/>
        <pt x="727" y="199" on="0"/>
        <pt x="727" y="337" on="1"/>
        <pt x="727" y="1111" on="1"/>
        <pt x="564" y="1111" on="1"/>
        <pt x="564" y="1165" on="1"/>
        <pt x="946" y="1165" on="1"/>
      </contour>
    </TTGlyph>
    <TTGlyph name="Jcircumflex" xMin="41" yMin="-21" xMax="1139" yMax="1794">
      <component glyphName="J" x="0" y="0" flags="0x204"/>
      <component glyphName="circumflex" x="531" y="319" flags="0x4"/>
    </TTGlyph>
    <TTGlyph name="Jcircumflex.smcp" xMin="58" yMin="-17" xMax="1016" yMax="1478">
      <component glyphName="J.smcp" x="0" y="0" flags="0x204"/>
      <component glyphName="circumflex" x="408" y="3" flags="0x4"/>
    </TTGlyph>
    <TTGlyph name="K" xMin="71" yMin="0" xMax="1328" yMax="1456">
      <contour>
        <pt x="71" y="54" on="1"/>
        <pt x="234" y="54" on="1"/>
        <pt x="234" y="1402" on="1"/>
        <pt x="71" y="1402" on="1"/>
        <pt x="71" y="1456" on="1"/>
        <pt x="451" y="1456" on="1"/>
        <pt x="451" y="1402" on="1"/>
        <pt x="288" y="1402" on="1"/>
        <pt x="288" y="764" on="1"/>
        <pt x="526" y="764" on="1"/>
        <pt x="1091" y="1397" on="1"/>
        <pt x="1089" y="1402" on="1"/>
        <pt x="921" y="1402" on="1"/>
        <pt x="921" y="1456" on="1"/>
        <pt x="1282" y="1456" on="1"/>
        <pt x="1282" y="1402" on="1"/>
        <pt x="1167" y="1402" on="1"/>
        <pt x="571" y="730" on="1"/>
        <pt x="1210" y="54" on="1"/>
        <pt x="1328" y="54" on="1"/>
        <pt x="1328" y="0" on="1"/>
        <pt x="967" y="0" on="1"/>
        <pt x="967" y="54" on="1"/>
        <pt x="1130" y="54" on="1"/>
        <pt x="1133" y="60" on="1"/>
        <pt x="511" y="711" on="1"/>
        <pt x="288" y="711" on="1"/>
        <pt x="288" y="54" on="1"/>
        <pt x="451" y="54" on="1"/>
        <pt x="451" y="0" on="1"/>
        <pt x="71" y="0" on="1"/>
      </contour>
    </TTGlyph>
    <TTGlyph name="K.smcp" xMin="88" yMin="0" xMax="1190" yMax="1165">
      <contour>
        <pt x="88" y="1111" on="1"/>
        <pt x="88" y="1165" on="1"/>
        <pt x="468" y="1165" on="1"/>
        <pt x="468" y="1111" on="1"/>
        <pt x="305" y="1111" on="1"/>
        <pt x="305" y="625" on="1"/>
        <pt x="493" y="625" on="1"/>
        <pt x="929" y="1106" on="1"/>
        <pt x="927" y="1111" on="1"/>
        <pt x="810" y="1111" on="1"/>
        <pt x="810" y="1165" on="1"/>
        <pt x="1127" y="1165" on="1"/>
        <pt x="1127" y="1111" on="1"/>
        <pt x="1002" y="1111" on="1"/>
        <pt x="541" y="593" on="1"/>
        <pt x="1061" y="54" on="1"/>
        <pt x="1190" y="54" on="1"/>
        <pt x="1190" y="0" on="1"/>
        <pt x="869" y="0" on="1"/>
        <pt x="869" y="54" on="1"/>
        <pt x="981" y="54" on="1"/>
        <pt x="984" y="60" on="1"/>
        <pt x="482" y="571" on="1"/>
        <pt x="305" y="571" on="1"/>
        <pt x="305" y="54" on="1"/>
        <pt x="468" y="54" on="1"/>
        <pt x="468" y="0" on="1"/>
        <pt x="88" y="0" on="1"/>
        <pt x="88" y="54" on="1"/>
        <pt x="251" y="54" on="1"/>
        <pt x="251" y="1111" on="1"/>
      </contour>
    </TTGlyph>
    <TTGlyph name="Kappa" xMin="71" yMin="0" xMax="1328" yMax="1456">
      <component glyphName="K" x="0" y="0" flags="0x204"/>
    </TTGlyph>
    <TTGlyph name="Kcommaaccent" xMin="71" yMin="-501" xMax="1328" yMax="1456">
      <component glyphName="K" x="0" y="0" flags="0x204"/>
      <component glyphName="commaaccent" x="447" y="-278" flags="0x4"/>
    </TTGlyph>
    <TTGlyph name="Kcommaaccent.smcp" xMin="88" yMin="-491" xMax="1190" yMax="1165">
      <component glyphName="K.smcp" x="0" y="0" flags="0x204"/>
      <component glyphName="commaaccent" x="434" y="-268" flags="0x4"/>
    </TTGlyph>
    <TTGlyph name="L" xMin="71" yMin="0" xMax="1036" yMax="1456">
      <contour>
        <pt x="71" y="0" on="1"/>
        <pt x="71" y="54" on="1"/>
        <pt x="234" y="54" on="1"/>
        <pt x="234" y="1402" on="1"/>
        <pt x="71" y="1402" on="1"/>
        <pt x="71" y="1456" on="1"/>
        <pt x="234" y="1456" on="1"/>
        <pt x="289" y="1456" on="1"/>
        <pt x="452" y="1456" on="1"/>
        <pt x="452" y="1402" on="1"/>
        <pt x="289" y="1402" on="1"/>
        <pt x="289" y="54" on="1"/>
        <pt x="982" y="54" on="1"/>
        <pt x="982" y="293" on="1"/>
        <pt x="1036" y="293" on="1"/>
        <pt x="1036" y="0" on="1"/>
      </contour>
    </TTGlyph>
    <TTGlyph name="L.smcp" xMin="88" yMin="0" xMax="928" yMax="1165">
      <contour>
        <pt x="88" y="0" on="1"/>
        <pt x="88" y="54" on="1"/>
        <pt x="251" y="54" on="1"/>
        <pt x="251" y="1111" on="1"/>
        <pt x="88" y="1111" on="1"/>
        <pt x="88" y="1165" on="1"/>
        <pt x="251" y="1165" on="1"/>
        <pt x="305" y="1165" on="1"/>
        <pt x="468" y="1165" on="1"/>
        <pt x="468" y="1111" on="1"/>
        <pt x="305" y="1111" on="1"/>
        <pt x="305" y="54" on="1"/>
        <pt x="874" y="54" on="1"/>
        <pt x="874" y="293" on="1"/>
        <pt x="928" y="293" on="1"/>
        <pt x="928" y="0" on="1"/>
      </contour>
    </TTGlyph>
    <TTGlyph name="Lacute" xMin="71" yMin="0" xMax="1036" yMax="1750">
      <component glyphName="L" x="0" y="0" flags="0x204"/>
      <component glyphName="acute" x="92" y="272" flags="0x4"/>
    </TTGlyph>
    <TTGlyph name="Lacute.smcp" xMin="88" yMin="0" xMax="928" yMax="1470">
      <component glyphName="L.smcp" x="0" y="0" flags="0x204"/>
      <component glyphName="acute" x="115" y="-8" flags="0x4"/>
    </TTGlyph>
    <TTGlyph name="Lambda" xMin="52" yMin="0" xMax="1360" yMax="1456">
      <contour>
        <pt x="52" y="54" on="1"/>
        <pt x="159" y="54" on="1"/>
        <pt x="673" y="1456" on="1"/>
        <pt x="738" y="1456" on="1"/>
        <pt x="1253" y="54" on="1"/>
        <pt x="1360" y="54" on="1"/>
        <pt x="1360" y="0" on="1"/>
        <pt x="1051" y="0" on="1"/>
        <pt x="1051" y="54" on="1"/>
        <pt x="1194" y="54" on="1"/>
        <pt x="735" y="1304" on="1"/>
        <pt x="708" y="1388" on="1"/>
        <pt x="702" y="1388" on="1"/>
        <pt x="675" y="1304" on="1"/>
        <pt x="218" y="54" on="1"/>
        <pt x="361" y="54" on="1"/>
        <pt x="361" y="0" on="1"/>
        <pt x="52" y="0" on="1"/>
      </contour>
    </TTGlyph>
    <TTGlyph name="Lcaron" xMin="71" yMin="0" xMax="1036" yMax="1456">
      <component glyphName="L" x="0" y="0" flags="0x204"/>
      <component glyphName="commaaccent" x="437" y="1339" flags="0x4"/>
    </TTGlyph>
    <TTGlyph name="Lcaron.smcp" xMin="88" yMin="0" xMax="928" yMax="1165">
      <component glyphName="L.smcp" x="0" y="0" flags="0x204"/>
      <component glyphName="commaaccent" x="449" y="1048" flags="0x4"/>
    </TTGlyph>
    <TTGlyph name="Lcommaaccent" xMin="71" yMin="-487" xMax="1036" yMax="1456">
      <component glyphName="L" x="0" y="0" flags="0x204"/>
      <component glyphName="commaaccent" x="434" y="-264" flags="0x4"/>
    </TTGlyph>
    <TTGlyph name="Lcommaaccent.smcp" xMin="88" yMin="-489" xMax="928" yMax="1165">
      <component glyphName="L.smcp" x="0" y="0" flags="0x204"/>
      <component glyphName="commaaccent" x="294" y="-266" flags="0x4"/>
    </TTGlyph>
    <TTGlyph name="Ldot" xMin="71" yMin="0" xMax="1036" yMax="1456">
      <component glyphName="L" x="0" y="0" flags="0x204"/>
      <component glyphName="dotaccent" x="449" y="-631" flags="0x4"/>
    </TTGlyph>
    <TTGlyph name="Ldot.smcp" xMin="88" yMin="0" xMax="928" yMax="1165">
      <component glyphName="L.smcp" x="0" y="0" flags="0x204"/>
      <component glyphName="dotaccent" x="313" y="-782" flags="0x4"/>
    </TTGlyph>
    <TTGlyph name="Lslash" xMin="63" yMin="0" xMax="1036" yMax="1456">
      <contour>
        <pt x="452" y="1402" on="1"/>
        <pt x="289" y="1402" on="1"/>
        <pt x="289" y="776" on="1"/>
        <pt x="653" y="892" on="1"/>
        <pt x="653" y="835" on="1"/>
        <pt x="289" y="719" on="1"/>
        <pt x="289" y="54" on="1"/>
        <pt x="982" y="54" on="1"/>
        <pt x="982" y="293" on="1"/>
        <pt x="1036" y="293" on="1"/>
        <pt x="1036" y="0" on="1"/>
        <pt x="71" y="0" on="1"/>
        <pt x="71" y="54" on="1"/>
        <pt x="234" y="54" on="1"/>
        <pt x="234" y="702" on="1"/>
        <pt x="63" y="648" on="1"/>
        <pt x="63" y="705" on="1"/>
        <pt x="234" y="759" on="1"/>
        <pt x="234" y="1402" on="1"/>
        <pt x="71" y="1402" on="1"/>
        <pt x="71" y="1456" on="1"/>
        <pt x="452" y="1456" on="1"/>
      </contour>
    </TTGlyph>
    <TTGlyph name="M" xMin="71" yMin="0" xMax="1753" yMax="1456">
      <contour>
        <pt x="932" y="0" on="1"/>
        <pt x="889" y="0" on="1"/>
        <pt x="294" y="1356" on="1"/>
        <pt x="288" y="1354" on="1"/>
        <pt x="288" y="54" on="1"/>
        <pt x="451" y="54" on="1"/>
        <pt x="451" y="0" on="1"/>
        <pt x="71" y="0" on="1"/>
        <pt x="71" y="54" on="1"/>
        <pt x="234" y="54" on="1"/>
        <pt x="234" y="1402" on="1"/>
        <pt x="71" y="1402" on="1"/>
        <pt x="71" y="1456" on="1"/>
        <pt x="234" y="1456" on="1"/>
        <pt x="311" y="1456" on="1"/>
        <pt x="907" y="86" on="1"/>
        <pt x="913" y="86" on="1"/>
        <pt x="1511" y="1456" on="1"/>
        <pt x="1753" y="1456" on="1"/>
        <pt x="1753" y="1402" on="1"/>
        <pt x="1590" y="1402" on="1"/>
        <pt x="1590" y="54" on="1"/>
        <pt x="1753" y="54" on="1"/>
        <pt x="1753" y="0" on="1"/>
        <pt x="1373" y="0" on="1"/>
        <pt x="1373" y="54" on="1"/>
        <pt x="1536" y="54" on="1"/>
        <pt x="1536" y="1361" on="1"/>
        <pt x="1530" y="1363" on="1"/>
      </contour>
    </TTGlyph>
    <TTGlyph name="M.smcp" xMin="88" yMin="0" xMax="1537" yMax="1165">
      <contour>
        <pt x="814" y="89" on="1"/>
        <pt x="820" y="89" on="1"/>
        <pt x="1309" y="1165" on="1"/>
        <pt x="1374" y="1165" on="1"/>
        <pt x="1537" y="1165" on="1"/>
        <pt x="1537" y="1111" on="1"/>
        <pt x="1374" y="1111" on="1"/>
        <pt x="1374" y="54" on="1"/>
        <pt x="1537" y="54" on="1"/>
        <pt x="1537" y="0" on="1"/>
        <pt x="1156" y="0" on="1"/>
        <pt x="1156" y="54" on="1"/>
        <pt x="1319" y="54" on="1"/>
        <pt x="1319" y="1039" on="1"/>
        <pt x="1313" y="1040" on="1"/>
        <pt x="838" y="0" on="1"/>
        <pt x="796" y="0" on="1"/>
        <pt x="311" y="1066" on="1"/>
        <pt x="305" y="1065" on="1"/>
        <pt x="305" y="54" on="1"/>
        <pt x="468" y="54" on="1"/>
        <pt x="468" y="0" on="1"/>
        <pt x="88" y="0" on="1"/>
        <pt x="88" y="54" on="1"/>
        <pt x="251" y="54" on="1"/>
        <pt x="251" y="1111" on="1"/>
        <pt x="88" y="1111" on="1"/>
        <pt x="88" y="1165" on="1"/>
        <pt x="251" y="1165" on="1"/>
        <pt x="325" y="1165" on="1"/>
      </contour>
    </TTGlyph>
    <TTGlyph name="Mu" xMin="71" yMin="0" xMax="1753" yMax="1456">
      <component glyphName="M" x="0" y="0" flags="0x204"/>
    </TTGlyph>
    <TTGlyph name="N" xMin="71" yMin="0" xMax="1446" yMax="1456">
      <contour>
        <pt x="1446" y="1456" on="1"/>
        <pt x="1446" y="1402" on="1"/>
        <pt x="1283" y="1402" on="1"/>
        <pt x="1283" y="0" on="1"/>
        <pt x="1229" y="0" on="1"/>
        <pt x="295" y="1356" on="1"/>
        <pt x="289" y="1354" on="1"/>
        <pt x="289" y="54" on="1"/>
        <pt x="452" y="54" on="1"/>
        <pt x="452" y="0" on="1"/>
        <pt x="71" y="0" on="1"/>
        <pt x="71" y="54" on="1"/>
        <pt x="234" y="54" on="1"/>
        <pt x="234" y="1402" on="1"/>
        <pt x="71" y="1402" on="1"/>
        <pt x="71" y="1456" on="1"/>
        <pt x="234" y="1456" on="1"/>
        <pt x="289" y="1456" on="1"/>
        <pt x="1223" y="103" on="1"/>
        <pt x="1229" y="105" on="1"/>
        <pt x="1229" y="1402" on="1"/>
        <pt x="1066" y="1402" on="1"/>
        <pt x="1066" y="1456" on="1"/>
        <pt x="1283" y="1456" on="1"/>
      </contour>
    </TTGlyph>
    <TTGlyph name="N.smcp" xMin="88" yMin="0" xMax="1326" yMax="1165">
      <contour>
        <pt x="1326" y="1165" on="1"/>
        <pt x="1326" y="1111" on="1"/>
        <pt x="1163" y="1111" on="1"/>
        <pt x="1163" y="0" on="1"/>
        <pt x="1109" y="0" on="1"/>
        <pt x="311" y="1066" on="1"/>
        <pt x="305" y="1065" on="1"/>
        <pt x="305" y="54" on="1"/>
        <pt x="468" y="54" on="1"/>
        <pt x="468" y="0" on="1"/>
        <pt x="88" y="0" on="1"/>
        <pt x="88" y="54" on="1"/>
        <pt x="251" y="54" on="1"/>
        <pt x="251" y="1111" on="1"/>
        <pt x="88" y="1111" on="1"/>
        <pt x="88" y="1165" on="1"/>
        <pt x="251" y="1165" on="1"/>
        <pt x="305" y="1165" on="1"/>
        <pt x="1103" y="100" on="1"/>
        <pt x="1109" y="101" on="1"/>
        <pt x="1109" y="1111" on="1"/>
        <pt x="946" y="1111" on="1"/>
        <pt x="946" y="1165" on="1"/>
        <pt x="1163" y="1165" on="1"/>
      </contour>
    </TTGlyph>
    <TTGlyph name="Nacute" xMin="71" yMin="0" xMax="1446" yMax="1813">
      <component glyphName="N" x="0" y="0" flags="0x204"/>
      <component glyphName="acute" x="561" y="335" flags="0x4"/>
    </TTGlyph>
    <TTGlyph name="Nacute.smcp" xMin="88" yMin="0" xMax="1326" yMax="1490">
      <component glyphName="N.smcp" x="0" y="0" flags="0x204"/>
      <component glyphName="acute" x="512" y="12" flags="0x4"/>
    </TTGlyph>
    <TTGlyph name="Ncaron" xMin="71" yMin="0" xMax="1446" yMax="1799">
      <component glyphName="N" x="0" y="0" flags="0x204"/>
      <component glyphName="caron" x="382" y="324" flags="0x4"/>
    </TTGlyph>
    <TTGlyph name="Ncaron.smcp" xMin="88" yMin="0" xMax="1326" yMax="1476">
      <component glyphName="N.smcp" x="0" y="0" flags="0x204"/>
      <component glyphName="caron" x="333" y="1" flags="0x4"/>
    </TTGlyph>
    <TTGlyph name="Ncommaaccent" xMin="71" yMin="-487" xMax="1446" yMax="1456">
      <component glyphName="N" x="0" y="0" flags="0x204"/>
      <component glyphName="commaaccent" x="535" y="-264" flags="0x4"/>
    </TTGlyph>
    <TTGlyph name="Ncommaaccent.smcp" xMin="88" yMin="-489" xMax="1326" yMax="1165">
      <component glyphName="N.smcp" x="0" y="0" flags="0x204"/>
      <component glyphName="commaaccent" x="489" y="-266" flags="0x4"/>
    </TTGlyph>
    <TTGlyph name="Ntilde" xMin="71" yMin="0" xMax="1446" yMax="1811">
      <component glyphName="N" x="0" y="0" flags="0x204"/>
      <component glyphName="tilde" x="309" y="329" flags="0x4"/>
    </TTGlyph>
    <TTGlyph name="Ntilde.smcp" xMin="88" yMin="0" xMax="1326" yMax="1488">
      <component glyphName="N.smcp" x="0" y="0" flags="0x204"/>
      <component glyphName="tilde" x="260" y="6" flags="0x4"/>
    </TTGlyph>
    <TTGlyph name="Nu" xMin="71" yMin="0" xMax="1446" yMax="1456">
      <component glyphName="N" x="0" y="0" flags="0x204"/>
    </TTGlyph>
    <TTGlyph name="O" xMin="130" yMin="-21" xMax="1348" yMax="1477">
      <contour>
        <pt x="1348" y="719" on="1"/>
        <pt x="1348" y="383" on="0"/>
        <pt x="1011" y="-21" on="0"/>
        <pt x="740" y="-21" on="1"/>
        <pt x="468" y="-21" on="0"/>
        <pt x="130" y="384" on="0"/>
        <pt x="130" y="719" on="1"/>
        <pt x="130" y="737" on="1"/>
        <pt x="130" y="1072" on="0"/>
        <pt x="466" y="1477" on="0"/>
        <pt x="738" y="1477" on="1"/>
        <pt x="1009" y="1477" on="0"/>
        <pt x="1348" y="1072" on="0"/>
        <pt x="1348" y="737" on="1"/>
      </contour>
      <contour>
        <pt x="1294" y="739" on="1"/>
        <pt x="1294" y="1048" on="0"/>
        <pt x="991" y="1423" on="0"/>
        <pt x="738" y="1423" on="1"/>
        <pt x="486" y="1423" on="0"/>
        <pt x="185" y="1048" on="0"/>
        <pt x="185" y="739" on="1"/>
        <pt x="185" y="719" on="1"/>
        <pt x="185" y="408" on="0"/>
        <pt x="487" y="33" on="0"/>
        <pt x="740" y="33" on="1"/>
        <pt x="993" y="33" on="0"/>
        <pt x="1294" y="408" on="0"/>
        <pt x="1294" y="719" on="1"/>
      </contour>
    </TTGlyph>
    <TTGlyph name="O.smcp" xMin="118" yMin="-17" xMax="1044" yMax="1181">
      <contour>
        <pt x="1044" y="461" on="1"/>
        <pt x="1044" y="240" on="0"/>
        <pt x="790" y="-17" on="0"/>
        <pt x="582" y="-17" on="1"/>
        <pt x="372" y="-17" on="0"/>
        <pt x="118" y="239" on="0"/>
        <pt x="118" y="461" on="1"/>
        <pt x="118" y="704" on="1"/>
        <pt x="118" y="924" on="0"/>
        <pt x="370" y="1181" on="0"/>
        <pt x="580" y="1181" on="1"/>
        <pt x="788" y="1181" on="0"/>
        <pt x="1044" y="924" on="0"/>
        <pt x="1044" y="704" on="1"/>
      </contour>
      <contour>
        <pt x="990" y="705" on="1"/>
        <pt x="990" y="911" on="0"/>
        <pt x="772" y="1127" on="0"/>
        <pt x="580" y="1127" on="1"/>
        <pt x="389" y="1127" on="0"/>
        <pt x="172" y="911" on="0"/>
        <pt x="172" y="705" on="1"/>
        <pt x="172" y="461" on="1"/>
        <pt x="172" y="254" on="0"/>
        <pt x="390" y="38" on="0"/>
        <pt x="582" y="38" on="1"/>
        <pt x="774" y="38" on="0"/>
        <pt x="990" y="253" on="0"/>
        <pt x="990" y="461" on="1"/>
      </contour>
    </TTGlyph>
    <TTGlyph name="O.ss04" xMin="114" yMin="-21" xMax="1212" yMax="1477">
      <contour>
        <pt x="1212" y="619" on="1"/>
        <pt x="1212" y="324" on="0"/>
        <pt x="920" y="-21" on="0"/>
        <pt x="664" y="-21" on="1"/>
        <pt x="407" y="-21" on="0"/>
        <pt x="114" y="324" on="0"/>
        <pt x="114" y="619" on="1"/>
        <pt x="114" y="837" on="1"/>
        <pt x="114" y="1131" on="0"/>
        <pt x="405" y="1477" on="0"/>
        <pt x="662" y="1477" on="1"/>
        <pt x="918" y="1477" on="0"/>
        <pt x="1212" y="1131" on="0"/>
        <pt x="1212" y="837" on="1"/>
      </contour>
      <contour>
        <pt x="1158" y="839" on="1"/>
        <pt x="1158" y="1107" on="0"/>
        <pt x="900" y="1423" on="0"/>
        <pt x="662" y="1423" on="1"/>
        <pt x="425" y="1423" on="0"/>
        <pt x="169" y="1107" on="0"/>
        <pt x="169" y="839" on="1"/>
        <pt x="169" y="619" on="1"/>
        <pt x="169" y="349" on="0"/>
        <pt x="426" y="33" on="0"/>
        <pt x="664" y="33" on="1"/>
        <pt x="902" y="33" on="0"/>
        <pt x="1158" y="348" on="0"/>
        <pt x="1158" y="619" on="1"/>
      </contour>
    </TTGlyph>
    <TTGlyph name="OE" xMin="114" yMin="-21" xMax="1835" yMax="1477">
      <contour>
        <pt x="963" y="0" on="1"/>
        <pt x="860" y="-10" on="0"/>
        <pt x="710" y="-21" on="0"/>
        <pt x="633" y="-21" on="1"/>
        <pt x="402" y="-21" on="0"/>
        <pt x="114" y="311" on="0"/>
        <pt x="114" y="576" on="1"/>
        <pt x="114" y="880" on="1"/>
        <pt x="114" y="1145" on="0"/>
        <pt x="400" y="1477" on="0"/>
        <pt x="631" y="1477" on="1"/>
        <pt x="711" y="1477" on="0"/>
        <pt x="874" y="1465" on="0"/>
        <pt x="963" y="1456" on="1"/>
        <pt x="1835" y="1456" on="1"/>
        <pt x="1835" y="1163" on="1"/>
        <pt x="1781" y="1163" on="1"/>
        <pt x="1781" y="1402" on="1"/>
        <pt x="1003" y="1402" on="1"/>
        <pt x="1003" y="786" on="1"/>
        <pt x="1633" y="786" on="1"/>
        <pt x="1633" y="732" on="1"/>
        <pt x="1003" y="732" on="1"/>
        <pt x="1003" y="54" on="1"/>
        <pt x="1781" y="54" on="1"/>
        <pt x="1781" y="293" on="1"/>
        <pt x="1835" y="293" on="1"/>
        <pt x="1835" y="0" on="1"/>
      </contour>
      <contour>
        <pt x="633" y="33" on="1"/>
        <pt x="670" y="33" on="0"/>
        <pt x="748" y="34" on="0"/>
        <pt x="786" y="36" on="1"/>
        <pt x="786" y="54" on="1"/>
        <pt x="949" y="54" on="1"/>
        <pt x="949" y="1402" on="1"/>
        <pt x="786" y="1402" on="1"/>
        <pt x="786" y="1420" on="1"/>
        <pt x="748" y="1421" on="0"/>
        <pt x="670" y="1423" on="0"/>
        <pt x="631" y="1423" on="1"/>
        <pt x="420" y="1423" on="0"/>
        <pt x="168" y="1125" on="0"/>
        <pt x="168" y="882" on="1"/>
        <pt x="168" y="576" on="1"/>
        <pt x="168" y="336" on="0"/>
        <pt x="423" y="33" on="0"/>
      </contour>
    </TTGlyph>
    <TTGlyph name="Oacute" xMin="130" yMin="-21" xMax="1348" yMax="1834">
      <component glyphName="O" x="0" y="0" flags="0x204"/>
      <component glyphName="acute" x="572" y="356" flags="0x4"/>
    </TTGlyph>
    <TTGlyph name="Oacute.smcp" xMin="118" yMin="-17" xMax="1044" yMax="1506">
      <component glyphName="O.smcp" x="0" y="0" flags="0x204"/>
      <component glyphName="acute" x="412" y="28" flags="0x4"/>
    </TTGlyph>
    <TTGlyph name="Obreve" xMin="130" yMin="-21" xMax="1348" yMax="1825">
      <component glyphName="O" x="0" y="0" flags="0x204"/>
      <component glyphName="breve" x="339" y="369" flags="0x4"/>
    </TTGlyph>
    <TTGlyph name="Obreve.smcp" xMin="118" yMin="-17" xMax="1044" yMax="1497">
      <component glyphName="O.smcp" x="0" y="0" flags="0x204"/>
      <component glyphName="breve" x="179" y="41" flags="0x4"/>
    </TTGlyph>
    <TTGlyph name="Ocircumflex" xMin="130" yMin="-21" xMax="1348" yMax="1845">
      <component glyphName="O" x="0" y="0" flags="0x204"/>
      <component glyphName="circumflex" x="385" y="370" flags="0x4"/>
    </TTGlyph>
    <TTGlyph name="Ocircumflex.smcp" xMin="118" yMin="-17" xMax="1044" yMax="1517">
      <component glyphName="O.smcp" x="0" y="0" flags="0x204"/>
      <component glyphName="circumflex" x="225" y="42" flags="0x4"/>
    </TTGlyph>
    <TTGlyph name="Odieresis" xMin="130" yMin="-21" xMax="1348" yMax="1812">
      <component glyphName="O" x="0" y="0" flags="0x204"/>
      <component glyphName="dieresis" x="287" y="356" flags="0x4"/>
    </TTGlyph>
    <TTGlyph name="Odieresis.smcp" xMin="118" yMin="-17" xMax="1044" yMax="1484">
      <component glyphName="O.smcp" x="0" y="0" flags="0x204"/>
      <component glyphName="dieresis" x="127" y="28" flags="0x4"/>
    </TTGlyph>
    <TTGlyph name="Ograve" xMin="130" yMin="-21" xMax="1348" yMax="1861">
      <component glyphName="O" x="0" y="0" flags="0x204"/>
      <component glyphName="grave" x="392" y="385" flags="0x4"/>
    </TTGlyph>
    <TTGlyph name="Ograve.smcp" xMin="118" yMin="-17" xMax="1044" yMax="1533">
      <component glyphName="O.smcp" x="0" y="0" flags="0x204"/>
      <component glyphName="grave" x="232" y="57" flags="0x4"/>
    </TTGlyph>
    <TTGlyph name="Ohorn" xMin="120" yMin="-21" xMax="1499" yMax="1541">
      <contour>
        <pt x="1338" y="719" on="1"/>
        <pt x="1338" y="383" on="0"/>
        <pt x="1001" y="-21" on="0"/>
        <pt x="730" y="-21" on="1"/>
        <pt x="458" y="-21" on="0"/>
        <pt x="120" y="384" on="0"/>
        <pt x="120" y="719" on="1"/>
        <pt x="120" y="737" on="1"/>
        <pt x="120" y="1072" on="0"/>
        <pt x="456" y="1477" on="0"/>
        <pt x="728" y="1477" on="1"/>
        <pt x="874" y="1477" on="0"/>
        <pt x="1115" y="1353" on="0"/>
        <pt x="1197" y="1238" on="1"/>
        <pt x="1339" y="1240" on="0"/>
        <pt x="1445" y="1386" on="0"/>
        <pt x="1445" y="1541" on="1"/>
        <pt x="1499" y="1541" on="1"/>
        <pt x="1499" y="1372" on="0"/>
        <pt x="1374" y="1196" on="0"/>
        <pt x="1230" y="1185" on="1"/>
        <pt x="1282" y="1094" on="0"/>
        <pt x="1338" y="867" on="0"/>
        <pt x="1338" y="737" on="1"/>
      </contour>
      <contour>
        <pt x="1284" y="739" on="1"/>
        <pt x="1284" y="1048" on="0"/>
        <pt x="981" y="1423" on="0"/>
        <pt x="728" y="1423" on="1"/>
        <pt x="476" y="1423" on="0"/>
        <pt x="175" y="1048" on="0"/>
        <pt x="175" y="739" on="1"/>
        <pt x="175" y="719" on="1"/>
        <pt x="175" y="408" on="0"/>
        <pt x="477" y="33" on="0"/>
        <pt x="730" y="33" on="1"/>
        <pt x="983" y="33" on="0"/>
        <pt x="1284" y="408" on="0"/>
        <pt x="1284" y="719" on="1"/>
      </contour>
    </TTGlyph>
    <TTGlyph name="Ohungarumlaut" xMin="130" yMin="-21" xMax="1348" yMax="1888">
      <component glyphName="O" x="0" y="0" flags="0x204"/>
      <component glyphName="hungarumlaut" x="401" y="370" flags="0x4"/>
    </TTGlyph>
    <TTGlyph name="Ohungarumlaut.smcp" xMin="118" yMin="-17" xMax="1044" yMax="1560">
      <component glyphName="O.smcp" x="0" y="0" flags="0x204"/>
      <component glyphName="hungarumlaut" x="241" y="42" flags="0x4"/>
    </TTGlyph>
    <TTGlyph name="Omacron" xMin="130" yMin="-21" xMax="1348" yMax="1807">
      <component glyphName="O" x="0" y="0" flags="0x204"/>
      <component glyphName="macron" x="282" y="351" flags="0x4"/>
    </TTGlyph>
    <TTGlyph name="Omacron.smcp" xMin="118" yMin="-17" xMax="1044" yMax="1479">
      <component glyphName="O.smcp" x="0" y="0" flags="0x204"/>
      <component glyphName="macron" x="122" y="23" flags="0x4"/>
    </TTGlyph>
    <TTGlyph name="Omega" xMin="70" yMin="0" xMax="1226" yMax="1477">
      <contour>
        <pt x="753" y="78" on="1"/>
        <pt x="915" y="153" on="0"/>
        <pt x="1172" y="496" on="0"/>
        <pt x="1172" y="772" on="1"/>
        <pt x="1172" y="811" on="1"/>
        <pt x="1172" y="1073" on="0"/>
        <pt x="882" y="1423" on="0"/>
        <pt x="647" y="1423" on="1"/>
        <pt x="411" y="1423" on="0"/>
        <pt x="124" y="1073" on="0"/>
        <pt x="124" y="811" on="1"/>
        <pt x="124" y="772" on="1"/>
        <pt x="124" y="495" on="0"/>
        <pt x="385" y="153" on="0"/>
        <pt x="549" y="78" on="1"/>
        <pt x="549" y="0" on="1"/>
        <pt x="114" y="0" on="1"/>
        <pt x="114" y="54" on="1"/>
        <pt x="476" y="54" on="1"/>
        <pt x="310" y="145" on="0"/>
        <pt x="70" y="507" on="0"/>
        <pt x="70" y="772" on="1"/>
        <pt x="70" y="809" on="1"/>
        <pt x="70" y="1094" on="0"/>
        <pt x="392" y="1477" on="0"/>
        <pt x="647" y="1477" on="1"/>
        <pt x="901" y="1477" on="0"/>
        <pt x="1226" y="1093" on="0"/>
        <pt x="1226" y="809" on="1"/>
        <pt x="1226" y="772" on="1"/>
        <pt x="1226" y="508" on="0"/>
        <pt x="986" y="147" on="0"/>
        <pt x="822" y="54" on="1"/>
        <pt x="1187" y="54" on="1"/>
        <pt x="1187" y="0" on="1"/>
        <pt x="753" y="0" on="1"/>
      </contour>
    </TTGlyph>
    <TTGlyph name="Omegatonos" xMin="41" yMin="0" xMax="1246" yMax="1577">
      <component glyphName="Omega" x="20" y="0" flags="0x4"/>
      <component glyphName="tonos" x="-95" y="-1" flags="0x4"/>
    </TTGlyph>
    <TTGlyph name="Omicron" xMin="130" yMin="-21" xMax="1348" yMax="1477">
      <component glyphName="O" x="0" y="0" flags="0x204"/>
    </TTGlyph>
    <TTGlyph name="Omicrontonos" xMin="7" yMin="-21" xMax="1368" yMax="1577">
      <component glyphName="O" x="20" y="0" flags="0x4"/>
      <component glyphName="tonos" x="-129" y="-1" flags="0x4"/>
    </TTGlyph>
    <TTGlyph name="Oslash" xMin="120" yMin="-75" xMax="1338" yMax="1495">
      <contour>
        <pt x="1338" y="719" on="1"/>
        <pt x="1338" y="383" on="0"/>
        <pt x="1001" y="-21" on="0"/>
        <pt x="730" y="-21" on="1"/>
        <pt x="625" y="-21" on="0"/>
        <pt x="441" y="42" on="0"/>
        <pt x="367" y="104" on="1"/>
        <pt x="254" y="-75" on="1"/>
        <pt x="188" y="-75" on="1"/>
        <pt x="325" y="142" on="1"/>
        <pt x="226" y="240" on="0"/>
        <pt x="120" y="534" on="0"/>
        <pt x="120" y="719" on="1"/>
        <pt x="120" y="737" on="1"/>
        <pt x="120" y="1072" on="0"/>
        <pt x="456" y="1477" on="0"/>
        <pt x="728" y="1477" on="1"/>
        <pt x="832" y="1477" on="0"/>
        <pt x="1018" y="1411" on="0"/>
        <pt x="1093" y="1350" on="1"/>
        <pt x="1185" y="1495" on="1"/>
        <pt x="1251" y="1495" on="1"/>
        <pt x="1135" y="1312" on="1"/>
        <pt x="1231" y="1213" on="0"/>
        <pt x="1338" y="919" on="0"/>
        <pt x="1338" y="737" on="1"/>
      </contour>
      <contour>
        <pt x="175" y="719" on="1"/>
        <pt x="175" y="550" on="0"/>
        <pt x="267" y="281" on="0"/>
        <pt x="353" y="195" on="1"/>
        <pt x="359" y="194" on="1"/>
        <pt x="1064" y="1305" on="1"/>
        <pt x="996" y="1362" on="0"/>
        <pt x="826" y="1423" on="0"/>
        <pt x="728" y="1423" on="1"/>
        <pt x="476" y="1423" on="0"/>
        <pt x="175" y="1048" on="0"/>
        <pt x="175" y="739" on="1"/>
      </contour>
      <contour>
        <pt x="1284" y="739" on="1"/>
        <pt x="1284" y="905" on="0"/>
        <pt x="1192" y="1173" on="0"/>
        <pt x="1108" y="1259" on="1"/>
        <pt x="1102" y="1260" on="1"/>
        <pt x="396" y="149" on="1"/>
        <pt x="464" y="92" on="0"/>
        <pt x="632" y="33" on="0"/>
        <pt x="730" y="33" on="1"/>
        <pt x="983" y="33" on="0"/>
        <pt x="1284" y="408" on="0"/>
        <pt x="1284" y="719" on="1"/>
      </contour>
    </TTGlyph>
    <TTGlyph name="Oslashacute" xMin="120" yMin="-75" xMax="1338" yMax="1875">
      <component glyphName="Oslash" x="0" y="0" flags="0x204"/>
      <component glyphName="acute" x="547" y="397" flags="0x4"/>
    </TTGlyph>
    <TTGlyph name="Otilde" xMin="130" yMin="-21" xMax="1348" yMax="1832">
      <component glyphName="O" x="0" y="0" flags="0x204"/>
      <component glyphName="tilde" x="320" y="350" flags="0x4"/>
    </TTGlyph>
    <TTGlyph name="Otilde.smcp" xMin="118" yMin="-17" xMax="1044" yMax="1504">
      <component glyphName="O.smcp" x="0" y="0" flags="0x204"/>
      <component glyphName="tilde" x="160" y="22" flags="0x4"/>
    </TTGlyph>
    <TTGlyph name="P" xMin="71" yMin="0" xMax="1109" yMax="1456">
      <contour>
        <pt x="639" y="1456" on="1"/>
        <pt x="865" y="1456" on="0"/>
        <pt x="1109" y="1229" on="0"/>
        <pt x="1109" y="1041" on="1"/>
        <pt x="1109" y="851" on="0"/>
        <pt x="866" y="625" on="0"/>
        <pt x="639" y="625" on="1"/>
        <pt x="288" y="625" on="1"/>
        <pt x="288" y="54" on="1"/>
        <pt x="451" y="54" on="1"/>
        <pt x="451" y="0" on="1"/>
        <pt x="71" y="0" on="1"/>
        <pt x="71" y="54" on="1"/>
        <pt x="234" y="54" on="1"/>
        <pt x="234" y="1402" on="1"/>
        <pt x="71" y="1402" on="1"/>
        <pt x="71" y="1456" on="1"/>
        <pt x="234" y="1456" on="1"/>
      </contour>
      <contour>
        <pt x="288" y="679" on="1"/>
        <pt x="639" y="679" on="1"/>
        <pt x="846" y="679" on="0"/>
        <pt x="1055" y="885" on="0"/>
        <pt x="1055" y="1039" on="1"/>
        <pt x="1055" y="1197" on="0"/>
        <pt x="847" y="1402" on="0"/>
        <pt x="639" y="1402" on="1"/>
        <pt x="288" y="1402" on="1"/>
      </contour>
    </TTGlyph>
    <TTGlyph name="P.smcp" xMin="88" yMin="0" xMax="1057" yMax="1165">
      <contour>
        <pt x="672" y="1165" on="1"/>
        <pt x="853" y="1165" on="0"/>
        <pt x="1057" y="966" on="0"/>
        <pt x="1057" y="808" on="1"/>
        <pt x="1057" y="648" on="0"/>
        <pt x="853" y="450" on="0"/>
        <pt x="672" y="450" on="1"/>
        <pt x="305" y="450" on="1"/>
        <pt x="305" y="54" on="1"/>
        <pt x="468" y="54" on="1"/>
        <pt x="468" y="0" on="1"/>
        <pt x="88" y="0" on="1"/>
        <pt x="88" y="54" on="1"/>
        <pt x="251" y="54" on="1"/>
        <pt x="251" y="1111" on="1"/>
        <pt x="88" y="1111" on="1"/>
        <pt x="88" y="1165" on="1"/>
        <pt x="251" y="1165" on="1"/>
      </contour>
      <contour>
        <pt x="305" y="505" on="1"/>
        <pt x="672" y="505" on="1"/>
        <pt x="836" y="505" on="0"/>
        <pt x="1003" y="679" on="0"/>
        <pt x="1003" y="806" on="1"/>
        <pt x="1003" y="936" on="0"/>
        <pt x="837" y="1111" on="0"/>
        <pt x="672" y="1111" on="1"/>
        <pt x="305" y="1111" on="1"/>
      </contour>
    </TTGlyph>
    <TTGlyph name="Phi" xMin="79" yMin="0" xMax="1341" yMax="1456">
      <contour>
        <pt x="681" y="209" on="1"/>
        <pt x="406" y="210" on="0"/>
        <pt x="79" y="512" on="0"/>
        <pt x="79" y="737" on="1"/>
        <pt x="79" y="960" on="0"/>
        <pt x="407" y="1264" on="0"/>
        <pt x="681" y="1266" on="1"/>
        <pt x="681" y="1402" on="1"/>
        <pt x="518" y="1402" on="1"/>
        <pt x="518" y="1456" on="1"/>
        <pt x="899" y="1456" on="1"/>
        <pt x="899" y="1402" on="1"/>
        <pt x="736" y="1402" on="1"/>
        <pt x="736" y="1266" on="1"/>
        <pt x="1010" y="1265" on="0"/>
        <pt x="1341" y="963" on="0"/>
        <pt x="1341" y="739" on="1"/>
        <pt x="1341" y="513" on="0"/>
        <pt x="1010" y="209" on="0"/>
        <pt x="736" y="209" on="1"/>
        <pt x="736" y="54" on="1"/>
        <pt x="899" y="54" on="1"/>
        <pt x="899" y="0" on="1"/>
        <pt x="518" y="0" on="1"/>
        <pt x="518" y="54" on="1"/>
        <pt x="681" y="54" on="1"/>
      </contour>
      <contour>
        <pt x="1286" y="739" on="1"/>
        <pt x="1286" y="944" on="0"/>
        <pt x="988" y="1210" on="0"/>
        <pt x="741" y="1207" on="1"/>
        <pt x="736" y="1205" on="1"/>
        <pt x="736" y="270" on="1"/>
        <pt x="741" y="268" on="1"/>
        <pt x="988" y="264" on="0"/>
        <pt x="1286" y="531" on="0"/>
      </contour>
      <contour>
        <pt x="134" y="737" on="1"/>
        <pt x="134" y="530" on="0"/>
        <pt x="428" y="265" on="0"/>
        <pt x="676" y="268" on="1"/>
        <pt x="681" y="270" on="1"/>
        <pt x="681" y="1205" on="1"/>
        <pt x="676" y="1207" on="1"/>
        <pt x="430" y="1209" on="0"/>
        <pt x="134" y="940" on="0"/>
      </contour>
    </TTGlyph>
    <TTGlyph name="Pi" xMin="77" yMin="0" xMax="1441" yMax="1456">
      <contour>
        <pt x="77" y="54" on="1"/>
        <pt x="240" y="54" on="1"/>
        <pt x="240" y="1402" on="1"/>
        <pt x="77" y="1402" on="1"/>
        <pt x="77" y="1456" on="1"/>
        <pt x="1441" y="1456" on="1"/>
        <pt x="1441" y="1402" on="1"/>
        <pt x="1278" y="1402" on="1"/>
        <pt x="1278" y="54" on="1"/>
        <pt x="1441" y="54" on="1"/>
        <pt x="1441" y="0" on="1"/>
        <pt x="1061" y="0" on="1"/>
        <pt x="1061" y="54" on="1"/>
        <pt x="1224" y="54" on="1"/>
        <pt x="1224" y="1402" on="1"/>
        <pt x="294" y="1402" on="1"/>
        <pt x="294" y="54" on="1"/>
        <pt x="457" y="54" on="1"/>
        <pt x="457" y="0" on="1"/>
        <pt x="77" y="0" on="1"/>
      </contour>
    </TTGlyph>
    <TTGlyph name="Psi" xMin="55" yMin="0" xMax="1499" yMax="1456">
      <contour>
        <pt x="966" y="1456" on="1"/>
        <pt x="966" y="1402" on="1"/>
        <pt x="803" y="1402" on="1"/>
        <pt x="803" y="479" on="1"/>
        <pt x="809" y="476" on="1"/>
        <pt x="1016" y="476" on="0"/>
        <pt x="1282" y="733" on="0"/>
        <pt x="1282" y="946" on="1"/>
        <pt x="1282" y="1456" on="1"/>
        <pt x="1336" y="1456" on="1"/>
        <pt x="1499" y="1456" on="1"/>
        <pt x="1499" y="1402" on="1"/>
        <pt x="1336" y="1402" on="1"/>
        <pt x="1336" y="946" on="1"/>
        <pt x="1336" y="701" on="0"/>
        <pt x="1041" y="420" on="0"/>
        <pt x="803" y="416" on="1"/>
        <pt x="803" y="54" on="1"/>
        <pt x="966" y="54" on="1"/>
        <pt x="966" y="0" on="1"/>
        <pt x="585" y="0" on="1"/>
        <pt x="585" y="54" on="1"/>
        <pt x="748" y="54" on="1"/>
        <pt x="748" y="416" on="1"/>
        <pt x="510" y="422" on="0"/>
        <pt x="218" y="702" on="0"/>
        <pt x="218" y="946" on="1"/>
        <pt x="218" y="1402" on="1"/>
        <pt x="55" y="1402" on="1"/>
        <pt x="55" y="1456" on="1"/>
        <pt x="218" y="1456" on="1"/>
        <pt x="273" y="1456" on="1"/>
        <pt x="273" y="946" on="1"/>
        <pt x="273" y="735" on="0"/>
        <pt x="535" y="479" on="0"/>
        <pt x="742" y="477" on="1"/>
        <pt x="748" y="479" on="1"/>
        <pt x="748" y="1402" on="1"/>
        <pt x="585" y="1402" on="1"/>
        <pt x="585" y="1456" on="1"/>
        <pt x="748" y="1456" on="1"/>
        <pt x="803" y="1456" on="1"/>
      </contour>
    </TTGlyph>
    <TTGlyph name="Q" xMin="130" yMin="-203" xMax="1348" yMax="1477">
      <contour>
        <pt x="1348" y="719" on="1"/>
        <pt x="1348" y="487" on="0"/>
        <pt x="1181" y="142" on="0"/>
        <pt x="1033" y="56" on="1"/>
        <pt x="1343" y="-165" on="1"/>
        <pt x="1304" y="-203" on="1"/>
        <pt x="979" y="28" on="1"/>
        <pt x="924" y="3" on="0"/>
        <pt x="804" y="-21" on="0"/>
        <pt x="740" y="-21" on="1"/>
        <pt x="468" y="-21" on="0"/>
        <pt x="130" y="384" on="0"/>
        <pt x="130" y="719" on="1"/>
        <pt x="130" y="737" on="1"/>
        <pt x="130" y="1072" on="0"/>
        <pt x="466" y="1477" on="0"/>
        <pt x="738" y="1477" on="1"/>
        <pt x="1009" y="1477" on="0"/>
        <pt x="1348" y="1072" on="0"/>
        <pt x="1348" y="737" on="1"/>
      </contour>
      <contour>
        <pt x="1294" y="739" on="1"/>
        <pt x="1294" y="1048" on="0"/>
        <pt x="991" y="1423" on="0"/>
        <pt x="738" y="1423" on="1"/>
        <pt x="486" y="1423" on="0"/>
        <pt x="185" y="1048" on="0"/>
        <pt x="185" y="739" on="1"/>
        <pt x="185" y="719" on="1"/>
        <pt x="185" y="408" on="0"/>
        <pt x="487" y="33" on="0"/>
        <pt x="740" y="33" on="1"/>
        <pt x="993" y="33" on="0"/>
        <pt x="1294" y="408" on="0"/>
        <pt x="1294" y="719" on="1"/>
      </contour>
    </TTGlyph>
    <TTGlyph name="Q.smcp" xMin="118" yMin="-105" xMax="1152" yMax="1181">
      <contour>
        <pt x="1044" y="461" on="1"/>
        <pt x="1044" y="359" on="0"/>
        <pt x="987" y="192" on="0"/>
        <pt x="934" y="131" on="1"/>
        <pt x="1152" y="-69" on="1"/>
        <pt x="1113" y="-105" on="1"/>
        <pt x="894" y="90" on="1"/>
        <pt x="834" y="37" on="0"/>
        <pt x="675" y="-17" on="0"/>
        <pt x="582" y="-17" on="1"/>
        <pt x="372" y="-17" on="0"/>
        <pt x="118" y="239" on="0"/>
        <pt x="118" y="461" on="1"/>
        <pt x="118" y="704" on="1"/>
        <pt x="118" y="924" on="0"/>
        <pt x="370" y="1181" on="0"/>
        <pt x="580" y="1181" on="1"/>
        <pt x="788" y="1181" on="0"/>
        <pt x="1044" y="924" on="0"/>
        <pt x="1044" y="704" on="1"/>
      </contour>
      <contour>
        <pt x="990" y="705" on="1"/>
        <pt x="990" y="911" on="0"/>
        <pt x="772" y="1127" on="0"/>
        <pt x="580" y="1127" on="1"/>
        <pt x="389" y="1127" on="0"/>
        <pt x="172" y="911" on="0"/>
        <pt x="172" y="705" on="1"/>
        <pt x="172" y="461" on="1"/>
        <pt x="172" y="254" on="0"/>
        <pt x="390" y="38" on="0"/>
        <pt x="582" y="38" on="1"/>
        <pt x="774" y="38" on="0"/>
        <pt x="990" y="253" on="0"/>
        <pt x="990" y="461" on="1"/>
      </contour>
    </TTGlyph>
    <TTGlyph name="R" xMin="71" yMin="-1" xMax="1294" yMax="1455">
      <contour>
        <pt x="648" y="1455" on="1"/>
        <pt x="878" y="1455" on="0"/>
        <pt x="1126" y="1256" on="0"/>
        <pt x="1126" y="1065" on="1"/>
        <pt x="1126" y="942" on="0"/>
        <pt x="969" y="741" on="0"/>
        <pt x="833" y="711" on="1"/>
        <pt x="990" y="684" on="0"/>
        <pt x="1126" y="508" on="0"/>
        <pt x="1126" y="371" on="1"/>
        <pt x="1126" y="224" on="1"/>
        <pt x="1126" y="138" on="0"/>
        <pt x="1185" y="54" on="0"/>
        <pt x="1243" y="54" on="1"/>
        <pt x="1294" y="54" on="1"/>
        <pt x="1294" y="0" on="1"/>
        <pt x="1243" y="0" on="1"/>
        <pt x="1146" y="0" on="0"/>
        <pt x="1072" y="131" on="0"/>
        <pt x="1072" y="226" on="1"/>
        <pt x="1072" y="369" on="1"/>
        <pt x="1072" y="517" on="0"/>
        <pt x="869" y="683" on="0"/>
        <pt x="681" y="683" on="1"/>
        <pt x="288" y="683" on="1"/>
        <pt x="288" y="53" on="1"/>
        <pt x="451" y="53" on="1"/>
        <pt x="451" y="-1" on="1"/>
        <pt x="71" y="-1" on="1"/>
        <pt x="71" y="53" on="1"/>
        <pt x="234" y="53" on="1"/>
        <pt x="234" y="1401" on="1"/>
        <pt x="71" y="1401" on="1"/>
        <pt x="71" y="1455" on="1"/>
        <pt x="234" y="1455" on="1"/>
      </contour>
      <contour>
        <pt x="288" y="737" on="1"/>
        <pt x="638" y="737" on="1"/>
        <pt x="861" y="737" on="0"/>
        <pt x="1072" y="925" on="0"/>
        <pt x="1072" y="1065" on="1"/>
        <pt x="1072" y="1228" on="0"/>
        <pt x="859" y="1401" on="0"/>
        <pt x="648" y="1401" on="1"/>
        <pt x="288" y="1401" on="1"/>
      </contour>
    </TTGlyph>
    <TTGlyph name="R.smcp" xMin="88" yMin="0" xMax="1186" yMax="1165">
      <contour>
        <pt x="679" y="1165" on="1"/>
        <pt x="866" y="1165" on="0"/>
        <pt x="1063" y="1003" on="0"/>
        <pt x="1063" y="848" on="1"/>
        <pt x="1063" y="741" on="0"/>
        <pt x="964" y="590" on="0"/>
        <pt x="861" y="561" on="1"/>
        <pt x="967" y="535" on="0"/>
        <pt x="1060" y="397" on="0"/>
        <pt x="1060" y="292" on="1"/>
        <pt x="1060" y="172" on="1"/>
        <pt x="1060" y="131" on="0"/>
        <pt x="1063" y="75" on="0"/>
        <pt x="1069" y="54" on="1"/>
        <pt x="1186" y="54" on="1"/>
        <pt x="1186" y="0" on="1"/>
        <pt x="1024" y="0" on="1"/>
        <pt x="1012" y="25" on="0"/>
        <pt x="1006" y="122" on="0"/>
        <pt x="1006" y="173" on="1"/>
        <pt x="1006" y="290" on="1"/>
        <pt x="1006" y="403" on="0"/>
        <pt x="861" y="533" on="0"/>
        <pt x="728" y="536" on="1"/>
        <pt x="305" y="536" on="1"/>
        <pt x="305" y="54" on="1"/>
        <pt x="468" y="54" on="1"/>
        <pt x="468" y="0" on="1"/>
        <pt x="88" y="0" on="1"/>
        <pt x="88" y="54" on="1"/>
        <pt x="251" y="54" on="1"/>
        <pt x="251" y="1111" on="1"/>
        <pt x="88" y="1111" on="1"/>
        <pt x="88" y="1165" on="1"/>
        <pt x="251" y="1165" on="1"/>
      </contour>
      <contour>
        <pt x="305" y="590" on="1"/>
        <pt x="679" y="590" on="1"/>
        <pt x="855" y="590" on="0"/>
        <pt x="1009" y="719" on="0"/>
        <pt x="1009" y="849" on="1"/>
        <pt x="1009" y="979" on="0"/>
        <pt x="854" y="1111" on="0"/>
        <pt x="679" y="1111" on="1"/>
        <pt x="305" y="1111" on="1"/>
      </contour>
    </TTGlyph>
    <TTGlyph name="Racute" xMin="71" yMin="-1" xMax="1294" yMax="1813">
      <component glyphName="R" x="0" y="0" flags="0x204"/>
      <component glyphName="acute" x="441" y="335" flags="0x4"/>
    </TTGlyph>
    <TTGlyph name="Racute.smcp" xMin="88" yMin="0" xMax="1186" yMax="1490">
      <component glyphName="R.smcp" x="0" y="0" flags="0x204"/>
      <component glyphName="acute" x="482" y="12" flags="0x4"/>
    </TTGlyph>
    <TTGlyph name="Rcaron" xMin="71" yMin="-1" xMax="1294" yMax="1799">
      <component glyphName="R" x="0" y="0" flags="0x204"/>
      <component glyphName="caron" x="262" y="324" flags="0x4"/>
    </TTGlyph>
    <TTGlyph name="Rcaron.smcp" xMin="88" yMin="0" xMax="1186" yMax="1476">
      <component glyphName="R.smcp" x="0" y="0" flags="0x204"/>
      <component glyphName="caron" x="303" y="1" flags="0x4"/>
    </TTGlyph>
    <TTGlyph name="Rcommaaccent" xMin="71" yMin="-487" xMax="1294" yMax="1455">
      <component glyphName="R" x="0" y="0" flags="0x204"/>
      <component glyphName="commaaccent" x="415" y="-264" flags="0x4"/>
    </TTGlyph>
    <TTGlyph name="Rcommaaccent.smcp" xMin="88" yMin="-489" xMax="1186" yMax="1165">
      <component glyphName="R.smcp" x="0" y="0" flags="0x204"/>
      <component glyphName="commaaccent" x="447" y="-266" flags="0x4"/>
    </TTGlyph>
    <TTGlyph name="Rho" xMin="71" yMin="0" xMax="1109" yMax="1456">
      <component glyphName="P" x="0" y="0" flags="0x204"/>
    </TTGlyph>
    <TTGlyph name="S" xMin="100" yMin="-21" xMax="1098" yMax="1477">
      <contour>
        <pt x="1077" y="1022" on="1"/>
        <pt x="1023" y="1022" on="1"/>
        <pt x="1023" y="1226" on="1"/>
        <pt x="959" y="1323" on="0"/>
        <pt x="744" y="1423" on="0"/>
        <pt x="597" y="1423" on="1"/>
        <pt x="399" y="1423" on="0"/>
        <pt x="168" y="1246" on="0"/>
        <pt x="168" y="1122" on="1"/>
        <pt x="168" y="998" on="0"/>
        <pt x="359" y="834" on="0"/>
        <pt x="609" y="770" on="1"/>
        <pt x="851" y="706" on="0"/>
        <pt x="1098" y="521" on="0"/>
        <pt x="1098" y="351" on="1"/>
        <pt x="1098" y="178" on="0"/>
        <pt x="816" y="-21" on="0"/>
        <pt x="604" y="-21" on="1"/>
        <pt x="458" y="-21" on="0"/>
        <pt x="189" y="88" on="0"/>
        <pt x="100" y="204" on="1"/>
        <pt x="100" y="444" on="1"/>
        <pt x="154" y="444" on="1"/>
        <pt x="154" y="227" on="1"/>
        <pt x="232" y="125" on="0"/>
        <pt x="474" y="33" on="0"/>
        <pt x="604" y="33" on="1"/>
        <pt x="796" y="33" on="0"/>
        <pt x="1043" y="209" on="0"/>
        <pt x="1043" y="349" on="1"/>
        <pt x="1043" y="486" on="0"/>
        <pt x="842" y="650" on="0"/>
        <pt x="594" y="718" on="1"/>
        <pt x="345" y="785" on="0"/>
        <pt x="114" y="956" on="0"/>
        <pt x="114" y="1120" on="1"/>
        <pt x="114" y="1283" on="0"/>
        <pt x="386" y="1477" on="0"/>
        <pt x="597" y="1477" on="1"/>
        <pt x="761" y="1477" on="0"/>
        <pt x="1006" y="1364" on="0"/>
        <pt x="1077" y="1251" on="1"/>
      </contour>
    </TTGlyph>
    <TTGlyph name="S.smcp" xMin="90" yMin="-17" xMax="963" yMax="1181">
      <contour>
        <pt x="909" y="279" on="1"/>
        <pt x="909" y="379" on="0"/>
        <pt x="749" y="496" on="0"/>
        <pt x="532" y="556" on="1"/>
        <pt x="322" y="612" on="0"/>
        <pt x="128" y="751" on="0"/>
        <pt x="128" y="885" on="1"/>
        <pt x="128" y="1019" on="0"/>
        <pt x="350" y="1181" on="0"/>
        <pt x="536" y="1181" on="1"/>
        <pt x="728" y="1181" on="0"/>
        <pt x="943" y="1002" on="0"/>
        <pt x="938" y="841" on="1"/>
        <pt x="936" y="835" on="1"/>
        <pt x="890" y="835" on="1"/>
        <pt x="890" y="964" on="0"/>
        <pt x="703" y="1127" on="0"/>
        <pt x="536" y="1127" on="1"/>
        <pt x="362" y="1127" on="0"/>
        <pt x="183" y="987" on="0"/>
        <pt x="183" y="886" on="1"/>
        <pt x="183" y="785" on="0"/>
        <pt x="327" y="666" on="0"/>
        <pt x="548" y="608" on="1"/>
        <pt x="763" y="551" on="0"/>
        <pt x="963" y="413" on="0"/>
        <pt x="963" y="280" on="1"/>
        <pt x="963" y="142" on="0"/>
        <pt x="724" y="-17" on="0"/>
        <pt x="524" y="-17" on="1"/>
        <pt x="341" y="-17" on="0"/>
        <pt x="90" y="147" on="0"/>
        <pt x="95" y="324" on="1"/>
        <pt x="97" y="330" on="1"/>
        <pt x="143" y="330" on="1"/>
        <pt x="143" y="175" on="0"/>
        <pt x="367" y="38" on="0"/>
        <pt x="524" y="38" on="1"/>
        <pt x="702" y="38" on="0"/>
        <pt x="909" y="178" on="0"/>
      </contour>
    </TTGlyph>
    <TTGlyph name="S.ss03" xMin="79" yMin="-21" xMax="1108" yMax="1477">
      <contour>
        <pt x="1053" y="349" on="1"/>
        <pt x="1053" y="486" on="0"/>
        <pt x="852" y="650" on="0"/>
        <pt x="604" y="718" on="1"/>
        <pt x="355" y="785" on="0"/>
        <pt x="124" y="956" on="0"/>
        <pt x="124" y="1120" on="1"/>
        <pt x="124" y="1283" on="0"/>
        <pt x="396" y="1477" on="0"/>
        <pt x="607" y="1477" on="1"/>
        <pt x="820" y="1477" on="0"/>
        <pt x="1090" y="1239" on="0"/>
        <pt x="1086" y="1052" on="1"/>
        <pt x="1084" y="1046" on="1"/>
        <pt x="1038" y="1046" on="1"/>
        <pt x="1038" y="1209" on="0"/>
        <pt x="798" y="1423" on="0"/>
        <pt x="607" y="1423" on="1"/>
        <pt x="409" y="1423" on="0"/>
        <pt x="178" y="1246" on="0"/>
        <pt x="178" y="1122" on="1"/>
        <pt x="178" y="998" on="0"/>
        <pt x="369" y="834" on="0"/>
        <pt x="619" y="770" on="1"/>
        <pt x="861" y="706" on="0"/>
        <pt x="1108" y="521" on="0"/>
        <pt x="1108" y="351" on="1"/>
        <pt x="1108" y="178" on="0"/>
        <pt x="826" y="-21" on="0"/>
        <pt x="614" y="-21" on="1"/>
        <pt x="395" y="-21" on="0"/>
        <pt x="79" y="184" on="0"/>
        <pt x="84" y="404" on="1"/>
        <pt x="86" y="410" on="1"/>
        <pt x="131" y="410" on="1"/>
        <pt x="131" y="212" on="0"/>
        <pt x="423" y="33" on="0"/>
        <pt x="614" y="33" on="1"/>
        <pt x="806" y="33" on="0"/>
        <pt x="1053" y="209" on="0"/>
      </contour>
    </TTGlyph>
    <TTGlyph name="Sacute" xMin="100" yMin="-21" xMax="1098" yMax="1834">
      <component glyphName="S" x="0" y="0" flags="0x204"/>
      <component glyphName="acute" x="457" y="356" flags="0x4"/>
    </TTGlyph>
    <TTGlyph name="Sacute.smcp" xMin="90" yMin="-17" xMax="963" yMax="1506">
      <component glyphName="S.smcp" x="0" y="0" flags="0x204"/>
      <component glyphName="acute" x="390" y="28" flags="0x4"/>
    </TTGlyph>
    <TTGlyph name="Scaron" xMin="100" yMin="-21" xMax="1098" yMax="1820">
      <component glyphName="S" x="0" y="0" flags="0x204"/>
      <component glyphName="caron" x="278" y="345" flags="0x4"/>
    </TTGlyph>
    <TTGlyph name="Scaron.smcp" xMin="90" yMin="-17" xMax="963" yMax="1492">
      <component glyphName="S.smcp" x="0" y="0" flags="0x204"/>
      <component glyphName="caron" x="211" y="17" flags="0x4"/>
    </TTGlyph>
    <TTGlyph name="Scedilla" xMin="100" yMin="-444" xMax="1098" yMax="1477">
      <component glyphName="S" x="0" y="0" flags="0x204"/>
      <component glyphName="cedilla" x="443" y="-9" flags="0x4"/>
    </TTGlyph>
    <TTGlyph name="Scedilla.smcp" xMin="90" yMin="-441" xMax="963" yMax="1181">
      <component glyphName="S.smcp" x="0" y="0" flags="0x204"/>
      <component glyphName="cedilla" x="342" y="-6" flags="0x4"/>
    </TTGlyph>
    <TTGlyph name="Scircumflex" xMin="100" yMin="-21" xMax="1098" yMax="1845">
      <component glyphName="S" x="0" y="0" flags="0x204"/>
      <component glyphName="circumflex" x="270" y="370" flags="0x4"/>
    </TTGlyph>
    <TTGlyph name="Scircumflex.smcp" xMin="90" yMin="-17" xMax="963" yMax="1517">
      <component glyphName="S.smcp" x="0" y="0" flags="0x204"/>
      <component glyphName="circumflex" x="203" y="42" flags="0x4"/>
    </TTGlyph>
    <TTGlyph name="Sigma" xMin="79" yMin="0" xMax="1071" yMax="1456">
      <contour>
        <pt x="79" y="0" on="1"/>
        <pt x="79" y="44" on="1"/>
        <pt x="626" y="787" on="1"/>
        <pt x="79" y="1412" on="1"/>
        <pt x="79" y="1456" on="1"/>
        <pt x="116" y="1456" on="1"/>
        <pt x="118" y="1453" on="1"/>
        <pt x="118" y="1456" on="1"/>
        <pt x="1011" y="1456" on="1"/>
        <pt x="1011" y="1163" on="1"/>
        <pt x="957" y="1163" on="1"/>
        <pt x="957" y="1403" on="1"/>
        <pt x="169" y="1403" on="1"/>
        <pt x="167" y="1398" on="1"/>
        <pt x="678" y="815" on="1"/>
        <pt x="678" y="768" on="1"/>
        <pt x="155" y="54" on="1"/>
        <pt x="1017" y="54" on="1"/>
        <pt x="1017" y="293" on="1"/>
        <pt x="1071" y="293" on="1"/>
        <pt x="1071" y="0" on="1"/>
      </contour>
    </TTGlyph>
    <TTGlyph name="T" xMin="80" yMin="0" xMax="1194" yMax="1456">
      <contour>
        <pt x="1194" y="1456" on="1"/>
        <pt x="1194" y="1163" on="1"/>
        <pt x="1140" y="1163" on="1"/>
        <pt x="1140" y="1402" on="1"/>
        <pt x="664" y="1402" on="1"/>
        <pt x="664" y="54" on="1"/>
        <pt x="827" y="54" on="1"/>
        <pt x="827" y="0" on="1"/>
        <pt x="447" y="0" on="1"/>
        <pt x="447" y="54" on="1"/>
        <pt x="610" y="54" on="1"/>
        <pt x="610" y="1402" on="1"/>
        <pt x="134" y="1402" on="1"/>
        <pt x="134" y="1163" on="1"/>
        <pt x="80" y="1163" on="1"/>
        <pt x="80" y="1456" on="1"/>
      </contour>
    </TTGlyph>
    <TTGlyph name="T.smcp" xMin="71" yMin="0" xMax="1053" yMax="1165">
      <contour>
        <pt x="1053" y="1165" on="1"/>
        <pt x="1053" y="872" on="1"/>
        <pt x="999" y="872" on="1"/>
        <pt x="999" y="1111" on="1"/>
        <pt x="578" y="1111" on="1"/>
        <pt x="578" y="54" on="1"/>
        <pt x="741" y="54" on="1"/>
        <pt x="741" y="0" on="1"/>
        <pt x="361" y="0" on="1"/>
        <pt x="361" y="54" on="1"/>
        <pt x="524" y="54" on="1"/>
        <pt x="524" y="1111" on="1"/>
        <pt x="125" y="1111" on="1"/>
        <pt x="125" y="872" on="1"/>
        <pt x="71" y="872" on="1"/>
        <pt x="71" y="1165" on="1"/>
      </contour>
    </TTGlyph>
    <TTGlyph name="Tau" xMin="80" yMin="0" xMax="1194" yMax="1456">
      <component glyphName="T" x="0" y="0" flags="0x204"/>
    </TTGlyph>
    <TTGlyph name="Tbar" xMin="80" yMin="0" xMax="1194" yMax="1456">
      <contour>
        <pt x="1194" y="1456" on="1"/>
        <pt x="1194" y="1163" on="1"/>
        <pt x="1140" y="1163" on="1"/>
        <pt x="1140" y="1402" on="1"/>
        <pt x="664" y="1402" on="1"/>
        <pt x="664" y="901" on="1"/>
        <pt x="968" y="901" on="1"/>
        <pt x="968" y="847" on="1"/>
        <pt x="664" y="847" on="1"/>
        <pt x="664" y="54" on="1"/>
        <pt x="827" y="54" on="1"/>
        <pt x="827" y="0" on="1"/>
        <pt x="447" y="0" on="1"/>
        <pt x="447" y="54" on="1"/>
        <pt x="610" y="54" on="1"/>
        <pt x="610" y="847" on="1"/>
        <pt x="381" y="847" on="1"/>
        <pt x="381" y="901" on="1"/>
        <pt x="610" y="901" on="1"/>
        <pt x="610" y="1402" on="1"/>
        <pt x="134" y="1402" on="1"/>
        <pt x="134" y="1163" on="1"/>
        <pt x="80" y="1163" on="1"/>
        <pt x="80" y="1456" on="1"/>
      </contour>
    </TTGlyph>
    <TTGlyph name="Tbar.smcp" xMin="71" yMin="0" xMax="1053" yMax="1165">
      <component glyphName="T.smcp" x="0" y="0" flags="0x204"/>
      <component glyphName="crossbar" x="141" y="-48" flags="0x4"/>
    </TTGlyph>
    <TTGlyph name="Tcaron" xMin="80" yMin="0" xMax="1194" yMax="1791">
      <component glyphName="T" x="0" y="0" flags="0x204"/>
      <component glyphName="caron" x="305" y="316" flags="0x4"/>
    </TTGlyph>
    <TTGlyph name="Tcaron.smcp" xMin="71" yMin="0" xMax="1053" yMax="1471">
      <component glyphName="T.smcp" x="0" y="0" flags="0x204"/>
      <component glyphName="caron" x="211" y="-4" flags="0x4"/>
    </TTGlyph>
    <TTGlyph name="Tcommaaccent.smcp" xMin="71" yMin="-497" xMax="1053" yMax="1165">
      <component glyphName="T.smcp" x="0" y="0" flags="0x204"/>
      <component glyphName="commaaccent" x="364" y="-274" flags="0x4"/>
    </TTGlyph>
    <TTGlyph name="Theta" xMin="120" yMin="-21" xMax="1338" yMax="1477">
      <contour>
        <pt x="971" y="691" on="1"/>
        <pt x="380" y="691" on="1"/>
        <pt x="380" y="744" on="1"/>
        <pt x="971" y="744" on="1"/>
      </contour>
      <contour>
        <pt x="1338" y="719" on="1"/>
        <pt x="1338" y="383" on="0"/>
        <pt x="1001" y="-21" on="0"/>
        <pt x="730" y="-21" on="1"/>
        <pt x="458" y="-21" on="0"/>
        <pt x="120" y="384" on="0"/>
        <pt x="120" y="719" on="1"/>
        <pt x="120" y="737" on="1"/>
        <pt x="120" y="1072" on="0"/>
        <pt x="456" y="1477" on="0"/>
        <pt x="728" y="1477" on="1"/>
        <pt x="999" y="1477" on="0"/>
        <pt x="1338" y="1072" on="0"/>
        <pt x="1338" y="737" on="1"/>
      </contour>
      <contour>
        <pt x="1284" y="739" on="1"/>
        <pt x="1284" y="1048" on="0"/>
        <pt x="981" y="1423" on="0"/>
        <pt x="728" y="1423" on="1"/>
        <pt x="476" y="1423" on="0"/>
        <pt x="175" y="1048" on="0"/>
        <pt x="175" y="739" on="1"/>
        <pt x="175" y="719" on="1"/>
        <pt x="175" y="408" on="0"/>
        <pt x="477" y="33" on="0"/>
        <pt x="730" y="33" on="1"/>
        <pt x="983" y="33" on="0"/>
        <pt x="1284" y="408" on="0"/>
        <pt x="1284" y="719" on="1"/>
      </contour>
    </TTGlyph>
    <TTGlyph name="Thorn" xMin="70" yMin="0" xMax="1108" yMax="1456">
      <contour>
        <pt x="70" y="54" on="1"/>
        <pt x="233" y="54" on="1"/>
        <pt x="233" y="1402" on="1"/>
        <pt x="70" y="1402" on="1"/>
        <pt x="70" y="1456" on="1"/>
        <pt x="287" y="1456" on="1"/>
        <pt x="450" y="1456" on="1"/>
        <pt x="450" y="1402" on="1"/>
        <pt x="287" y="1402" on="1"/>
        <pt x="287" y="1143" on="1"/>
        <pt x="658" y="1143" on="1"/>
        <pt x="870" y="1143" on="0"/>
        <pt x="1108" y="917" on="0"/>
        <pt x="1108" y="738" on="1"/>
        <pt x="1108" y="558" on="0"/>
        <pt x="870" y="334" on="0"/>
        <pt x="658" y="334" on="1"/>
        <pt x="287" y="334" on="1"/>
        <pt x="287" y="54" on="1"/>
        <pt x="450" y="54" on="1"/>
        <pt x="450" y="0" on="1"/>
        <pt x="70" y="0" on="1"/>
      </contour>
      <contour>
        <pt x="287" y="1089" on="1"/>
        <pt x="287" y="388" on="1"/>
        <pt x="658" y="388" on="1"/>
        <pt x="853" y="388" on="0"/>
        <pt x="1054" y="596" on="0"/>
        <pt x="1054" y="736" on="1"/>
        <pt x="1054" y="880" on="0"/>
        <pt x="854" y="1089" on="0"/>
        <pt x="658" y="1089" on="1"/>
      </contour>
    </TTGlyph>
    <TTGlyph name="U" xMin="60" yMin="-21" xMax="1381" yMax="1456">
      <contour>
        <pt x="440" y="1456" on="1"/>
        <pt x="440" y="1402" on="1"/>
        <pt x="277" y="1402" on="1"/>
        <pt x="277" y="469" on="1"/>
        <pt x="277" y="264" on="0"/>
        <pt x="525" y="33" on="0"/>
        <pt x="721" y="33" on="1"/>
        <pt x="916" y="33" on="0"/>
        <pt x="1164" y="264" on="0"/>
        <pt x="1164" y="469" on="1"/>
        <pt x="1164" y="1402" on="1"/>
        <pt x="1001" y="1402" on="1"/>
        <pt x="1001" y="1456" on="1"/>
        <pt x="1218" y="1456" on="1"/>
        <pt x="1381" y="1456" on="1"/>
        <pt x="1381" y="1402" on="1"/>
        <pt x="1218" y="1402" on="1"/>
        <pt x="1218" y="469" on="1"/>
        <pt x="1218" y="231" on="0"/>
        <pt x="942" y="-21" on="0"/>
        <pt x="721" y="-21" on="1"/>
        <pt x="498" y="-21" on="0"/>
        <pt x="223" y="232" on="0"/>
        <pt x="223" y="469" on="1"/>
        <pt x="223" y="1402" on="1"/>
        <pt x="60" y="1402" on="1"/>
        <pt x="60" y="1456" on="1"/>
        <pt x="223" y="1456" on="1"/>
        <pt x="277" y="1456" on="1"/>
      </contour>
    </TTGlyph>
    <TTGlyph name="U.smcp" xMin="65" yMin="-17" xMax="1318" yMax="1165">
      <contour>
        <pt x="445" y="1165" on="1"/>
        <pt x="445" y="1111" on="1"/>
        <pt x="282" y="1111" on="1"/>
        <pt x="282" y="391" on="1"/>
        <pt x="282" y="230" on="0"/>
        <pt x="514" y="38" on="0"/>
        <pt x="692" y="38" on="1"/>
        <pt x="869" y="38" on="0"/>
        <pt x="1100" y="229" on="0"/>
        <pt x="1100" y="391" on="1"/>
        <pt x="1100" y="1111" on="1"/>
        <pt x="937" y="1111" on="1"/>
        <pt x="937" y="1165" on="1"/>
        <pt x="1318" y="1165" on="1"/>
        <pt x="1318" y="1111" on="1"/>
        <pt x="1155" y="1111" on="1"/>
        <pt x="1155" y="391" on="1"/>
        <pt x="1155" y="200" on="0"/>
        <pt x="895" y="-17" on="0"/>
        <pt x="692" y="-17" on="1"/>
        <pt x="487" y="-17" on="0"/>
        <pt x="228" y="200" on="0"/>
        <pt x="228" y="391" on="1"/>
        <pt x="228" y="1111" on="1"/>
        <pt x="65" y="1111" on="1"/>
        <pt x="65" y="1165" on="1"/>
        <pt x="228" y="1165" on="1"/>
        <pt x="282" y="1165" on="1"/>
      </contour>
    </TTGlyph>
    <TTGlyph name="Uacute" xMin="60" yMin="-21" xMax="1381" yMax="1801">
      <component glyphName="U" x="0" y="0" flags="0x204"/>
      <component glyphName="acute" x="562" y="323" flags="0x4"/>
    </TTGlyph>
    <TTGlyph name="Uacute.smcp" xMin="65" yMin="-17" xMax="1318" yMax="1491">
      <component glyphName="U.smcp" x="0" y="0" flags="0x204"/>
      <component glyphName="acute" x="521" y="13" flags="0x4"/>
    </TTGlyph>
    <TTGlyph name="Ubreve" xMin="60" yMin="-21" xMax="1381" yMax="1792">
      <component glyphName="U" x="0" y="0" flags="0x204"/>
      <component glyphName="breve" x="329" y="336" flags="0x4"/>
    </TTGlyph>
    <TTGlyph name="Ubreve.smcp" xMin="65" yMin="-17" xMax="1318" yMax="1482">
      <component glyphName="U.smcp" x="0" y="0" flags="0x204"/>
      <component glyphName="breve" x="288" y="26" flags="0x4"/>
    </TTGlyph>
    <TTGlyph name="Ucircumflex" xMin="60" yMin="-21" xMax="1381" yMax="1812">
      <component glyphName="U" x="0" y="0" flags="0x204"/>
      <component glyphName="circumflex" x="375" y="337" flags="0x4"/>
    </TTGlyph>
    <TTGlyph name="Ucircumflex.smcp" xMin="65" yMin="-17" xMax="1318" yMax="1502">
      <component glyphName="U.smcp" x="0" y="0" flags="0x204"/>
      <component glyphName="circumflex" x="334" y="27" flags="0x4"/>
    </TTGlyph>
    <TTGlyph name="Udieresis" xMin="60" yMin="-21" xMax="1381" yMax="1779">
      <component glyphName="U" x="0" y="0" flags="0x204"/>
      <component glyphName="dieresis" x="277" y="323" flags="0x4"/>
    </TTGlyph>
    <TTGlyph name="Udieresis.smcp" xMin="65" yMin="-17" xMax="1318" yMax="1469">
      <component glyphName="U.smcp" x="0" y="0" flags="0x204"/>
      <component glyphName="dieresis" x="236" y="13" flags="0x4"/>
    </TTGlyph>
    <TTGlyph name="Ugrave" xMin="60" yMin="-21" xMax="1381" yMax="1828">
      <component glyphName="U" x="0" y="0" flags="0x204"/>
      <component glyphName="grave" x="382" y="352" flags="0x4"/>
    </TTGlyph>
    <TTGlyph name="Ugrave.smcp" xMin="65" yMin="-17" xMax="1318" yMax="1518">
      <component glyphName="U.smcp" x="0" y="0" flags="0x204"/>
      <component glyphName="grave" x="341" y="42" flags="0x4"/>
    </TTGlyph>
    <TTGlyph name="Uhorn" xMin="60" yMin="-21" xMax="1503" yMax="1551">
      <contour>
        <pt x="1218" y="1456" on="1"/>
        <pt x="1218" y="1258" on="1"/>
        <pt x="1224" y="1256" on="1"/>
        <pt x="1352" y="1257" on="0"/>
        <pt x="1450" y="1401" on="0"/>
        <pt x="1450" y="1551" on="1"/>
        <pt x="1497" y="1551" on="1"/>
        <pt x="1500" y="1546" on="1"/>
        <pt x="1503" y="1376" on="0"/>
        <pt x="1371" y="1201" on="0"/>
        <pt x="1218" y="1194" on="1"/>
        <pt x="1218" y="469" on="1"/>
        <pt x="1218" y="231" on="0"/>
        <pt x="942" y="-21" on="0"/>
        <pt x="721" y="-21" on="1"/>
        <pt x="498" y="-21" on="0"/>
        <pt x="223" y="232" on="0"/>
        <pt x="223" y="469" on="1"/>
        <pt x="223" y="1402" on="1"/>
        <pt x="60" y="1402" on="1"/>
        <pt x="60" y="1456" on="1"/>
        <pt x="223" y="1456" on="1"/>
        <pt x="277" y="1456" on="1"/>
        <pt x="440" y="1456" on="1"/>
        <pt x="440" y="1402" on="1"/>
        <pt x="277" y="1402" on="1"/>
        <pt x="277" y="469" on="1"/>
        <pt x="277" y="264" on="0"/>
        <pt x="525" y="33" on="0"/>
        <pt x="721" y="33" on="1"/>
        <pt x="916" y="33" on="0"/>
        <pt x="1164" y="264" on="0"/>
        <pt x="1164" y="469" on="1"/>
        <pt x="1164" y="1402" on="1"/>
        <pt x="1001" y="1402" on="1"/>
        <pt x="1001" y="1456" on="1"/>
        <pt x="1164" y="1456" on="1"/>
      </contour>
    </TTGlyph>
    <TTGlyph name="Uhungarumlaut" xMin="60" yMin="-21" xMax="1381" yMax="1855">
      <component glyphName="U" x="0" y="0" flags="0x204"/>
      <component glyphName="hungarumlaut" x="391" y="337" flags="0x4"/>
    </TTGlyph>
    <TTGlyph name="Uhungarumlaut.smcp" xMin="65" yMin="-17" xMax="1318" yMax="1545">
      <component glyphName="U.smcp" x="0" y="0" flags="0x204"/>
      <component glyphName="hungarumlaut" x="350" y="27" flags="0x4"/>
    </TTGlyph>
    <TTGlyph name="Umacron" xMin="60" yMin="-21" xMax="1381" yMax="1774">
      <component glyphName="U" x="0" y="0" flags="0x204"/>
      <component glyphName="macron" x="272" y="318" flags="0x4"/>
    </TTGlyph>
    <TTGlyph name="Umacron.smcp" xMin="65" yMin="-17" xMax="1318" yMax="1464">
      <component glyphName="U.smcp" x="0" y="0" flags="0x204"/>
      <component glyphName="macron" x="231" y="8" flags="0x4"/>
    </TTGlyph>
    <TTGlyph name="Uogonek" xMin="60" yMin="-357" xMax="1381" yMax="1456">
      <component glyphName="U" x="0" y="0" flags="0x204"/>
      <component glyphName="ogonek" x="506" y="0" flags="0x4"/>
    </TTGlyph>
    <TTGlyph name="Uogonek.smcp" xMin="65" yMin="-357" xMax="1318" yMax="1165">
      <component glyphName="U.smcp" x="0" y="0" flags="0x204"/>
      <component glyphName="ogonek" x="476" y="0" flags="0x4"/>
    </TTGlyph>
    <TTGlyph name="Upsilon" xMin="55" yMin="0" xMax="1378" yMax="1456">
      <component glyphName="Y" x="0" y="0" flags="0x204"/>
    </TTGlyph>
    <TTGlyph name="Upsilondieresis" xMin="55" yMin="0" xMax="1378" yMax="1780">
      <component glyphName="Y" x="0" y="0" flags="0x204"/>
      <component glyphName="dieresis" x="273" y="324" flags="0x4"/>
    </TTGlyph>
    <TTGlyph name="Upsilontonos" xMin="-154" yMin="0" xMax="1478" yMax="1577">
      <component glyphName="Y" x="100" y="0" flags="0x4"/>
      <component glyphName="tonos" x="-290" y="-1" flags="0x4"/>
    </TTGlyph>
    <TTGlyph name="Uring" xMin="60" yMin="-21" xMax="1381" yMax="1874">
      <component glyphName="U" x="0" y="0" flags="0x204"/>
      <component glyphName="ring" x="453" y="397" flags="0x4"/>
    </TTGlyph>
    <TTGlyph name="Uring.smcp" xMin="65" yMin="-17" xMax="1318" yMax="1564">
      <component glyphName="U.smcp" x="0" y="0" flags="0x204"/>
      <component glyphName="ring" x="412" y="87" flags="0x4"/>
    </TTGlyph>
    <TTGlyph name="Utilde" xMin="60" yMin="-21" xMax="1381" yMax="1799">
      <component glyphName="U" x="0" y="0" flags="0x204"/>
      <component glyphName="tilde" x="310" y="317" flags="0x4"/>
    </TTGlyph>
    <TTGlyph name="Utilde.smcp" xMin="65" yMin="-17" xMax="1318" yMax="1489">
      <component glyphName="U.smcp" x="0" y="0" flags="0x204"/>
      <component glyphName="tilde" x="269" y="7" flags="0x4"/>
    </TTGlyph>
    <TTGlyph name="V" xMin="57" yMin="0" xMax="1385" yMax="1456">
      <contour>
        <pt x="366" y="1402" on="1"/>
        <pt x="223" y="1402" on="1"/>
        <pt x="692" y="142" on="1"/>
        <pt x="718" y="63" on="1"/>
        <pt x="724" y="63" on="1"/>
        <pt x="750" y="142" on="1"/>
        <pt x="1219" y="1402" on="1"/>
        <pt x="1076" y="1402" on="1"/>
        <pt x="1076" y="1456" on="1"/>
        <pt x="1385" y="1456" on="1"/>
        <pt x="1385" y="1402" on="1"/>
        <pt x="1278" y="1402" on="1"/>
        <pt x="754" y="0" on="1"/>
        <pt x="688" y="0" on="1"/>
        <pt x="164" y="1402" on="1"/>
        <pt x="57" y="1402" on="1"/>
        <pt x="57" y="1456" on="1"/>
        <pt x="366" y="1456" on="1"/>
      </contour>
    </TTGlyph>
    <TTGlyph name="V.smcp" xMin="64" yMin="0" xMax="1250" yMax="1165">
      <contour>
        <pt x="374" y="1111" on="1"/>
        <pt x="233" y="1111" on="1"/>
        <pt x="633" y="129" on="1"/>
        <pt x="654" y="65" on="1"/>
        <pt x="660" y="65" on="1"/>
        <pt x="682" y="129" on="1"/>
        <pt x="1082" y="1111" on="1"/>
        <pt x="941" y="1111" on="1"/>
        <pt x="941" y="1165" on="1"/>
        <pt x="1250" y="1165" on="1"/>
        <pt x="1250" y="1111" on="1"/>
        <pt x="1141" y="1111" on="1"/>
        <pt x="687" y="0" on="1"/>
        <pt x="627" y="0" on="1"/>
        <pt x="173" y="1111" on="1"/>
        <pt x="64" y="1111" on="1"/>
        <pt x="64" y="1165" on="1"/>
        <pt x="374" y="1165" on="1"/>
      </contour>
    </TTGlyph>
    <TTGlyph name="W" xMin="57" yMin="0" xMax="1963" yMax="1456">
      <contour>
        <pt x="367" y="1402" on="1"/>
        <pt x="217" y="1402" on="1"/>
        <pt x="486" y="330" on="1"/>
        <pt x="549" y="101" on="1"/>
        <pt x="555" y="101" on="1"/>
        <pt x="618" y="330" on="1"/>
        <pt x="982" y="1456" on="1"/>
        <pt x="1042" y="1456" on="1"/>
        <pt x="1404" y="330" on="1"/>
        <pt x="1466" y="101" on="1"/>
        <pt x="1472" y="101" on="1"/>
        <pt x="1537" y="330" on="1"/>
        <pt x="1803" y="1402" on="1"/>
        <pt x="1654" y="1402" on="1"/>
        <pt x="1654" y="1456" on="1"/>
        <pt x="1963" y="1456" on="1"/>
        <pt x="1963" y="1402" on="1"/>
        <pt x="1862" y="1402" on="1"/>
        <pt x="1504" y="0" on="1"/>
        <pt x="1443" y="0" on="1"/>
        <pt x="1062" y="1214" on="1"/>
        <pt x="1014" y="1359" on="1"/>
        <pt x="1008" y="1359" on="1"/>
        <pt x="962" y="1214" on="1"/>
        <pt x="578" y="0" on="1"/>
        <pt x="517" y="0" on="1"/>
        <pt x="158" y="1402" on="1"/>
        <pt x="57" y="1402" on="1"/>
        <pt x="57" y="1456" on="1"/>
        <pt x="367" y="1456" on="1"/>
      </contour>
    </TTGlyph>
    <TTGlyph name="W.smcp" xMin="67" yMin="0" xMax="1623" yMax="1165">
      <contour>
        <pt x="372" y="1111" on="1"/>
        <pt x="225" y="1111" on="1"/>
        <pt x="465" y="292" on="1"/>
        <pt x="513" y="106" on="1"/>
        <pt x="519" y="106" on="1"/>
        <pt x="562" y="292" on="1"/>
        <pt x="814" y="1165" on="1"/>
        <pt x="875" y="1165" on="1"/>
        <pt x="1130" y="292" on="1"/>
        <pt x="1171" y="104" on="1"/>
        <pt x="1177" y="104" on="1"/>
        <pt x="1228" y="292" on="1"/>
        <pt x="1464" y="1111" on="1"/>
        <pt x="1317" y="1111" on="1"/>
        <pt x="1317" y="1165" on="1"/>
        <pt x="1623" y="1165" on="1"/>
        <pt x="1623" y="1111" on="1"/>
        <pt x="1520" y="1111" on="1"/>
        <pt x="1204" y="0" on="1"/>
        <pt x="1147" y="0" on="1"/>
        <pt x="887" y="926" on="1"/>
        <pt x="848" y="1063" on="1"/>
        <pt x="842" y="1063" on="1"/>
        <pt x="805" y="926" on="1"/>
        <pt x="542" y="0" on="1"/>
        <pt x="484" y="0" on="1"/>
        <pt x="169" y="1111" on="1"/>
        <pt x="67" y="1111" on="1"/>
        <pt x="67" y="1165" on="1"/>
        <pt x="372" y="1165" on="1"/>
      </contour>
    </TTGlyph>
    <TTGlyph name="Wacute" xMin="57" yMin="0" xMax="1963" yMax="1813">
      <component glyphName="W" x="0" y="0" flags="0x204"/>
      <component glyphName="acute" x="852" y="335" flags="0x4"/>
    </TTGlyph>
    <TTGlyph name="Wcircumflex" xMin="57" yMin="0" xMax="1963" yMax="1824">
      <component glyphName="W" x="0" y="0" flags="0x204"/>
      <component glyphName="circumflex" x="665" y="349" flags="0x4"/>
    </TTGlyph>
    <TTGlyph name="Wcircumflex.smcp" xMin="67" yMin="0" xMax="1623" yMax="1501">
      <component glyphName="W.smcp" x="0" y="0" flags="0x204"/>
      <component glyphName="circumflex" x="499" y="26" flags="0x4"/>
    </TTGlyph>
    <TTGlyph name="Wdieresis" xMin="57" yMin="0" xMax="1963" yMax="1791">
      <component glyphName="W" x="0" y="0" flags="0x204"/>
      <component glyphName="dieresis" x="567" y="335" flags="0x4"/>
    </TTGlyph>
    <TTGlyph name="Wgrave" xMin="57" yMin="0" xMax="1963" yMax="1840">
      <component glyphName="W" x="0" y="0" flags="0x204"/>
      <component glyphName="grave" x="672" y="364" flags="0x4"/>
    </TTGlyph>
    <TTGlyph name="X" xMin="63" yMin="0" xMax="1333" yMax="1456">
      <contour>
        <pt x="63" y="54" on="1"/>
        <pt x="178" y="54" on="1"/>
        <pt x="664" y="743" on="1"/>
        <pt x="198" y="1402" on="1"/>
        <pt x="83" y="1402" on="1"/>
        <pt x="83" y="1456" on="1"/>
        <pt x="421" y="1456" on="1"/>
        <pt x="421" y="1402" on="1"/>
        <pt x="265" y="1402" on="1"/>
        <pt x="697" y="785" on="1"/>
        <pt x="1130" y="1402" on="1"/>
        <pt x="975" y="1402" on="1"/>
        <pt x="975" y="1456" on="1"/>
        <pt x="1312" y="1456" on="1"/>
        <pt x="1312" y="1402" on="1"/>
        <pt x="1197" y="1402" on="1"/>
        <pt x="732" y="743" on="1"/>
        <pt x="1218" y="54" on="1"/>
        <pt x="1333" y="54" on="1"/>
        <pt x="1333" y="0" on="1"/>
        <pt x="996" y="0" on="1"/>
        <pt x="996" y="54" on="1"/>
        <pt x="1151" y="54" on="1"/>
        <pt x="697" y="701" on="1"/>
        <pt x="244" y="54" on="1"/>
        <pt x="399" y="54" on="1"/>
        <pt x="399" y="0" on="1"/>
        <pt x="63" y="0" on="1"/>
      </contour>
    </TTGlyph>
    <TTGlyph name="X.smcp" xMin="80" yMin="0" xMax="1229" yMax="1165">
      <contour>
        <pt x="80" y="54" on="1"/>
        <pt x="208" y="54" on="1"/>
        <pt x="621" y="593" on="1"/>
        <pt x="225" y="1111" on="1"/>
        <pt x="97" y="1111" on="1"/>
        <pt x="97" y="1165" on="1"/>
        <pt x="414" y="1165" on="1"/>
        <pt x="414" y="1111" on="1"/>
        <pt x="293" y="1111" on="1"/>
        <pt x="655" y="643" on="1"/>
        <pt x="1017" y="1111" on="1"/>
        <pt x="896" y="1111" on="1"/>
        <pt x="896" y="1165" on="1"/>
        <pt x="1212" y="1165" on="1"/>
        <pt x="1212" y="1111" on="1"/>
        <pt x="1083" y="1111" on="1"/>
        <pt x="688" y="593" on="1"/>
        <pt x="1100" y="54" on="1"/>
        <pt x="1229" y="54" on="1"/>
        <pt x="1229" y="0" on="1"/>
        <pt x="912" y="0" on="1"/>
        <pt x="912" y="54" on="1"/>
        <pt x="1033" y="54" on="1"/>
        <pt x="655" y="543" on="1"/>
        <pt x="277" y="54" on="1"/>
        <pt x="398" y="54" on="1"/>
        <pt x="398" y="0" on="1"/>
        <pt x="80" y="0" on="1"/>
      </contour>
    </TTGlyph>
    <TTGlyph name="Xi" xMin="93" yMin="0" xMax="1118" yMax="1456">
      <contour>
        <pt x="93" y="293" on="1"/>
        <pt x="147" y="293" on="1"/>
        <pt x="147" y="54" on="1"/>
        <pt x="1064" y="54" on="1"/>
        <pt x="1064" y="293" on="1"/>
        <pt x="1118" y="293" on="1"/>
        <pt x="1118" y="0" on="1"/>
        <pt x="93" y="0" on="1"/>
      </contour>
      <contour>
        <pt x="1079" y="1163" on="1"/>
        <pt x="1025" y="1163" on="1"/>
        <pt x="1025" y="1403" on="1"/>
        <pt x="168" y="1403" on="1"/>
        <pt x="168" y="1163" on="1"/>
        <pt x="114" y="1163" on="1"/>
        <pt x="114" y="1456" on="1"/>
        <pt x="1079" y="1456" on="1"/>
      </contour>
      <contour>
        <pt x="301" y="741" on="1"/>
        <pt x="902" y="741" on="1"/>
        <pt x="902" y="687" on="1"/>
        <pt x="301" y="687" on="1"/>
      </contour>
    </TTGlyph>
    <TTGlyph name="Y" xMin="55" yMin="0" xMax="1378" yMax="1456">
      <contour>
        <pt x="371" y="1402" on="1"/>
        <pt x="240" y="1402" on="1"/>
        <pt x="689" y="647" on="1"/>
        <pt x="715" y="597" on="1"/>
        <pt x="742" y="647" on="1"/>
        <pt x="1193" y="1402" on="1"/>
        <pt x="1062" y="1402" on="1"/>
        <pt x="1062" y="1456" on="1"/>
        <pt x="1378" y="1456" on="1"/>
        <pt x="1378" y="1402" on="1"/>
        <pt x="1258" y="1402" on="1"/>
        <pt x="744" y="553" on="1"/>
        <pt x="744" y="54" on="1"/>
        <pt x="907" y="54" on="1"/>
        <pt x="907" y="0" on="1"/>
        <pt x="526" y="0" on="1"/>
        <pt x="526" y="54" on="1"/>
        <pt x="689" y="54" on="1"/>
        <pt x="689" y="553" on="1"/>
        <pt x="174" y="1402" on="1"/>
        <pt x="55" y="1402" on="1"/>
        <pt x="55" y="1456" on="1"/>
        <pt x="371" y="1456" on="1"/>
      </contour>
    </TTGlyph>
    <TTGlyph name="Y.smcp" xMin="64" yMin="0" xMax="1208" yMax="1165">
      <contour>
        <pt x="378" y="1111" on="1"/>
        <pt x="249" y="1111" on="1"/>
        <pt x="619" y="522" on="1"/>
        <pt x="631" y="494" on="1"/>
        <pt x="639" y="494" on="1"/>
        <pt x="652" y="523" on="1"/>
        <pt x="1022" y="1111" on="1"/>
        <pt x="893" y="1111" on="1"/>
        <pt x="893" y="1165" on="1"/>
        <pt x="1208" y="1165" on="1"/>
        <pt x="1208" y="1111" on="1"/>
        <pt x="1087" y="1111" on="1"/>
        <pt x="662" y="434" on="1"/>
        <pt x="662" y="54" on="1"/>
        <pt x="825" y="54" on="1"/>
        <pt x="825" y="0" on="1"/>
        <pt x="445" y="0" on="1"/>
        <pt x="445" y="54" on="1"/>
        <pt x="608" y="54" on="1"/>
        <pt x="608" y="437" on="1"/>
        <pt x="185" y="1111" on="1"/>
        <pt x="64" y="1111" on="1"/>
        <pt x="64" y="1165" on="1"/>
        <pt x="378" y="1165" on="1"/>
      </contour>
    </TTGlyph>
    <TTGlyph name="Yacute" xMin="55" yMin="0" xMax="1378" yMax="1802">
      <component glyphName="Y" x="0" y="0" flags="0x204"/>
      <component glyphName="acute" x="558" y="324" flags="0x4"/>
    </TTGlyph>
    <TTGlyph name="Yacute.smcp" xMin="64" yMin="0" xMax="1208" yMax="1482">
      <component glyphName="Y.smcp" x="0" y="0" flags="0x204"/>
      <component glyphName="acute" x="466" y="4" flags="0x4"/>
    </TTGlyph>
    <TTGlyph name="Ycircumflex" xMin="55" yMin="0" xMax="1378" yMax="1813">
      <component glyphName="Y" x="0" y="0" flags="0x204"/>
      <component glyphName="circumflex" x="371" y="338" flags="0x4"/>
    </TTGlyph>
    <TTGlyph name="Ycircumflex.smcp" xMin="64" yMin="0" xMax="1208" yMax="1493">
      <component glyphName="Y.smcp" x="0" y="0" flags="0x204"/>
      <component glyphName="circumflex" x="279" y="18" flags="0x4"/>
    </TTGlyph>
    <TTGlyph name="Ydieresis" xMin="55" yMin="0" xMax="1378" yMax="1780">
      <component glyphName="Y" x="0" y="0" flags="0x204"/>
      <component glyphName="dieresis" x="273" y="324" flags="0x4"/>
    </TTGlyph>
    <TTGlyph name="Ydieresis.smcp" xMin="64" yMin="0" xMax="1208" yMax="1460">
      <component glyphName="Y.smcp" x="0" y="0" flags="0x204"/>
      <component glyphName="dieresis" x="181" y="4" flags="0x4"/>
    </TTGlyph>
    <TTGlyph name="Ygrave" xMin="55" yMin="0" xMax="1378" yMax="1829">
      <component glyphName="Y" x="0" y="0" flags="0x204"/>
      <component glyphName="grave" x="378" y="353" flags="0x4"/>
    </TTGlyph>
    <TTGlyph name="Z" xMin="92" yMin="0" xMax="1128" yMax="1456">
      <contour>
        <pt x="166" y="54" on="1"/>
        <pt x="1074" y="54" on="1"/>
        <pt x="1074" y="293" on="1"/>
        <pt x="1128" y="293" on="1"/>
        <pt x="1128" y="0" on="1"/>
        <pt x="92" y="0" on="1"/>
        <pt x="92" y="44" on="1"/>
        <pt x="1021" y="1403" on="1"/>
        <pt x="186" y="1403" on="1"/>
        <pt x="186" y="1163" on="1"/>
        <pt x="132" y="1163" on="1"/>
        <pt x="132" y="1456" on="1"/>
        <pt x="1096" y="1456" on="1"/>
        <pt x="1096" y="1418" on="1"/>
      </contour>
    </TTGlyph>
    <TTGlyph name="Z.smcp" xMin="95" yMin="0" xMax="1008" yMax="1165">
      <contour>
        <pt x="173" y="54" on="1"/>
        <pt x="954" y="54" on="1"/>
        <pt x="954" y="293" on="1"/>
        <pt x="1008" y="293" on="1"/>
        <pt x="1008" y="0" on="1"/>
        <pt x="95" y="0" on="1"/>
        <pt x="95" y="46" on="1"/>
        <pt x="903" y="1112" on="1"/>
        <pt x="183" y="1112" on="1"/>
        <pt x="183" y="872" on="1"/>
        <pt x="129" y="872" on="1"/>
        <pt x="129" y="1165" on="1"/>
        <pt x="981" y="1165" on="1"/>
        <pt x="981" y="1124" on="1"/>
      </contour>
    </TTGlyph>
    <TTGlyph name="Zacute" xMin="92" yMin="0" xMax="1128" yMax="1813">
      <component glyphName="Z" x="0" y="0" flags="0x204"/>
      <component glyphName="acute" x="444" y="335" flags="0x4"/>
    </TTGlyph>
    <TTGlyph name="Zacute.smcp" xMin="95" yMin="0" xMax="1008" yMax="1490">
      <component glyphName="Z.smcp" x="0" y="0" flags="0x204"/>
      <component glyphName="acute" x="350" y="12" flags="0x4"/>
    </TTGlyph>
    <TTGlyph name="Zcaron" xMin="92" yMin="0" xMax="1128" yMax="1799">
      <component glyphName="Z" x="0" y="0" flags="0x204"/>
      <component glyphName="caron" x="265" y="324" flags="0x4"/>
    </TTGlyph>
    <TTGlyph name="Zcaron.smcp" xMin="95" yMin="0" xMax="1008" yMax="1476">
      <component glyphName="Z.smcp" x="0" y="0" flags="0x204"/>
      <component glyphName="caron" x="171" y="1" flags="0x4"/>
    </TTGlyph>
    <TTGlyph name="Zdotaccent" xMin="92" yMin="0" xMax="1128" yMax="1776">
      <component glyphName="Z" x="0" y="0" flags="0x204"/>
      <component glyphName="dotaccent" x="411" y="320" flags="0x4"/>
    </TTGlyph>
    <TTGlyph name="Zdotaccent.smcp" xMin="95" yMin="0" xMax="1008" yMax="1454">
      <component glyphName="Z.smcp" x="0" y="0" flags="0x204"/>
      <component glyphName="dotaccent" x="317" y="-2" flags="0x4"/>
    </TTGlyph>
    <TTGlyph name="Zeta" xMin="92" yMin="0" xMax="1128" yMax="1456">
      <component glyphName="Z" x="0" y="0" flags="0x204"/>
    </TTGlyph>
    <TTGlyph name="a" xMin="104" yMin="-21" xMax="1062" yMax="1102">
      <contour>
        <pt x="885" y="0" on="1"/>
        <pt x="872" y="71" on="0"/>
        <pt x="863" y="142" on="0"/>
        <pt x="863" y="183" on="1"/>
        <pt x="863" y="199" on="1"/>
        <pt x="801" y="102" on="0"/>
        <pt x="578" y="-21" on="0"/>
        <pt x="427" y="-21" on="1"/>
        <pt x="277" y="-21" on="0"/>
        <pt x="104" y="142" on="0"/>
        <pt x="104" y="274" on="1"/>
        <pt x="104" y="420" on="0"/>
        <pt x="370" y="604" on="0"/>
        <pt x="594" y="604" on="1"/>
        <pt x="863" y="604" on="1"/>
        <pt x="863" y="762" on="1"/>
        <pt x="863" y="897" on="0"/>
        <pt x="690" y="1048" on="0"/>
        <pt x="533" y="1048" on="1"/>
        <pt x="430" y="1048" on="0"/>
        <pt x="251" y="990" on="0"/>
        <pt x="188" y="939" on="1"/>
        <pt x="187" y="766" on="1"/>
        <pt x="133" y="766" on="1"/>
        <pt x="134" y="972" on="1"/>
        <pt x="211" y="1029" on="0"/>
        <pt x="420" y="1102" on="0"/>
        <pt x="533" y="1102" on="1"/>
        <pt x="707" y="1102" on="0"/>
        <pt x="917" y="926" on="0"/>
        <pt x="917" y="760" on="1"/>
        <pt x="917" y="218" on="1"/>
        <pt x="917" y="176" on="0"/>
        <pt x="924" y="94" on="0"/>
        <pt x="932" y="54" on="1"/>
        <pt x="1062" y="54" on="1"/>
        <pt x="1062" y="0" on="1"/>
      </contour>
      <contour>
        <pt x="427" y="32" on="1"/>
        <pt x="580" y="32" on="0"/>
        <pt x="806" y="170" on="0"/>
        <pt x="863" y="292" on="1"/>
        <pt x="863" y="549" on="1"/>
        <pt x="597" y="549" on="1"/>
        <pt x="398" y="549" on="0"/>
        <pt x="158" y="394" on="0"/>
        <pt x="158" y="270" on="1"/>
        <pt x="158" y="169" on="0"/>
        <pt x="306" y="32" on="0"/>
      </contour>
    </TTGlyph>
    <TTGlyph name="a.ss03" xMin="104" yMin="-21" xMax="1062" yMax="1102">
      <contour>
        <pt x="885" y="0" on="1"/>
        <pt x="872" y="71" on="0"/>
        <pt x="863" y="142" on="0"/>
        <pt x="863" y="183" on="1"/>
        <pt x="863" y="199" on="1"/>
        <pt x="801" y="102" on="0"/>
        <pt x="578" y="-21" on="0"/>
        <pt x="427" y="-21" on="1"/>
        <pt x="277" y="-21" on="0"/>
        <pt x="104" y="142" on="0"/>
        <pt x="104" y="274" on="1"/>
        <pt x="104" y="420" on="0"/>
        <pt x="370" y="604" on="0"/>
        <pt x="594" y="604" on="1"/>
        <pt x="863" y="604" on="1"/>
        <pt x="863" y="762" on="1"/>
        <pt x="863" y="897" on="0"/>
        <pt x="690" y="1048" on="0"/>
        <pt x="533" y="1048" on="1"/>
        <pt x="385" y="1048" on="0"/>
        <pt x="187" y="896" on="0"/>
        <pt x="187" y="784" on="1"/>
        <pt x="142" y="786" on="1"/>
        <pt x="140" y="791" on="1"/>
        <pt x="134" y="916" on="0"/>
        <pt x="361" y="1102" on="0"/>
        <pt x="533" y="1102" on="1"/>
        <pt x="707" y="1102" on="0"/>
        <pt x="917" y="926" on="0"/>
        <pt x="917" y="760" on="1"/>
        <pt x="917" y="218" on="1"/>
        <pt x="917" y="176" on="0"/>
        <pt x="924" y="94" on="0"/>
        <pt x="932" y="54" on="1"/>
        <pt x="1062" y="54" on="1"/>
        <pt x="1062" y="0" on="1"/>
      </contour>
      <contour>
        <pt x="427" y="32" on="1"/>
        <pt x="580" y="32" on="0"/>
        <pt x="806" y="170" on="0"/>
        <pt x="863" y="292" on="1"/>
        <pt x="863" y="549" on="1"/>
        <pt x="597" y="549" on="1"/>
        <pt x="398" y="549" on="0"/>
        <pt x="158" y="394" on="0"/>
        <pt x="158" y="270" on="1"/>
        <pt x="158" y="169" on="0"/>
        <pt x="306" y="32" on="0"/>
      </contour>
    </TTGlyph>
    <TTGlyph name="aacute" xMin="104" yMin="-21" xMax="1062" yMax="1493">
      <component glyphName="a" x="0" y="0" flags="0x204"/>
      <component glyphName="acute" x="369" y="15" flags="0x4"/>
    </TTGlyph>
    <TTGlyph name="abreve" xMin="104" yMin="-21" xMax="1062" yMax="1484">
      <component glyphName="a" x="0" y="0" flags="0x204"/>
      <component glyphName="breve" x="136" y="28" flags="0x4"/>
    </TTGlyph>
    <TTGlyph name="acircumflex" xMin="104" yMin="-21" xMax="1062" yMax="1504">
      <component glyphName="a" x="0" y="0" flags="0x204"/>
      <component glyphName="circumflex" x="182" y="29" flags="0x4"/>
    </TTGlyph>
    <TTGlyph name="acute" xMin="100" yMin="1212" xMax="400" yMax="1478">
      <contour>
        <pt x="320" y="1478" on="1"/>
        <pt x="398" y="1478" on="1"/>
        <pt x="400" y="1473" on="1"/>
        <pt x="169" y="1212" on="1"/>
        <pt x="102" y="1212" on="1"/>
        <pt x="100" y="1217" on="1"/>
      </contour>
    </TTGlyph>
    <TTGlyph name="acutecomb" xMin="118" yMin="1220" xMax="338" yMax="1511">
      <contour>
        <pt x="271" y="1511" on="1"/>
        <pt x="338" y="1511" on="1"/>
        <pt x="179" y="1220" on="1"/>
        <pt x="118" y="1220" on="1"/>
      </contour>
    </TTGlyph>
    <TTGlyph name="adieresis" xMin="104" yMin="-21" xMax="1062" yMax="1471">
      <component glyphName="a" x="0" y="0" flags="0x204"/>
      <component glyphName="dieresis" x="84" y="15" flags="0x4"/>
    </TTGlyph>
    <TTGlyph name="ae" xMin="97" yMin="-21" xMax="1661" yMax="1102">
      <contour>
        <pt x="1272" y="-21" on="1"/>
        <pt x="1129" y="-21" on="0"/>
        <pt x="925" y="111" on="0"/>
        <pt x="872" y="230" on="1"/>
        <pt x="872" y="218" on="1"/>
        <pt x="873" y="218" on="1"/>
        <pt x="829" y="123" on="0"/>
        <pt x="611" y="-21" on="0"/>
        <pt x="452" y="-21" on="1"/>
        <pt x="283" y="-21" on="0"/>
        <pt x="97" y="143" on="0"/>
        <pt x="97" y="284" on="1"/>
        <pt x="97" y="441" on="0"/>
        <pt x="320" y="630" on="0"/>
        <pt x="527" y="630" on="1"/>
        <pt x="817" y="630" on="1"/>
        <pt x="817" y="720" on="1"/>
        <pt x="817" y="878" on="0"/>
        <pt x="671" y="1048" on="0"/>
        <pt x="525" y="1048" on="1"/>
        <pt x="363" y="1048" on="0"/>
        <pt x="178" y="892" on="0"/>
        <pt x="178" y="771" on="1"/>
        <pt x="133" y="777" on="1"/>
        <pt x="131" y="783" on="1"/>
        <pt x="126" y="921" on="0"/>
        <pt x="343" y="1102" on="0"/>
        <pt x="525" y="1102" on="1"/>
        <pt x="663" y="1102" on="0"/>
        <pt x="841" y="955" on="0"/>
        <pt x="864" y="814" on="1"/>
        <pt x="917" y="947" on="0"/>
        <pt x="1125" y="1102" on="0"/>
        <pt x="1257" y="1102" on="1"/>
        <pt x="1445" y="1102" on="0"/>
        <pt x="1661" y="865" on="0"/>
        <pt x="1661" y="660" on="1"/>
        <pt x="1661" y="577" on="1"/>
        <pt x="874" y="577" on="1"/>
        <pt x="874" y="564" on="1"/>
        <pt x="874" y="500" on="1"/>
        <pt x="874" y="292" on="0"/>
        <pt x="1072" y="33" on="0"/>
        <pt x="1272" y="33" on="1"/>
        <pt x="1374" y="33" on="0"/>
        <pt x="1543" y="102" on="0"/>
        <pt x="1604" y="164" on="1"/>
        <pt x="1634" y="122" on="1"/>
        <pt x="1569" y="56" on="0"/>
        <pt x="1402" y="-21" on="0"/>
      </contour>
      <contour>
        <pt x="451" y="31" on="1"/>
        <pt x="581" y="31" on="0"/>
        <pt x="795" y="162" on="0"/>
        <pt x="817" y="225" on="1"/>
        <pt x="817" y="575" on="1"/>
        <pt x="529" y="575" on="1"/>
        <pt x="344" y="575" on="0"/>
        <pt x="152" y="407" on="0"/>
        <pt x="152" y="280" on="1"/>
        <pt x="152" y="163" on="0"/>
        <pt x="307" y="31" on="0"/>
      </contour>
      <contour>
        <pt x="1257" y="1048" on="1"/>
        <pt x="1098" y="1048" on="0"/>
        <pt x="895" y="815" on="0"/>
        <pt x="882" y="637" on="1"/>
        <pt x="884" y="632" on="1"/>
        <pt x="1607" y="632" on="1"/>
        <pt x="1607" y="664" on="1"/>
        <pt x="1607" y="832" on="0"/>
        <pt x="1424" y="1048" on="0"/>
      </contour>
    </TTGlyph>
    <TTGlyph name="aeacute" xMin="97" yMin="-21" xMax="1661" yMax="1492">
      <component glyphName="ae" x="0" y="0" flags="0x204"/>
      <component glyphName="acute" x="694" y="14" flags="0x4"/>
    </TTGlyph>
    <TTGlyph name="agrave" xMin="104" yMin="-21" xMax="1062" yMax="1520">
      <component glyphName="a" x="0" y="0" flags="0x204"/>
      <component glyphName="grave" x="189" y="44" flags="0x4"/>
    </TTGlyph>
    <TTGlyph name="alpha" xMin="104" yMin="-21" xMax="1131" yMax="1102">
      <contour>
        <pt x="932" y="1082" on="1"/>
        <pt x="932" y="255" on="1"/>
        <pt x="932" y="133" on="0"/>
        <pt x="996" y="32" on="0"/>
        <pt x="1055" y="32" on="1"/>
        <pt x="1071" y="32" on="0"/>
        <pt x="1094" y="36" on="0"/>
        <pt x="1120" y="42" on="1"/>
        <pt x="1131" y="-7" on="1"/>
        <pt x="1114" y="-15" on="0"/>
        <pt x="1079" y="-21" on="0"/>
        <pt x="1058" y="-21" on="1"/>
        <pt x="971" y="-21" on="0"/>
        <pt x="884" y="90" on="0"/>
        <pt x="879" y="217" on="1"/>
        <pt x="827" y="108" on="0"/>
        <pt x="640" y="-21" on="0"/>
        <pt x="510" y="-21" on="1"/>
        <pt x="319" y="-21" on="0"/>
        <pt x="104" y="271" on="0"/>
        <pt x="104" y="521" on="1"/>
        <pt x="104" y="542" on="1"/>
        <pt x="104" y="799" on="0"/>
        <pt x="320" y="1102" on="0"/>
        <pt x="512" y="1102" on="1"/>
        <pt x="642" y="1102" on="0"/>
        <pt x="825" y="961" on="0"/>
        <pt x="878" y="837" on="1"/>
        <pt x="878" y="854" on="1"/>
        <pt x="884" y="1082" on="1"/>
      </contour>
      <contour>
        <pt x="160" y="521" on="1"/>
        <pt x="160" y="297" on="0"/>
        <pt x="337" y="33" on="0"/>
        <pt x="509" y="33" on="1"/>
        <pt x="657" y="33" on="0"/>
        <pt x="841" y="202" on="0"/>
        <pt x="878" y="343" on="1"/>
        <pt x="878" y="694" on="1"/>
        <pt x="842" y="836" on="0"/>
        <pt x="661" y="1048" on="0"/>
        <pt x="511" y="1048" on="1"/>
        <pt x="339" y="1048" on="0"/>
        <pt x="160" y="767" on="0"/>
        <pt x="160" y="542" on="1"/>
      </contour>
    </TTGlyph>
    <TTGlyph name="alpha.alt" xMin="122" yMin="-21" xMax="1041" yMax="1102">
      <contour>
        <pt x="918" y="399" on="1"/>
        <pt x="889" y="226" on="0"/>
        <pt x="682" y="-21" on="0"/>
        <pt x="528" y="-21" on="1"/>
        <pt x="337" y="-21" on="0"/>
        <pt x="122" y="271" on="0"/>
        <pt x="122" y="521" on="1"/>
        <pt x="122" y="542" on="1"/>
        <pt x="122" y="799" on="0"/>
        <pt x="338" y="1102" on="0"/>
        <pt x="530" y="1102" on="1"/>
        <pt x="678" y="1102" on="0"/>
        <pt x="877" y="862" on="0"/>
        <pt x="911" y="682" on="1"/>
        <pt x="917" y="684" on="1"/>
        <pt x="974" y="1082" on="1"/>
        <pt x="1034" y="1082" on="1"/>
        <pt x="946" y="540" on="1"/>
        <pt x="1041" y="0" on="1"/>
        <pt x="981" y="0" on="1"/>
      </contour>
      <contour>
        <pt x="178" y="521" on="1"/>
        <pt x="178" y="297" on="0"/>
        <pt x="355" y="33" on="0"/>
        <pt x="527" y="33" on="1"/>
        <pt x="666" y="33" on="0"/>
        <pt x="859" y="275" on="0"/>
        <pt x="886" y="469" on="1"/>
        <pt x="886" y="589" on="1"/>
        <pt x="859" y="764" on="0"/>
        <pt x="684" y="1048" on="0"/>
        <pt x="529" y="1048" on="1"/>
        <pt x="357" y="1048" on="0"/>
        <pt x="178" y="767" on="0"/>
        <pt x="178" y="542" on="1"/>
      </contour>
    </TTGlyph>
    <TTGlyph name="alphatonos" xMin="104" yMin="-21" xMax="1131" yMax="1522">
      <component glyphName="alpha" x="0" y="0" flags="0x204"/>
      <component glyphName="tonos" x="374" y="-56" flags="0x4"/>
    </TTGlyph>
    <TTGlyph name="amacron" xMin="104" yMin="-21" xMax="1062" yMax="1466">
      <component glyphName="a" x="0" y="0" flags="0x204"/>
      <component glyphName="macron" x="79" y="10" flags="0x4"/>
    </TTGlyph>
    <TTGlyph name="ampersand" xMin="74" yMin="-21" xMax="1150" yMax="1477">
      <contour>
        <pt x="381" y="803" on="1"/>
        <pt x="299" y="906" on="0"/>
        <pt x="221" y="1076" on="0"/>
        <pt x="221" y="1167" on="1"/>
        <pt x="221" y="1316" on="0"/>
        <pt x="384" y="1477" on="0"/>
        <pt x="526" y="1477" on="1"/>
        <pt x="658" y="1477" on="0"/>
        <pt x="802" y="1333" on="0"/>
        <pt x="802" y="1215" on="1"/>
        <pt x="802" y="1131" on="0"/>
        <pt x="725" y="1014" on="0"/>
        <pt x="655" y="958" on="1"/>
        <pt x="453" y="797" on="1"/>
        <pt x="928" y="257" on="1"/>
        <pt x="982" y="333" on="0"/>
        <pt x="1043" y="523" on="0"/>
        <pt x="1043" y="632" on="1"/>
        <pt x="1098" y="632" on="1"/>
        <pt x="1098" y="507" on="0"/>
        <pt x="1028" y="302" on="0"/>
        <pt x="965" y="216" on="1"/>
        <pt x="1150" y="5" on="1"/>
        <pt x="1148" y="0" on="1"/>
        <pt x="1088" y="0" on="1"/>
        <pt x="931" y="177" on="1"/>
        <pt x="926" y="172" on="0"/>
        <pt x="920" y="166" on="0"/>
        <pt x="919" y="164" on="1"/>
        <pt x="829" y="75" on="0"/>
        <pt x="632" y="-21" on="0"/>
        <pt x="508" y="-21" on="1"/>
        <pt x="306" y="-21" on="0"/>
        <pt x="74" y="180" on="0"/>
        <pt x="74" y="352" on="1"/>
        <pt x="74" y="466" on="0"/>
        <pt x="209" y="660" on="0"/>
        <pt x="330" y="762" on="1"/>
      </contour>
      <contour>
        <pt x="508" y="33" on="1"/>
        <pt x="618" y="33" on="0"/>
        <pt x="820" y="128" on="0"/>
        <pt x="896" y="216" on="1"/>
        <pt x="447" y="725" on="1"/>
        <pt x="439" y="733" on="0"/>
        <pt x="424" y="751" on="0"/>
        <pt x="413" y="764" on="1"/>
        <pt x="361" y="723" on="1"/>
        <pt x="224" y="605" on="0"/>
        <pt x="128" y="430" on="0"/>
        <pt x="128" y="352" on="1"/>
        <pt x="128" y="218" on="0"/>
        <pt x="324" y="33" on="0"/>
      </contour>
      <contour>
        <pt x="276" y="1169" on="1"/>
        <pt x="276" y="1090" on="0"/>
        <pt x="346" y="922" on="0"/>
        <pt x="421" y="834" on="1"/>
        <pt x="630" y="1000" on="1"/>
        <pt x="690" y="1050" on="0"/>
        <pt x="746" y="1157" on="0"/>
        <pt x="746" y="1215" on="1"/>
        <pt x="746" y="1309" on="0"/>
        <pt x="633" y="1423" on="0"/>
        <pt x="526" y="1423" on="1"/>
        <pt x="406" y="1423" on="0"/>
        <pt x="276" y="1278" on="0"/>
      </contour>
    </TTGlyph>
    <TTGlyph name="anoteleia" xMin="159" yMin="624" xMax="277" yMax="776">
      <component glyphName="periodcentered" x="0" y="0" flags="0x4"/>
    </TTGlyph>
    <TTGlyph name="aogonek" xMin="104" yMin="-357" xMax="1124" yMax="1102">
      <component glyphName="a" x="0" y="0" flags="0x204"/>
      <component glyphName="ogonek" x="806" y="0" flags="0x4"/>
    </TTGlyph>
    <TTGlyph name="approxequal" xMin="101" yMin="383" xMax="1042" yMax="987">
      <contour>
        <pt x="111" y="837" on="1"/>
        <pt x="158" y="905" on="0"/>
        <pt x="282" y="983" on="0"/>
        <pt x="347" y="983" on="1"/>
        <pt x="416" y="984" on="0"/>
        <pt x="480" y="960" on="0"/>
        <pt x="581" y="910" on="1"/>
        <pt x="676" y="861" on="0"/>
        <pt x="738" y="837" on="0"/>
        <pt x="803" y="837" on="1"/>
        <pt x="866" y="837" on="0"/>
        <pt x="986" y="916" on="0"/>
        <pt x="1035" y="987" on="1"/>
        <pt x="1042" y="921" on="1"/>
        <pt x="994" y="852" on="0"/>
        <pt x="870" y="775" on="0"/>
        <pt x="806" y="775" on="1"/>
        <pt x="740" y="775" on="0"/>
        <pt x="674" y="800" on="0"/>
        <pt x="588" y="844" on="1"/>
        <pt x="477" y="899" on="0"/>
        <pt x="418" y="922" on="0"/>
        <pt x="350" y="921" on="1"/>
        <pt x="286" y="921" on="0"/>
        <pt x="166" y="841" on="0"/>
        <pt x="118" y="771" on="1"/>
      </contour>
      <contour>
        <pt x="101" y="447" on="1"/>
        <pt x="148" y="515" on="0"/>
        <pt x="272" y="593" on="0"/>
        <pt x="337" y="593" on="1"/>
        <pt x="406" y="594" on="0"/>
        <pt x="470" y="570" on="0"/>
        <pt x="571" y="520" on="1"/>
        <pt x="666" y="471" on="0"/>
        <pt x="728" y="447" on="0"/>
        <pt x="793" y="447" on="1"/>
        <pt x="856" y="447" on="0"/>
        <pt x="976" y="526" on="0"/>
        <pt x="1025" y="597" on="1"/>
        <pt x="1031" y="533" on="1"/>
        <pt x="983" y="464" on="0"/>
        <pt x="859" y="387" on="0"/>
        <pt x="795" y="387" on="1"/>
        <pt x="729" y="387" on="0"/>
        <pt x="663" y="412" on="0"/>
        <pt x="577" y="456" on="1"/>
        <pt x="466" y="511" on="0"/>
        <pt x="407" y="534" on="0"/>
        <pt x="339" y="533" on="1"/>
        <pt x="275" y="533" on="0"/>
        <pt x="155" y="453" on="0"/>
        <pt x="107" y="383" on="1"/>
      </contour>
    </TTGlyph>
    <TTGlyph name="aring" xMin="104" yMin="-21" xMax="1062" yMax="1566">
      <component glyphName="a" x="0" y="0" flags="0x204"/>
      <component glyphName="ring" x="260" y="89" flags="0x4"/>
    </TTGlyph>
    <TTGlyph name="aringacute" xMin="104" yMin="-21" xMax="1062" yMax="1611">
      <component glyphName="a" x="0" y="0" flags="0x204"/>
      <component glyphName="ringacute" x="266" y="-87" flags="0x4"/>
    </TTGlyph>
    <TTGlyph name="asciicircum" xMin="71" yMin="729" xMax="721" yMax="1456">
      <contour>
        <pt x="130" y="729" on="1"/>
        <pt x="71" y="729" on="1"/>
        <pt x="370" y="1456" on="1"/>
        <pt x="422" y="1456" on="1"/>
        <pt x="721" y="729" on="1"/>
        <pt x="660" y="729" on="1"/>
        <pt x="438" y="1272" on="1"/>
        <pt x="398" y="1386" on="1"/>
        <pt x="392" y="1386" on="1"/>
        <pt x="349" y="1272" on="1"/>
      </contour>
    </TTGlyph>
    <TTGlyph name="asciitilde" xMin="121" yMin="443" xMax="1216" yMax="774">
      <contour>
        <pt x="1216" y="740" on="1"/>
        <pt x="1216" y="619" on="0"/>
        <pt x="1065" y="443" on="0"/>
        <pt x="952" y="443" on="1"/>
        <pt x="865" y="443" on="0"/>
        <pt x="722" y="519" on="0"/>
        <pt x="631" y="602" on="1"/>
        <pt x="563" y="661" on="0"/>
        <pt x="444" y="720" on="0"/>
        <pt x="383" y="720" on="1"/>
        <pt x="294" y="720" on="0"/>
        <pt x="180" y="584" on="0"/>
        <pt x="180" y="462" on="1"/>
        <pt x="121" y="474" on="1"/>
        <pt x="121" y="602" on="0"/>
        <pt x="268" y="774" on="0"/>
        <pt x="383" y="774" on="1"/>
        <pt x="469" y="774" on="0"/>
        <pt x="614" y="695" on="0"/>
        <pt x="706" y="614" on="1"/>
        <pt x="773" y="552" on="0"/>
        <pt x="889" y="496" on="0"/>
        <pt x="952" y="496" on="1"/>
        <pt x="1038" y="496" on="0"/>
        <pt x="1155" y="637" on="0"/>
        <pt x="1155" y="753" on="1"/>
      </contour>
    </TTGlyph>
    <TTGlyph name="asterisk" xMin="66" yMin="661" xMax="868" yMax="1456">
      <contour>
        <pt x="429" y="1017" on="1"/>
        <pt x="66" y="1141" on="1"/>
        <pt x="84" y="1195" on="1"/>
        <pt x="446" y="1062" on="1"/>
        <pt x="447" y="1456" on="1"/>
        <pt x="503" y="1456" on="1"/>
        <pt x="496" y="1061" on="1"/>
        <pt x="848" y="1204" on="1"/>
        <pt x="868" y="1151" on="1"/>
        <pt x="508" y="1014" on="1"/>
        <pt x="757" y="697" on="1"/>
        <pt x="710" y="664" on="1"/>
        <pt x="468" y="986" on="1"/>
        <pt x="240" y="661" on="1"/>
        <pt x="195" y="693" on="1"/>
      </contour>
    </TTGlyph>
    <TTGlyph name="at" xMin="67" yMin="-453" xMax="1741" yMax="1411">
      <contour>
        <pt x="1724" y="523" on="1"/>
        <pt x="1714" y="304" on="0"/>
        <pt x="1506" y="-21" on="0"/>
        <pt x="1314" y="-21" on="1"/>
        <pt x="1231" y="-21" on="0"/>
        <pt x="1127" y="101" on="0"/>
        <pt x="1118" y="209" on="1"/>
        <pt x="1063" y="95" on="0"/>
        <pt x="895" y="-21" on="0"/>
        <pt x="786" y="-21" on="1"/>
        <pt x="650" y="-21" on="0"/>
        <pt x="516" y="217" on="0"/>
        <pt x="535" y="416" on="1"/>
        <pt x="558" y="666" on="0"/>
        <pt x="800" y="968" on="0"/>
        <pt x="972" y="968" on="1"/>
        <pt x="1055" y="968" on="0"/>
        <pt x="1159" y="913" on="0"/>
        <pt x="1222" y="858" on="1"/>
        <pt x="1173" y="293" on="1"/>
        <pt x="1162" y="141" on="0"/>
        <pt x="1257" y="34" on="0"/>
        <pt x="1317" y="34" on="1"/>
        <pt x="1475" y="34" on="0"/>
        <pt x="1656" y="303" on="0"/>
        <pt x="1667" y="523" on="1"/>
        <pt x="1687" y="919" on="0"/>
        <pt x="1339" y="1354" on="0"/>
        <pt x="954" y="1354" on="1"/>
        <pt x="618" y="1354" on="0"/>
        <pt x="161" y="875" on="0"/>
        <pt x="141" y="478" on="1"/>
        <pt x="121" y="95" on="0"/>
        <pt x="510" y="-398" on="0"/>
        <pt x="867" y="-398" on="1"/>
        <pt x="954" y="-398" on="0"/>
        <pt x="1135" y="-354" on="0"/>
        <pt x="1197" y="-318" on="1"/>
        <pt x="1221" y="-364" on="1"/>
        <pt x="1159" y="-404" on="0"/>
        <pt x="955" y="-453" on="0"/>
        <pt x="863" y="-453" on="1"/>
        <pt x="483" y="-453" on="0"/>
        <pt x="67" y="46" on="0"/>
        <pt x="86" y="478" on="1"/>
        <pt x="104" y="905" on="0"/>
        <pt x="579" y="1411" on="0"/>
        <pt x="958" y="1411" on="1"/>
        <pt x="1360" y="1411" on="0"/>
        <pt x="1741" y="943" on="0"/>
      </contour>
      <contour>
        <pt x="589" y="416" on="1"/>
        <pt x="570" y="249" on="0"/>
        <pt x="671" y="33" on="0"/>
        <pt x="784" y="33" on="1"/>
        <pt x="892" y="33" on="0"/>
        <pt x="1064" y="166" on="0"/>
        <pt x="1122" y="345" on="1"/>
        <pt x="1164" y="831" on="1"/>
        <pt x="1130" y="870" on="0"/>
        <pt x="1033" y="913" on="0"/>
        <pt x="969" y="913" on="1"/>
        <pt x="827" y="913" on="0"/>
        <pt x="615" y="660" on="0"/>
      </contour>
    </TTGlyph>
    <TTGlyph name="atilde" xMin="104" yMin="-21" xMax="1062" yMax="1491">
      <component glyphName="a" x="0" y="0" flags="0x204"/>
      <component glyphName="tilde" x="117" y="9" flags="0x4"/>
    </TTGlyph>
    <TTGlyph name="b" xMin="-8" yMin="-21" xMax="984" yMax="1560">
      <contour>
        <pt x="984" y="521" on="1"/>
        <pt x="984" y="271" on="0"/>
        <pt x="768" y="-21" on="0"/>
        <pt x="578" y="-21" on="1"/>
        <pt x="449" y="-21" on="0"/>
        <pt x="260" y="84" on="0"/>
        <pt x="207" y="173" on="1"/>
        <pt x="200" y="0" on="1"/>
        <pt x="155" y="0" on="1"/>
        <pt x="155" y="1506" on="1"/>
        <pt x="-8" y="1506" on="1"/>
        <pt x="-8" y="1560" on="1"/>
        <pt x="209" y="1560" on="1"/>
        <pt x="209" y="885" on="1"/>
        <pt x="263" y="986" on="0"/>
        <pt x="447" y="1102" on="0"/>
        <pt x="576" y="1102" on="1"/>
        <pt x="767" y="1102" on="0"/>
        <pt x="984" y="799" on="0"/>
        <pt x="984" y="542" on="1"/>
      </contour>
      <contour>
        <pt x="928" y="542" on="1"/>
        <pt x="928" y="767" on="0"/>
        <pt x="748" y="1048" on="0"/>
        <pt x="577" y="1048" on="1"/>
        <pt x="419" y="1048" on="0"/>
        <pt x="246" y="887" on="0"/>
        <pt x="209" y="770" on="1"/>
        <pt x="209" y="274" on="1"/>
        <pt x="248" y="164" on="0"/>
        <pt x="435" y="33" on="0"/>
        <pt x="579" y="33" on="1"/>
        <pt x="750" y="33" on="0"/>
        <pt x="928" y="297" on="0"/>
        <pt x="928" y="521" on="1"/>
      </contour>
    </TTGlyph>
    <TTGlyph name="backslash" xMin="36" yMin="-125" xMax="702" yMax="1456">
      <contour>
        <pt x="36" y="1456" on="1"/>
        <pt x="94" y="1456" on="1"/>
        <pt x="702" y="-125" on="1"/>
        <pt x="644" y="-125" on="1"/>
      </contour>
    </TTGlyph>
    <TTGlyph name="bar" xMin="150" yMin="-270" xMax="204" yMax="1456">
      <contour>
        <pt x="204" y="-270" on="1"/>
        <pt x="150" y="-270" on="1"/>
        <pt x="150" y="1456" on="1"/>
        <pt x="204" y="1456" on="1"/>
      </contour>
    </TTGlyph>
    <TTGlyph name="beta" xMin="143" yMin="-413" xMax="1029" yMax="1477">
      <contour>
        <pt x="533" y="1477" on="1"/>
        <pt x="709" y="1477" on="0"/>
        <pt x="924" y="1268" on="0"/>
        <pt x="924" y="1103" on="1"/>
        <pt x="924" y="990" on="0"/>
        <pt x="812" y="812" on="0"/>
        <pt x="710" y="770" on="1"/>
        <pt x="866" y="737" on="0"/>
        <pt x="1029" y="530" on="0"/>
        <pt x="1029" y="385" on="1"/>
        <pt x="1029" y="194" on="0"/>
        <pt x="785" y="-21" on="0"/>
        <pt x="584" y="-21" on="1"/>
        <pt x="475" y="-21" on="0"/>
        <pt x="259" y="66" on="0"/>
        <pt x="199" y="148" on="1"/>
        <pt x="199" y="-413" on="1"/>
        <pt x="145" y="-413" on="1"/>
        <pt x="145" y="284" on="1"/>
        <pt x="144" y="295" on="0"/>
        <pt x="143" y="310" on="0"/>
        <pt x="143" y="318" on="1"/>
        <pt x="145" y="319" on="1"/>
        <pt x="145" y="1054" on="1"/>
        <pt x="145" y="1236" on="0"/>
        <pt x="371" y="1477" on="0"/>
      </contour>
      <contour>
        <pt x="529" y="791" on="1"/>
        <pt x="704" y="791" on="0"/>
        <pt x="870" y="955" on="0"/>
        <pt x="870" y="1108" on="1"/>
        <pt x="870" y="1237" on="0"/>
        <pt x="697" y="1423" on="0"/>
        <pt x="533" y="1423" on="1"/>
        <pt x="391" y="1423" on="0"/>
        <pt x="199" y="1213" on="0"/>
        <pt x="199" y="1054" on="1"/>
        <pt x="199" y="244" on="1"/>
        <pt x="238" y="149" on="0"/>
        <pt x="452" y="33" on="0"/>
        <pt x="584" y="33" on="1"/>
        <pt x="773" y="33" on="0"/>
        <pt x="974" y="216" on="0"/>
        <pt x="974" y="381" on="1"/>
        <pt x="974" y="547" on="0"/>
        <pt x="764" y="735" on="0"/>
        <pt x="569" y="735" on="1"/>
        <pt x="426" y="735" on="1"/>
        <pt x="426" y="791" on="1"/>
      </contour>
    </TTGlyph>
    <TTGlyph name="braceleft" xMin="63" yMin="-441" xMax="652" yMax="1597">
      <contour>
        <pt x="632" y="-441" on="1"/>
        <pt x="459" y="-386" on="0"/>
        <pt x="313" y="-150" on="0"/>
        <pt x="313" y="20" on="1"/>
        <pt x="313" y="265" on="1"/>
        <pt x="313" y="397" on="0"/>
        <pt x="191" y="543" on="0"/>
        <pt x="63" y="543" on="1"/>
        <pt x="63" y="609" on="1"/>
        <pt x="191" y="609" on="0"/>
        <pt x="313" y="753" on="0"/>
        <pt x="313" y="885" on="1"/>
        <pt x="313" y="1132" on="1"/>
        <pt x="313" y="1303" on="0"/>
        <pt x="459" y="1542" on="0"/>
        <pt x="632" y="1597" on="1"/>
        <pt x="647" y="1552" on="1"/>
        <pt x="504" y="1506" on="0"/>
        <pt x="367" y="1287" on="0"/>
        <pt x="367" y="1132" on="1"/>
        <pt x="367" y="885" on="1"/>
        <pt x="367" y="765" on="0"/>
        <pt x="263" y="601" on="0"/>
        <pt x="156" y="576" on="1"/>
        <pt x="263" y="550" on="0"/>
        <pt x="367" y="384" on="0"/>
        <pt x="367" y="265" on="1"/>
        <pt x="367" y="20" on="1"/>
        <pt x="367" y="-134" on="0"/>
        <pt x="508" y="-346" on="0"/>
        <pt x="652" y="-395" on="1"/>
      </contour>
    </TTGlyph>
    <TTGlyph name="braceright" xMin="27" yMin="-441" xMax="615" yMax="1597">
      <contour>
        <pt x="27" y="-395" on="1"/>
        <pt x="170" y="-346" on="0"/>
        <pt x="311" y="-134" on="0"/>
        <pt x="311" y="20" on="1"/>
        <pt x="311" y="265" on="1"/>
        <pt x="311" y="384" on="0"/>
        <pt x="414" y="550" on="0"/>
        <pt x="522" y="576" on="1"/>
        <pt x="414" y="601" on="0"/>
        <pt x="311" y="765" on="0"/>
        <pt x="311" y="885" on="1"/>
        <pt x="311" y="1132" on="1"/>
        <pt x="311" y="1287" on="0"/>
        <pt x="174" y="1506" on="0"/>
        <pt x="32" y="1552" on="1"/>
        <pt x="46" y="1597" on="1"/>
        <pt x="218" y="1542" on="0"/>
        <pt x="365" y="1303" on="0"/>
        <pt x="365" y="1132" on="1"/>
        <pt x="365" y="885" on="1"/>
        <pt x="365" y="753" on="0"/>
        <pt x="487" y="609" on="0"/>
        <pt x="615" y="609" on="1"/>
        <pt x="615" y="543" on="1"/>
        <pt x="487" y="543" on="0"/>
        <pt x="365" y="396" on="0"/>
        <pt x="365" y="265" on="1"/>
        <pt x="365" y="20" on="1"/>
        <pt x="365" y="-151" on="0"/>
        <pt x="219" y="-386" on="0"/>
        <pt x="46" y="-441" on="1"/>
      </contour>
    </TTGlyph>
    <TTGlyph name="bracketleft" xMin="157" yMin="-312" xMax="440" yMax="1664">
      <contour>
        <pt x="440" y="1610" on="1"/>
        <pt x="211" y="1610" on="1"/>
        <pt x="211" y="-258" on="1"/>
        <pt x="440" y="-258" on="1"/>
        <pt x="440" y="-312" on="1"/>
        <pt x="157" y="-312" on="1"/>
        <pt x="157" y="1664" on="1"/>
        <pt x="440" y="1664" on="1"/>
      </contour>
    </TTGlyph>
    <TTGlyph name="bracketright" xMin="23" yMin="-312" xMax="306" yMax="1664">
      <contour>
        <pt x="23" y="1664" on="1"/>
        <pt x="306" y="1664" on="1"/>
        <pt x="306" y="-312" on="1"/>
        <pt x="23" y="-312" on="1"/>
        <pt x="23" y="-258" on="1"/>
        <pt x="251" y="-258" on="1"/>
        <pt x="251" y="1610" on="1"/>
        <pt x="23" y="1610" on="1"/>
      </contour>
    </TTGlyph>
    <TTGlyph name="breve" xMin="120" yMin="1208" xMax="674" yMax="1456">
      <contour>
        <pt x="668" y="1456" on="1"/>
        <pt x="670" y="1450" on="1"/>
        <pt x="674" y="1343" on="0"/>
        <pt x="526" y="1208" on="0"/>
        <pt x="398" y="1208" on="1"/>
        <pt x="269" y="1208" on="0"/>
        <pt x="120" y="1343" on="0"/>
        <pt x="125" y="1450" on="1"/>
        <pt x="127" y="1456" on="1"/>
        <pt x="173" y="1456" on="1"/>
        <pt x="173" y="1370" on="0"/>
        <pt x="281" y="1264" on="0"/>
        <pt x="398" y="1264" on="1"/>
        <pt x="510" y="1264" on="0"/>
        <pt x="622" y="1372" on="0"/>
        <pt x="622" y="1456" on="1"/>
      </contour>
    </TTGlyph>
    <TTGlyph name="breveacutecomb" xMin="105" yMin="1248" xMax="665" yMax="1637">
      <contour>
        <pt x="657" y="1456" on="1"/>
        <pt x="659" y="1450" on="1"/>
        <pt x="665" y="1361" on="0"/>
        <pt x="515" y="1248" on="0"/>
        <pt x="386" y="1248" on="1"/>
        <pt x="255" y="1248" on="0"/>
        <pt x="105" y="1361" on="0"/>
        <pt x="112" y="1450" on="1"/>
        <pt x="114" y="1456" on="1"/>
        <pt x="158" y="1456" on="1"/>
        <pt x="158" y="1383" on="0"/>
        <pt x="268" y="1294" on="0"/>
        <pt x="386" y="1294" on="1"/>
        <pt x="499" y="1294" on="0"/>
        <pt x="612" y="1385" on="0"/>
        <pt x="612" y="1456" on="1"/>
      </contour>
      <contour>
        <pt x="488" y="1637" on="1"/>
        <pt x="546" y="1637" on="1"/>
        <pt x="549" y="1632" on="1"/>
        <pt x="377" y="1424" on="1"/>
        <pt x="322" y="1424" on="1"/>
      </contour>
    </TTGlyph>
    <TTGlyph name="brevegravecomb" xMin="111" yMin="1230" xMax="706" yMax="1663">
      <contour>
        <pt x="699" y="1456" on="1"/>
        <pt x="701" y="1450" on="1"/>
        <pt x="706" y="1353" on="0"/>
        <pt x="547" y="1230" on="0"/>
        <pt x="410" y="1230" on="1"/>
        <pt x="272" y="1230" on="0"/>
        <pt x="111" y="1354" on="0"/>
        <pt x="118" y="1450" on="1"/>
        <pt x="119" y="1456" on="1"/>
        <pt x="165" y="1456" on="1"/>
        <pt x="165" y="1379" on="0"/>
        <pt x="282" y="1285" on="0"/>
        <pt x="410" y="1285" on="1"/>
        <pt x="532" y="1285" on="0"/>
        <pt x="654" y="1381" on="0"/>
        <pt x="654" y="1456" on="1"/>
      </contour>
      <contour>
        <pt x="478" y="1437" on="1"/>
        <pt x="395" y="1437" on="1"/>
        <pt x="219" y="1663" on="1"/>
        <pt x="313" y="1663" on="1"/>
      </contour>
    </TTGlyph>
    <TTGlyph name="brevehookcomb" xMin="112" yMin="1252" xMax="656" yMax="1767">
      <contour>
        <pt x="603" y="1456" on="1"/>
        <pt x="603" y="1387" on="0"/>
        <pt x="494" y="1298" on="0"/>
        <pt x="385" y="1298" on="1"/>
        <pt x="270" y="1298" on="0"/>
        <pt x="164" y="1385" on="0"/>
        <pt x="164" y="1456" on="1"/>
        <pt x="121" y="1456" on="1"/>
        <pt x="119" y="1450" on="1"/>
        <pt x="112" y="1363" on="0"/>
        <pt x="258" y="1252" on="0"/>
        <pt x="385" y="1252" on="1"/>
        <pt x="510" y="1252" on="0"/>
        <pt x="656" y="1363" on="0"/>
        <pt x="650" y="1450" on="1"/>
        <pt x="648" y="1456" on="1"/>
      </contour>
      <contour>
        <pt x="364" y="1439" on="1"/>
        <pt x="364" y="1528" on="1"/>
        <pt x="461" y="1534" on="0"/>
        <pt x="546" y="1578" on="0"/>
        <pt x="546" y="1628" on="1"/>
        <pt x="546" y="1677" on="0"/>
        <pt x="410" y="1724" on="0"/>
        <pt x="319" y="1724" on="1"/>
        <pt x="326" y="1767" on="1"/>
        <pt x="448" y="1767" on="0"/>
        <pt x="600" y="1693" on="0"/>
        <pt x="600" y="1628" on="1"/>
        <pt x="600" y="1560" on="0"/>
        <pt x="496" y="1492" on="0"/>
        <pt x="410" y="1486" on="1"/>
        <pt x="410" y="1439" on="1"/>
      </contour>
    </TTGlyph>
    <TTGlyph name="brevetildecomb" xMin="112" yMin="1224" xMax="635" yMax="1676">
      <contour>
        <pt x="626" y="1437" on="1"/>
        <pt x="628" y="1431" on="1"/>
        <pt x="633" y="1340" on="0"/>
        <pt x="493" y="1224" on="0"/>
        <pt x="373" y="1224" on="1"/>
        <pt x="251" y="1224" on="0"/>
        <pt x="112" y="1340" on="0"/>
        <pt x="118" y="1431" on="1"/>
        <pt x="120" y="1437" on="1"/>
        <pt x="165" y="1437" on="1"/>
        <pt x="165" y="1363" on="0"/>
        <pt x="265" y="1272" on="0"/>
        <pt x="373" y="1272" on="1"/>
        <pt x="476" y="1272" on="0"/>
        <pt x="579" y="1365" on="0"/>
        <pt x="579" y="1437" on="1"/>
      </contour>
      <contour>
        <pt x="635" y="1666" on="1"/>
        <pt x="635" y="1602" on="0"/>
        <pt x="546" y="1522" on="0"/>
        <pt x="480" y="1522" on="1"/>
        <pt x="423" y="1522" on="0"/>
        <pt x="309" y="1611" on="0"/>
        <pt x="269" y="1611" on="1"/>
        <pt x="223" y="1611" on="0"/>
        <pt x="162" y="1558" on="0"/>
        <pt x="162" y="1514" on="1"/>
        <pt x="114" y="1523" on="1"/>
        <pt x="114" y="1584" on="0"/>
        <pt x="202" y="1661" on="0"/>
        <pt x="269" y="1661" on="1"/>
        <pt x="321" y="1661" on="0"/>
        <pt x="440" y="1570" on="0"/>
        <pt x="480" y="1570" on="1"/>
        <pt x="524" y="1570" on="0"/>
        <pt x="587" y="1629" on="0"/>
        <pt x="587" y="1676" on="1"/>
      </contour>
    </TTGlyph>
    <TTGlyph name="brokenbar" xMin="150" yMin="-270" xMax="204" yMax="1456">
      <contour>
        <pt x="150" y="-270" on="1"/>
        <pt x="150" y="482" on="1"/>
        <pt x="204" y="482" on="1"/>
        <pt x="204" y="-270" on="1"/>
      </contour>
      <contour>
        <pt x="204" y="698" on="1"/>
        <pt x="150" y="698" on="1"/>
        <pt x="150" y="1456" on="1"/>
        <pt x="204" y="1456" on="1"/>
      </contour>
    </TTGlyph>
    <TTGlyph name="bullet" xMin="135" yMin="545" xMax="469" yMax="933">
      <contour>
        <pt x="135" y="773" on="1"/>
        <pt x="135" y="843" on="0"/>
        <pt x="225" y="933" on="0"/>
        <pt x="301" y="933" on="1"/>
        <pt x="377" y="933" on="0"/>
        <pt x="469" y="842" on="0"/>
        <pt x="469" y="773" on="1"/>
        <pt x="469" y="703" on="1"/>
        <pt x="469" y="633" on="0"/>
        <pt x="378" y="545" on="0"/>
        <pt x="302" y="545" on="1"/>
        <pt x="225" y="545" on="0"/>
        <pt x="135" y="633" on="0"/>
        <pt x="135" y="703" on="1"/>
      </contour>
    </TTGlyph>
    <TTGlyph name="c" xMin="104" yMin="-21" xMax="945" yMax="1102">
      <contour>
        <pt x="546" y="33" on="1"/>
        <pt x="683" y="33" on="0"/>
        <pt x="893" y="183" on="0"/>
        <pt x="893" y="333" on="1"/>
        <pt x="939" y="333" on="1"/>
        <pt x="941" y="327" on="1"/>
        <pt x="945" y="168" on="0"/>
        <pt x="704" y="-21" on="0"/>
        <pt x="546" y="-21" on="1"/>
        <pt x="339" y="-21" on="0"/>
        <pt x="104" y="277" on="0"/>
        <pt x="104" y="520" on="1"/>
        <pt x="104" y="562" on="1"/>
        <pt x="104" y="804" on="0"/>
        <pt x="338" y="1102" on="0"/>
        <pt x="544" y="1102" on="1"/>
        <pt x="666" y="1102" on="0"/>
        <pt x="874" y="1001" on="0"/>
        <pt x="937" y="915" on="1"/>
        <pt x="937" y="683" on="1"/>
        <pt x="883" y="683" on="1"/>
        <pt x="883" y="895" on="1"/>
        <pt x="826" y="965" on="0"/>
        <pt x="653" y="1048" on="0"/>
        <pt x="544" y="1048" on="1"/>
        <pt x="354" y="1048" on="0"/>
        <pt x="158" y="776" on="0"/>
        <pt x="158" y="562" on="1"/>
        <pt x="158" y="520" on="1"/>
        <pt x="158" y="304" on="0"/>
        <pt x="354" y="33" on="0"/>
      </contour>
    </TTGlyph>
    <TTGlyph name="c.ss03" xMin="104" yMin="-21" xMax="945" yMax="1102">
      <contour>
        <pt x="546" y="33" on="1"/>
        <pt x="683" y="33" on="0"/>
        <pt x="893" y="183" on="0"/>
        <pt x="893" y="333" on="1"/>
        <pt x="939" y="333" on="1"/>
        <pt x="941" y="327" on="1"/>
        <pt x="945" y="168" on="0"/>
        <pt x="704" y="-21" on="0"/>
        <pt x="546" y="-21" on="1"/>
        <pt x="339" y="-21" on="0"/>
        <pt x="104" y="277" on="0"/>
        <pt x="104" y="520" on="1"/>
        <pt x="104" y="562" on="1"/>
        <pt x="104" y="804" on="0"/>
        <pt x="338" y="1102" on="0"/>
        <pt x="544" y="1102" on="1"/>
        <pt x="712" y="1102" on="0"/>
        <pt x="945" y="905" on="0"/>
        <pt x="941" y="726" on="1"/>
        <pt x="939" y="720" on="1"/>
        <pt x="893" y="720" on="1"/>
        <pt x="893" y="879" on="0"/>
        <pt x="689" y="1048" on="0"/>
        <pt x="544" y="1048" on="1"/>
        <pt x="354" y="1048" on="0"/>
        <pt x="158" y="776" on="0"/>
        <pt x="158" y="562" on="1"/>
        <pt x="158" y="520" on="1"/>
        <pt x="158" y="304" on="0"/>
        <pt x="354" y="33" on="0"/>
      </contour>
    </TTGlyph>
    <TTGlyph name="cacute" xMin="104" yMin="-21" xMax="945" yMax="1491">
      <component glyphName="c" x="0" y="0" flags="0x204"/>
      <component glyphName="acute" x="382" y="13" flags="0x4"/>
    </TTGlyph>
    <TTGlyph name="caron" xMin="90" yMin="1252" xMax="595" yMax="1475">
      <contour>
        <pt x="344" y="1288" on="1"/>
        <pt x="528" y="1475" on="1"/>
        <pt x="595" y="1475" on="1"/>
        <pt x="595" y="1459" on="1"/>
        <pt x="383" y="1252" on="1"/>
        <pt x="304" y="1252" on="1"/>
        <pt x="90" y="1461" on="1"/>
        <pt x="90" y="1475" on="1"/>
        <pt x="161" y="1475" on="1"/>
      </contour>
    </TTGlyph>
    <TTGlyph name="ccaron" xMin="104" yMin="-21" xMax="945" yMax="1477">
      <component glyphName="c" x="0" y="0" flags="0x204"/>
      <component glyphName="caron" x="203" y="2" flags="0x4"/>
    </TTGlyph>
    <TTGlyph name="ccedilla" xMin="104" yMin="-444" xMax="945" yMax="1102">
      <component glyphName="c" x="0" y="0" flags="0x204"/>
      <component glyphName="cedilla" x="368" y="-9" flags="0x4"/>
    </TTGlyph>
    <TTGlyph name="ccircumflex" xMin="104" yMin="-21" xMax="945" yMax="1502">
      <component glyphName="c" x="0" y="0" flags="0x204"/>
      <component glyphName="circumflex" x="195" y="27" flags="0x4"/>
    </TTGlyph>
    <TTGlyph name="cedilla" xMin="103" yMin="-435" xMax="415" yMax="0">
      <contour>
        <pt x="229" y="0" on="1"/>
        <pt x="218" y="-76" on="1"/>
        <pt x="309" y="-83" on="0"/>
        <pt x="415" y="-160" on="0"/>
        <pt x="415" y="-245" on="1"/>
        <pt x="415" y="-332" on="0"/>
        <pt x="257" y="-435" on="0"/>
        <pt x="110" y="-435" on="1"/>
        <pt x="103" y="-386" on="1"/>
        <pt x="207" y="-386" on="0"/>
        <pt x="360" y="-314" on="0"/>
        <pt x="360" y="-245" on="1"/>
        <pt x="360" y="-181" on="0"/>
        <pt x="269" y="-131" on="0"/>
        <pt x="151" y="-121" on="1"/>
        <pt x="176" y="0" on="1"/>
      </contour>
    </TTGlyph>
    <TTGlyph name="cent" xMin="141" yMin="-245" xMax="982" yMax="1318">
      <contour>
        <pt x="583" y="33" on="1"/>
        <pt x="720" y="33" on="0"/>
        <pt x="930" y="183" on="0"/>
        <pt x="930" y="333" on="1"/>
        <pt x="976" y="333" on="1"/>
        <pt x="978" y="327" on="1"/>
        <pt x="982" y="181" on="0"/>
        <pt x="776" y="-3" on="0"/>
        <pt x="631" y="-18" on="1"/>
        <pt x="631" y="-245" on="1"/>
        <pt x="576" y="-245" on="1"/>
        <pt x="576" y="-21" on="1"/>
        <pt x="371" y="-18" on="0"/>
        <pt x="141" y="279" on="0"/>
        <pt x="141" y="520" on="1"/>
        <pt x="141" y="562" on="1"/>
        <pt x="141" y="802" on="0"/>
        <pt x="372" y="1099" on="0"/>
        <pt x="576" y="1102" on="1"/>
        <pt x="576" y="1318" on="1"/>
        <pt x="631" y="1318" on="1"/>
        <pt x="631" y="1100" on="1"/>
        <pt x="737" y="1090" on="0"/>
        <pt x="917" y="991" on="0"/>
        <pt x="974" y="915" on="1"/>
        <pt x="974" y="683" on="1"/>
        <pt x="920" y="683" on="1"/>
        <pt x="920" y="895" on="1"/>
        <pt x="863" y="965" on="0"/>
        <pt x="690" y="1048" on="0"/>
        <pt x="581" y="1048" on="1"/>
        <pt x="391" y="1048" on="0"/>
        <pt x="195" y="776" on="0"/>
        <pt x="195" y="562" on="1"/>
        <pt x="195" y="520" on="1"/>
        <pt x="195" y="304" on="0"/>
        <pt x="391" y="33" on="0"/>
      </contour>
    </TTGlyph>
    <TTGlyph name="chi" xMin="82" yMin="0" xMax="1123" yMax="1082">
      <contour>
        <pt x="82" y="54" on="1"/>
        <pt x="208" y="54" on="1"/>
        <pt x="569" y="555" on="1"/>
        <pt x="228" y="1028" on="1"/>
        <pt x="102" y="1028" on="1"/>
        <pt x="102" y="1082" on="1"/>
        <pt x="260" y="1081" on="1"/>
        <pt x="603" y="602" on="1"/>
        <pt x="909" y="1028" on="1"/>
        <pt x="785" y="1028" on="1"/>
        <pt x="785" y="1082" on="1"/>
        <pt x="1103" y="1082" on="1"/>
        <pt x="1103" y="1028" on="1"/>
        <pt x="977" y="1028" on="1"/>
        <pt x="636" y="555" on="1"/>
        <pt x="997" y="54" on="1"/>
        <pt x="1123" y="54" on="1"/>
        <pt x="1123" y="0" on="1"/>
        <pt x="966" y="1" on="1"/>
        <pt x="602" y="508" on="1"/>
        <pt x="275" y="54" on="1"/>
        <pt x="399" y="54" on="1"/>
        <pt x="399" y="0" on="1"/>
        <pt x="82" y="0" on="1"/>
      </contour>
    </TTGlyph>
    <TTGlyph name="circumflex" xMin="104" yMin="1252" xMax="608" yMax="1475">
      <contour>
        <pt x="608" y="1265" on="1"/>
        <pt x="608" y="1252" on="1"/>
        <pt x="538" y="1252" on="1"/>
        <pt x="353" y="1438" on="1"/>
        <pt x="170" y="1252" on="1"/>
        <pt x="104" y="1252" on="1"/>
        <pt x="104" y="1269" on="1"/>
        <pt x="314" y="1475" on="1"/>
        <pt x="394" y="1475" on="1"/>
      </contour>
    </TTGlyph>
    <TTGlyph name="circumflexacutecomb" xMin="96" yMin="1252" xMax="837" yMax="1584">
      <contour>
        <pt x="338" y="1475" on="1"/>
        <pt x="418" y="1475" on="1"/>
        <pt x="660" y="1258" on="1"/>
        <pt x="658" y="1252" on="1"/>
        <pt x="582" y="1252" on="1"/>
        <pt x="378" y="1438" on="1"/>
        <pt x="174" y="1252" on="1"/>
        <pt x="98" y="1252" on="1"/>
        <pt x="96" y="1258" on="1"/>
      </contour>
      <contour>
        <pt x="768" y="1584" on="1"/>
        <pt x="834" y="1584" on="1"/>
        <pt x="837" y="1579" on="1"/>
        <pt x="678" y="1380" on="1"/>
        <pt x="615" y="1380" on="1"/>
      </contour>
    </TTGlyph>
    <TTGlyph name="circumflexgravecomb" xMin="36" yMin="1252" xMax="777" yMax="1584">
      <contour>
        <pt x="777" y="1258" on="1"/>
        <pt x="775" y="1252" on="1"/>
        <pt x="699" y="1252" on="1"/>
        <pt x="495" y="1438" on="1"/>
        <pt x="291" y="1252" on="1"/>
        <pt x="215" y="1252" on="1"/>
        <pt x="213" y="1258" on="1"/>
        <pt x="455" y="1475" on="1"/>
        <pt x="535" y="1475" on="1"/>
      </contour>
      <contour>
        <pt x="258" y="1380" on="1"/>
        <pt x="195" y="1380" on="1"/>
        <pt x="36" y="1579" on="1"/>
        <pt x="39" y="1584" on="1"/>
        <pt x="105" y="1584" on="1"/>
      </contour>
    </TTGlyph>
    <TTGlyph name="circumflexhookcomb" xMin="96" yMin="1252" xMax="871" yMax="1684">
      <contour>
        <pt x="418" y="1475" on="1"/>
        <pt x="338" y="1475" on="1"/>
        <pt x="96" y="1258" on="1"/>
        <pt x="98" y="1252" on="1"/>
        <pt x="174" y="1252" on="1"/>
        <pt x="377" y="1438" on="1"/>
        <pt x="582" y="1252" on="1"/>
        <pt x="658" y="1252" on="1"/>
        <pt x="660" y="1258" on="1"/>
      </contour>
      <contour>
        <pt x="661" y="1368" on="1"/>
        <pt x="661" y="1461" on="1"/>
        <pt x="747" y="1467" on="0"/>
        <pt x="810" y="1499" on="0"/>
        <pt x="810" y="1542" on="1"/>
        <pt x="810" y="1589" on="0"/>
        <pt x="703" y="1629" on="0"/>
        <pt x="624" y="1629" on="1"/>
        <pt x="629" y="1684" on="1"/>
        <pt x="736" y="1684" on="0"/>
        <pt x="871" y="1611" on="0"/>
        <pt x="871" y="1549" on="1"/>
        <pt x="871" y="1484" on="0"/>
        <pt x="782" y="1418" on="0"/>
        <pt x="707" y="1412" on="1"/>
        <pt x="707" y="1368" on="1"/>
      </contour>
    </TTGlyph>
    <TTGlyph name="circumflextildecomb" xMin="97" yMin="1252" xMax="659" yMax="1681">
      <contour>
        <pt x="659" y="1258" on="1"/>
        <pt x="657" y="1252" on="1"/>
        <pt x="582" y="1252" on="1"/>
        <pt x="377" y="1438" on="1"/>
        <pt x="174" y="1252" on="1"/>
        <pt x="99" y="1252" on="1"/>
        <pt x="97" y="1258" on="1"/>
        <pt x="348" y="1475" on="1"/>
        <pt x="408" y="1475" on="1"/>
      </contour>
      <contour>
        <pt x="637" y="1664" on="1"/>
        <pt x="637" y="1601" on="0"/>
        <pt x="562" y="1524" on="0"/>
        <pt x="507" y="1524" on="1"/>
        <pt x="451" y="1524" on="0"/>
        <pt x="335" y="1629" on="0"/>
        <pt x="294" y="1629" on="1"/>
        <pt x="258" y="1629" on="0"/>
        <pt x="216" y="1565" on="0"/>
        <pt x="216" y="1516" on="1"/>
        <pt x="165" y="1524" on="1"/>
        <pt x="165" y="1586" on="0"/>
        <pt x="241" y="1681" on="0"/>
        <pt x="294" y="1681" on="1"/>
        <pt x="348" y="1681" on="0"/>
        <pt x="468" y="1575" on="0"/>
        <pt x="507" y="1575" on="1"/>
        <pt x="544" y="1575" on="0"/>
        <pt x="586" y="1625" on="0"/>
        <pt x="586" y="1672" on="1"/>
      </contour>
    </TTGlyph>
    <TTGlyph name="colon" xMin="118" yMin="0" xMax="204" yMax="1079">
      <component glyphName="period" x="-27" y="0" flags="0x4"/>
      <component glyphName="period" x="-27" y="949" flags="0x4"/>
    </TTGlyph>
    <TTGlyph name="comma" xMin="92" yMin="-255" xMax="235" yMax="159">
      <contour>
        <pt x="235" y="27" on="1"/>
        <pt x="235" y="-61" on="0"/>
        <pt x="179" y="-201" on="0"/>
        <pt x="129" y="-255" on="1"/>
        <pt x="92" y="-223" on="1"/>
        <pt x="138" y="-162" on="0"/>
        <pt x="181" y="-49" on="0"/>
        <pt x="181" y="25" on="1"/>
        <pt x="181" y="159" on="1"/>
        <pt x="235" y="159" on="1"/>
      </contour>
    </TTGlyph>
    <TTGlyph name="commaaccent" xMin="90" yMin="-223" xMax="213" yMax="116">
      <contour>
        <pt x="213" y="19" on="1"/>
        <pt x="213" y="-56" on="0"/>
        <pt x="167" y="-177" on="0"/>
        <pt x="127" y="-223" on="1"/>
        <pt x="90" y="-191" on="1"/>
        <pt x="126" y="-139" on="0"/>
        <pt x="159" y="-46" on="0"/>
        <pt x="159" y="17" on="1"/>
        <pt x="159" y="116" on="1"/>
        <pt x="213" y="116" on="1"/>
      </contour>
    </TTGlyph>
    <TTGlyph name="commaaccentrotate" xMin="148" yMin="1244" xMax="257" yMax="1560">
      <contour>
        <pt x="148" y="1372" on="1"/>
        <pt x="207" y="1560" on="1"/>
        <pt x="257" y="1560" on="1"/>
        <pt x="202" y="1376" on="1"/>
        <pt x="202" y="1244" on="1"/>
        <pt x="148" y="1244" on="1"/>
      </contour>
    </TTGlyph>
    <TTGlyph name="copyright" xMin="92" yMin="-21" xMax="1512" yMax="1476">
      <contour>
        <pt x="1085" y="596" on="1"/>
        <pt x="1088" y="590" on="1"/>
        <pt x="1091" y="440" on="0"/>
        <pt x="934" y="282" on="0"/>
        <pt x="795" y="282" on="1"/>
        <pt x="651" y="282" on="0"/>
        <pt x="475" y="496" on="0"/>
        <pt x="475" y="669" on="1"/>
        <pt x="475" y="788" on="1"/>
        <pt x="475" y="960" on="0"/>
        <pt x="652" y="1175" on="0"/>
        <pt x="795" y="1175" on="1"/>
        <pt x="934" y="1175" on="0"/>
        <pt x="1092" y="1016" on="0"/>
        <pt x="1089" y="868" on="1"/>
        <pt x="1086" y="862" on="1"/>
        <pt x="1042" y="862" on="1"/>
        <pt x="1042" y="991" on="0"/>
        <pt x="914" y="1122" on="0"/>
        <pt x="795" y="1122" on="1"/>
        <pt x="672" y="1122" on="0"/>
        <pt x="530" y="932" on="0"/>
        <pt x="530" y="789" on="1"/>
        <pt x="530" y="669" on="1"/>
        <pt x="530" y="524" on="0"/>
        <pt x="671" y="337" on="0"/>
        <pt x="795" y="337" on="1"/>
        <pt x="915" y="337" on="0"/>
        <pt x="1041" y="464" on="0"/>
        <pt x="1041" y="596" on="1"/>
      </contour>
      <contour>
        <pt x="148" y="729" on="1"/>
        <pt x="148" y="439" on="0"/>
        <pt x="531" y="34" on="0"/>
        <pt x="802" y="34" on="1"/>
        <pt x="1071" y="34" on="0"/>
        <pt x="1456" y="439" on="0"/>
        <pt x="1456" y="729" on="1"/>
        <pt x="1456" y="1018" on="0"/>
        <pt x="1072" y="1421" on="0"/>
        <pt x="802" y="1421" on="1"/>
        <pt x="531" y="1421" on="0"/>
        <pt x="148" y="1018" on="0"/>
      </contour>
      <contour>
        <pt x="92" y="729" on="1"/>
        <pt x="92" y="1044" on="0"/>
        <pt x="506" y="1476" on="0"/>
        <pt x="802" y="1476" on="1"/>
        <pt x="1097" y="1476" on="0"/>
        <pt x="1512" y="1044" on="0"/>
        <pt x="1512" y="729" on="1"/>
        <pt x="1512" y="413" on="0"/>
        <pt x="1097" y="-21" on="0"/>
        <pt x="802" y="-21" on="1"/>
        <pt x="507" y="-21" on="0"/>
        <pt x="92" y="413" on="0"/>
      </contour>
    </TTGlyph>
    <TTGlyph name="crossbar" xMin="154" yMin="721" xMax="741" yMax="775">
      <contour>
        <pt x="741" y="721" on="1"/>
        <pt x="154" y="721" on="1"/>
        <pt x="154" y="775" on="1"/>
        <pt x="741" y="775" on="1"/>
      </contour>
    </TTGlyph>
    <TTGlyph name="currency" xMin="94" yMin="-27" xMax="1360" yMax="1265">
      <contour>
        <pt x="1139" y="156" on="1"/>
        <pt x="1057" y="72" on="0"/>
        <pt x="844" y="-20" on="0"/>
        <pt x="725" y="-20" on="1"/>
        <pt x="605" y="-20" on="0"/>
        <pt x="392" y="71" on="0"/>
        <pt x="310" y="154" on="1"/>
        <pt x="134" y="-26" on="1"/>
        <pt x="94" y="13" on="1"/>
        <pt x="273" y="195" on="1"/>
        <pt x="204" y="279" on="0"/>
        <pt x="129" y="490" on="0"/>
        <pt x="129" y="608" on="1"/>
        <pt x="129" y="730" on="0"/>
        <pt x="209" y="947" on="0"/>
        <pt x="283" y="1032" on="1"/>
        <pt x="94" y="1225" on="1"/>
        <pt x="134" y="1264" on="1"/>
        <pt x="322" y="1072" on="1"/>
        <pt x="402" y="1149" on="0"/>
        <pt x="609" y="1234" on="0"/>
        <pt x="725" y="1234" on="1"/>
        <pt x="839" y="1234" on="0"/>
        <pt x="1046" y="1148" on="0"/>
        <pt x="1128" y="1070" on="1"/>
        <pt x="1319" y="1265" on="1"/>
        <pt x="1360" y="1225" on="1"/>
        <pt x="1167" y="1029" on="1"/>
        <pt x="1239" y="944" on="0"/>
        <pt x="1319" y="728" on="0"/>
        <pt x="1319" y="608" on="1"/>
        <pt x="1319" y="491" on="0"/>
        <pt x="1245" y="282" on="0"/>
        <pt x="1178" y="199" on="1"/>
        <pt x="1360" y="13" on="1"/>
        <pt x="1319" y="-27" on="1"/>
      </contour>
      <contour>
        <pt x="184" y="608" on="1"/>
        <pt x="184" y="370" on="0"/>
        <pt x="502" y="33" on="0"/>
        <pt x="725" y="33" on="1"/>
        <pt x="946" y="33" on="0"/>
        <pt x="1265" y="370" on="0"/>
        <pt x="1265" y="608" on="1"/>
        <pt x="1265" y="845" on="0"/>
        <pt x="946" y="1181" on="0"/>
        <pt x="725" y="1181" on="1"/>
        <pt x="502" y="1181" on="0"/>
        <pt x="184" y="845" on="0"/>
      </contour>
    </TTGlyph>
    <TTGlyph name="cyrillicbreve" xMin="120" yMin="1208" xMax="674" yMax="1456">
      <component glyphName="breve" x="0" y="0" flags="0x204"/>
    </TTGlyph>
    <TTGlyph name="cyrillichook" xMin="-35" yMin="-397" xMax="322" yMax="-1">
      <contour>
        <pt x="322" y="-1" on="1"/>
        <pt x="322" y="-109" on="1"/>
        <pt x="322" y="-247" on="0"/>
        <pt x="192" y="-397" on="0"/>
        <pt x="77" y="-397" on="1"/>
        <pt x="47" y="-397" on="0"/>
        <pt x="-4" y="-387" on="0"/>
        <pt x="-35" y="-377" on="1"/>
        <pt x="-22" y="-325" on="1"/>
        <pt x="-13" y="-325" on="0"/>
        <pt x="56" y="-344" on="0"/>
        <pt x="77" y="-344" on="1"/>
        <pt x="168" y="-344" on="0"/>
        <pt x="268" y="-220" on="0"/>
        <pt x="268" y="-109" on="1"/>
        <pt x="268" y="-1" on="1"/>
      </contour>
    </TTGlyph>
    <TTGlyph name="cyrillichookleft" xMin="-1" yMin="-357" xMax="263" yMax="20">
      <contour>
        <pt x="133" y="20" on="1"/>
        <pt x="189" y="-36" on="0"/>
        <pt x="263" y="-162" on="0"/>
        <pt x="263" y="-223" on="1"/>
        <pt x="263" y="-286" on="0"/>
        <pt x="185" y="-357" on="0"/>
        <pt x="125" y="-357" on="1"/>
        <pt x="83" y="-357" on="0"/>
        <pt x="22" y="-331" on="0"/>
        <pt x="-1" y="-313" on="1"/>
        <pt x="15" y="-265" on="1"/>
        <pt x="40" y="-282" on="0"/>
        <pt x="90" y="-303" on="0"/>
        <pt x="125" y="-303" on="1"/>
        <pt x="176" y="-303" on="0"/>
        <pt x="209" y="-246" on="0"/>
        <pt x="209" y="-223" on="1"/>
        <pt x="209" y="-164" on="0"/>
        <pt x="145" y="-68" on="0"/>
        <pt x="81" y="0" on="1"/>
      </contour>
    </TTGlyph>
    <TTGlyph name="cyrillictic" xMin="162" yMin="-352" xMax="216" yMax="54">
      <contour>
        <pt x="216" y="-352" on="1"/>
        <pt x="162" y="-352" on="1"/>
        <pt x="162" y="54" on="1"/>
        <pt x="216" y="54" on="1"/>
      </contour>
    </TTGlyph>
    <TTGlyph name="d" xMin="104" yMin="-21" xMax="1096" yMax="1560">
      <contour>
        <pt x="879" y="173" on="1"/>
        <pt x="826" y="84" on="0"/>
        <pt x="638" y="-21" on="0"/>
        <pt x="510" y="-21" on="1"/>
        <pt x="319" y="-21" on="0"/>
        <pt x="104" y="271" on="0"/>
        <pt x="104" y="521" on="1"/>
        <pt x="104" y="542" on="1"/>
        <pt x="104" y="799" on="0"/>
        <pt x="320" y="1102" on="0"/>
        <pt x="512" y="1102" on="1"/>
        <pt x="640" y="1102" on="0"/>
        <pt x="824" y="985" on="0"/>
        <pt x="879" y="883" on="1"/>
        <pt x="879" y="1506" on="1"/>
        <pt x="716" y="1506" on="1"/>
        <pt x="716" y="1560" on="1"/>
        <pt x="879" y="1560" on="1"/>
        <pt x="933" y="1560" on="1"/>
        <pt x="933" y="54" on="1"/>
        <pt x="1096" y="54" on="1"/>
        <pt x="1096" y="0" on="1"/>
        <pt x="881" y="0" on="1"/>
      </contour>
      <contour>
        <pt x="160" y="521" on="1"/>
        <pt x="160" y="297" on="0"/>
        <pt x="337" y="33" on="0"/>
        <pt x="509" y="33" on="1"/>
        <pt x="650" y="33" on="0"/>
        <pt x="837" y="161" on="0"/>
        <pt x="879" y="268" on="1"/>
        <pt x="879" y="775" on="1"/>
        <pt x="840" y="891" on="0"/>
        <pt x="666" y="1048" on="0"/>
        <pt x="511" y="1048" on="1"/>
        <pt x="339" y="1048" on="0"/>
        <pt x="160" y="767" on="0"/>
        <pt x="160" y="542" on="1"/>
      </contour>
    </TTGlyph>
    <TTGlyph name="dagger" xMin="63" yMin="0" xMax="1053" yMax="1456">
      <contour>
        <pt x="1053" y="1024" on="1"/>
        <pt x="592" y="1024" on="1"/>
        <pt x="592" y="0" on="1"/>
        <pt x="538" y="0" on="1"/>
        <pt x="538" y="1024" on="1"/>
        <pt x="63" y="1024" on="1"/>
        <pt x="63" y="1082" on="1"/>
        <pt x="538" y="1082" on="1"/>
        <pt x="538" y="1456" on="1"/>
        <pt x="592" y="1456" on="1"/>
        <pt x="592" y="1082" on="1"/>
        <pt x="1053" y="1082" on="1"/>
      </contour>
    </TTGlyph>
    <TTGlyph name="daggerdbl" xMin="71" yMin="-416" xMax="1060" yMax="1456">
      <contour>
        <pt x="1060" y="0" on="1"/>
        <pt x="579" y="0" on="1"/>
        <pt x="579" y="-416" on="1"/>
        <pt x="524" y="-416" on="1"/>
        <pt x="524" y="0" on="1"/>
        <pt x="71" y="0" on="1"/>
        <pt x="71" y="54" on="1"/>
        <pt x="524" y="54" on="1"/>
        <pt x="524" y="1027" on="1"/>
        <pt x="71" y="1027" on="1"/>
        <pt x="71" y="1082" on="1"/>
        <pt x="524" y="1082" on="1"/>
        <pt x="524" y="1456" on="1"/>
        <pt x="579" y="1456" on="1"/>
        <pt x="579" y="1082" on="1"/>
        <pt x="1060" y="1082" on="1"/>
        <pt x="1060" y="1027" on="1"/>
        <pt x="579" y="1027" on="1"/>
        <pt x="579" y="54" on="1"/>
        <pt x="1060" y="54" on="1"/>
      </contour>
    </TTGlyph>
    <TTGlyph name="dasiaoxia" xMin="179" yMin="1154" xMax="552" yMax="1482">
      <contour>
        <pt x="341" y="1164" on="1"/>
        <pt x="493" y="1477" on="1"/>
        <pt x="552" y="1477" on="1"/>
        <pt x="552" y="1456" on="1"/>
        <pt x="393" y="1155" on="1"/>
        <pt x="341" y="1155" on="1"/>
      </contour>
      <contour>
        <pt x="179" y="1258" on="1"/>
        <pt x="179" y="1332" on="0"/>
        <pt x="253" y="1455" on="0"/>
        <pt x="316" y="1482" on="1"/>
        <pt x="342" y="1441" on="1"/>
        <pt x="287" y="1408" on="0"/>
        <pt x="237" y="1316" on="0"/>
        <pt x="237" y="1252" on="1"/>
        <pt x="237" y="1154" on="1"/>
        <pt x="179" y="1154" on="1"/>
      </contour>
    </TTGlyph>
    <TTGlyph name="dcaron" xMin="104" yMin="-21" xMax="1206" yMax="1560">
      <component glyphName="d" x="0" y="0" flags="0x4"/>
      <component glyphName="commaaccent" x="993" y="1442" flags="0x4"/>
    </TTGlyph>
    <TTGlyph name="dcroat" xMin="104" yMin="-21" xMax="1157" yMax="1560">
      <contour>
        <pt x="879" y="173" on="1"/>
        <pt x="826" y="84" on="0"/>
        <pt x="638" y="-21" on="0"/>
        <pt x="510" y="-21" on="1"/>
        <pt x="319" y="-21" on="0"/>
        <pt x="104" y="271" on="0"/>
        <pt x="104" y="521" on="1"/>
        <pt x="104" y="542" on="1"/>
        <pt x="104" y="799" on="0"/>
        <pt x="320" y="1102" on="0"/>
        <pt x="512" y="1102" on="1"/>
        <pt x="640" y="1102" on="0"/>
        <pt x="824" y="985" on="0"/>
        <pt x="879" y="883" on="1"/>
        <pt x="879" y="1251" on="1"/>
        <pt x="570" y="1251" on="1"/>
        <pt x="570" y="1305" on="1"/>
        <pt x="879" y="1305" on="1"/>
        <pt x="879" y="1506" on="1"/>
        <pt x="716" y="1506" on="1"/>
        <pt x="716" y="1560" on="1"/>
        <pt x="933" y="1560" on="1"/>
        <pt x="933" y="1305" on="1"/>
        <pt x="1157" y="1305" on="1"/>
        <pt x="1157" y="1251" on="1"/>
        <pt x="933" y="1251" on="1"/>
        <pt x="933" y="54" on="1"/>
        <pt x="1096" y="54" on="1"/>
        <pt x="1096" y="0" on="1"/>
        <pt x="881" y="0" on="1"/>
      </contour>
      <contour>
        <pt x="160" y="521" on="1"/>
        <pt x="160" y="297" on="0"/>
        <pt x="337" y="33" on="0"/>
        <pt x="509" y="33" on="1"/>
        <pt x="650" y="33" on="0"/>
        <pt x="837" y="161" on="0"/>
        <pt x="879" y="268" on="1"/>
        <pt x="879" y="775" on="1"/>
        <pt x="840" y="891" on="0"/>
        <pt x="666" y="1048" on="0"/>
        <pt x="511" y="1048" on="1"/>
        <pt x="339" y="1048" on="0"/>
        <pt x="160" y="767" on="0"/>
        <pt x="160" y="542" on="1"/>
      </contour>
    </TTGlyph>
</ttFont>
